<svg xmlns="http://www.w3.org/2000/svg" xmlns:xlink="http://www.w3.org/1999/xlink" width="100%" height="100%" version="1.1" viewBox="0 0 500 420" xml:space="preserve" style="fill-rule:evenodd;clip-rule:evenodd;stroke-linecap:round;stroke-linejoin:round;stroke-miterlimit:1.5"><g><g><path d="M100,300L300,394L300,154L100,54L100,300Z" style="fill:#b1ffc3;stroke:#000;stroke-width:1px" transform="matrix(1,0,0,1,10,-60) matrix(1,0,0,1,-80,66)"/></g><g><path d="M60,100L260,200L500,160L300,60L60,100Z" style="fill:#ffb1c3;stroke:#000;stroke-width:1px" transform="matrix(1,0,0,1,10,-60) matrix(1,0,0,1,-40,20)"/></g><g><path d="M480,180L240,220L240,460L480,420L480,180Z" style="fill:#b1c9ff;stroke:#000;stroke-width:1px" transform="matrix(1,0,0,1,10,-60) matrix(1,0,0,1,-20,0)"/></g></g><g><path d="M253.23,133.913L66.77,133.913L66.77,6.087L98.313,6.087L98.313,96.265L142.448,96.265L142.448,18.424L173.991,18.424L173.991,96.265L253.23,96.265L253.23,133.913Z" style="fill:#9db9fa;fill-rule:nonzero" transform="matrix(6.12323e-17,1,-1,0.161122,423.913,89.0193)"/></g><g><path d="M253.23,133.913L66.77,133.913L66.77,6.087L98.313,6.087L98.313,96.265L142.448,96.265L142.448,18.424L173.991,18.424L173.991,96.265L253.23,96.265L253.23,133.913Z" style="fill:#7dfd9b;fill-rule:nonzero" transform="matrix(6.12323e-17,1,-1,-0.498582,193.913,104.765)"/></g><g><path d="M180,240L103.149,390L83.149,265L96.797,231.682L113.149,330L123.149,310L112,245L121.935,216.818L133.149,280L173.149,200L180,240Z" style="fill:#ff9fb5" transform="matrix(6.12323e-17,1,-1,6.12323e-17,505,-40)"/></g><g transform="matrix(1,0,0,1,10,-60)"><circle cx="220.652" cy="222.077" r="7.923"/></g><g><g><path d="M216.365,185L220,200L212.729,200L216.365,185Z" style="fill:#af0000" transform="matrix(1,0,0,1,10,-60) matrix(1.36479,0,0,1,-74.2529,-12.5)"/></g><g transform="matrix(1,0,0,1,10,-60) matrix(1.0146,0,0,1.5,-5.26493,-105)"><rect width="3.961" height="15" x="221.039" y="195" style="fill:#af0000"/></g></g><g><g><path d="M216.365,185L220,200L212.729,200L216.365,185Z" style="fill:#19af00" transform="matrix(-0.142773,-0.989756,0.989756,-0.142773,42.122,411.717) matrix(1.36479,0,0,1,-74.2529,-12.5)"/></g><g transform="matrix(-0.142773,-0.989756,0.989756,-0.142773,42.122,411.717) matrix(1.0146,0,0,1.5,-5.26493,-105)"><rect width="3.961" height="15" x="221.039" y="195" style="fill:#19af00"/></g></g><g><g><path d="M216.365,185L220,200L212.729,200L216.365,185Z" style="fill:#002aaf" transform="matrix(-0.44533,0.895367,-0.895367,-0.44533,527.886,62.9089) matrix(1.36479,0,0,1,-74.2529,-12.5)"/></g><g transform="matrix(-0.44533,0.895367,-0.895367,-0.44533,527.886,62.9089) matrix(1.0146,0,0,1.5,-5.26493,-105)"><rect width="3.961" height="15" x="221.039" y="195" style="fill:#002aaf"/></g></g></svg>