<svg xmlns="http://www.w3.org/2000/svg" xmlns:xlink="http://www.w3.org/1999/xlink" width="100%" height="100%" version="1.1" viewBox="0 0 500 500" xml:space="preserve" style="fill-rule:evenodd;clip-rule:evenodd;stroke-linejoin:round;stroke-miterlimit:1.41421"><g transform="matrix(1,0,0,1,-100,-100)"><rect width="100" height="100" x="100" y="100" style="fill:#ebebeb"/></g><g transform="matrix(1,0,0,1,-100,0)"><rect width="100" height="100" x="100" y="100" style="fill:#f5f5f5"/></g><g transform="matrix(1,0,0,1,-100,100)"><rect width="100" height="100" x="100" y="100" style="fill:#dbdbdb"/></g><g transform="matrix(1,0,0,1,-100,200)"><rect width="100" height="100" x="100" y="100" style="fill:#e5e5e5"/></g><g transform="matrix(1,0,0,1,-100,300)"><rect width="100" height="100" x="100" y="100" style="fill:#ccc"/></g><g transform="matrix(1,0,0,1,0,-100)"><rect width="100" height="100" x="100" y="100" style="fill:#dfdfdf"/></g><rect width="100" height="100" x="100" y="100" style="fill:#cdcdcd"/><g transform="matrix(1,0,0,1,0,100)"><rect width="100" height="100" x="100" y="100" style="fill:#c1c1c1"/></g><g transform="matrix(1,0,0,1,0,200)"><rect width="100" height="100" x="100" y="100" style="fill:#b6b6b6"/></g><g transform="matrix(1,0,0,1,0,300)"><rect width="100" height="100" x="100" y="100" style="fill:#bdbdbd"/></g><g transform="matrix(1,0,0,1,100,-100)"><rect width="100" height="100" x="100" y="100" style="fill:#dbdbdb"/></g><g transform="matrix(1,0,0,1,100,0)"><rect width="100" height="100" x="100" y="100" style="fill:#bbb"/></g><g transform="matrix(1,0,0,1,100,100)"><rect width="100" height="100" x="100" y="100" style="fill:#a4a4a4"/></g><g transform="matrix(1,0,0,1,100,200)"><rect width="100" height="100" x="100" y="100" style="fill:#8a8a8a"/></g><g transform="matrix(1,0,0,1,100,300)"><rect width="100" height="100" x="100" y="100" style="fill:#adadad"/></g><g transform="matrix(1,0,0,1,200,-100)"><rect width="100" height="100" x="100" y="100" style="fill:#cbcbcb"/></g><g transform="matrix(1,0,0,1,200,0)"><rect width="100" height="100" x="100" y="100" style="fill:#c2c2c2"/></g><g transform="matrix(1,0,0,1,200,100)"><rect width="100" height="100" x="100" y="100" style="fill:#ababab"/></g><g transform="matrix(1,0,0,1,200,200)"><rect width="100" height="100" x="100" y="100" style="fill:#9c9c9c"/></g><g transform="matrix(1,0,0,1,200,300)"><rect width="100" height="100" x="100" y="100" style="fill:#c2c2c2"/></g><g transform="matrix(1,0,0,1,300,-100)"><rect width="100" height="100" x="100" y="100" style="fill:#d1d1d1"/></g><g transform="matrix(1,0,0,1,300,0)"><rect width="100" height="100" x="100" y="100" style="fill:#d9d9d9"/></g><g transform="matrix(1,0,0,1,300,100)"><rect width="100" height="100" x="100" y="100" style="fill:#c4c4c4"/></g><g transform="matrix(1,0,0,1,300,200)"><rect width="100" height="100" x="100" y="100" style="fill:#acacac"/></g><g transform="matrix(1,0,0,1,300,300)"><rect width="100" height="100" x="100" y="100" style="fill:#bababa"/></g><g transform="matrix(1,0,0,1,-50,-90)"><circle cx="100" cy="140" r="10"/></g><g transform="matrix(1,0,0,1,-50,10)"><circle cx="100" cy="140" r="10"/></g><g transform="matrix(1,0,0,1,-50,110)"><circle cx="100" cy="140" r="10"/></g><g transform="matrix(1,0,0,1,-50,210)"><circle cx="100" cy="140" r="10"/></g><g transform="matrix(1,0,0,1,-50,310)"><circle cx="100" cy="140" r="10"/></g><g transform="matrix(1,0,0,1,50,-90)"><circle cx="100" cy="140" r="10"/></g><g transform="matrix(1,0,0,1,50,10)"><circle cx="100" cy="140" r="10"/></g><g transform="matrix(1,0,0,1,50,110)"><circle cx="100" cy="140" r="10"/></g><g transform="matrix(1,0,0,1,50,210)"><circle cx="100" cy="140" r="10"/></g><g transform="matrix(1,0,0,1,50,310)"><circle cx="100" cy="140" r="10"/></g><g transform="matrix(1,0,0,1,150,-90)"><circle cx="100" cy="140" r="10"/></g><g transform="matrix(1,0,0,1,150,10)"><circle cx="100" cy="140" r="10"/></g><g transform="matrix(1,0,0,1,150,110)"><circle cx="100" cy="140" r="10"/></g><g transform="matrix(1,0,0,1,150,210)"><circle cx="100" cy="140" r="10"/></g><g transform="matrix(1,0,0,1,150,310)"><circle cx="100" cy="140" r="10"/></g><g transform="matrix(1,0,0,1,250,-90)"><circle cx="100" cy="140" r="10"/></g><g transform="matrix(1,0,0,1,250,10)"><circle cx="100" cy="140" r="10"/></g><g transform="matrix(1,0,0,1,250,110)"><circle cx="100" cy="140" r="10"/></g><g transform="matrix(1,0,0,1,250,210)"><circle cx="100" cy="140" r="10"/></g><g transform="matrix(1,0,0,1,250,310)"><circle cx="100" cy="140" r="10"/></g><g transform="matrix(1,0,0,1,350,-90)"><circle cx="100" cy="140" r="10"/></g><g transform="matrix(1,0,0,1,350,10)"><circle cx="100" cy="140" r="10"/></g><g transform="matrix(1,0,0,1,350,110)"><circle cx="100" cy="140" r="10"/></g><g transform="matrix(1,0,0,1,350,210)"><circle cx="100" cy="140" r="10"/></g><g transform="matrix(1,0,0,1,350,310)"><circle cx="100" cy="140" r="10"/></g></svg>