<svg xmlns="http://www.w3.org/2000/svg" xmlns:xlink="http://www.w3.org/1999/xlink" width="100%" height="100%" version="1.1" viewBox="0 0 500 500" xml:space="preserve" style="fill-rule:evenodd;clip-rule:evenodd;stroke-linecap:round;stroke-linejoin:round;stroke-miterlimit:1.5"><g transform="matrix(1.76,0,0,1.76,-176,-176)"><rect width="100" height="100" x="100" y="100" style="fill:#ebebeb"/></g><g transform="matrix(1.76,0,0,1.76,-176,0)"><rect width="100" height="100" x="100" y="100" style="fill:#f5f5f5"/></g><g transform="matrix(1.76,0,0,1.76,-176,176)"><rect width="100" height="100" x="100" y="100" style="fill:#dbdbdb"/></g><g transform="matrix(1.76,0,0,1.76,0,-176)"><rect width="100" height="100" x="100" y="100" style="fill:#dfdfdf"/></g><g transform="matrix(1.76,0,0,1.76,0,0)"><rect width="100" height="100" x="100" y="100" style="fill:#cdcdcd"/></g><g transform="matrix(1.76,0,0,1.76,0,176)"><rect width="100" height="100" x="100" y="100" style="fill:#c1c1c1"/></g><g transform="matrix(1.76,0,0,1.76,176,-176)"><rect width="100" height="100" x="100" y="100" style="fill:#dbdbdb"/></g><g transform="matrix(1.76,0,0,1.76,176,0)"><rect width="100" height="100" x="100" y="100" style="fill:#bbb"/></g><g transform="matrix(1.76,0,0,1.76,176,176)"><rect width="100" height="100" x="100" y="100" style="fill:#a4a4a4"/></g><g transform="matrix(1.76,0,0,1.76,-88,-158.4)"><circle cx="100" cy="140" r="10"/></g><g transform="matrix(1.76,0,0,1.76,-4.26326e-14,-68.8)"><circle cx="100" cy="140" r="10"/></g><g transform="matrix(1.76,0,0,1.76,-88,17.6)"><circle cx="100" cy="140" r="10"/></g><g transform="matrix(1.76,0,0,1.76,-88,193.6)"><circle cx="100" cy="140" r="10"/></g><g transform="matrix(1.76,0,0,1.76,88,-158.4)"><circle cx="100" cy="140" r="10"/></g><g transform="matrix(1.76,0,0,1.76,88,17.6)"><circle cx="100" cy="140" r="10"/></g><g transform="matrix(1.76,0,0,1.76,88,193.6)"><circle cx="100" cy="140" r="10"/></g><g transform="matrix(1.76,0,0,1.76,264,-158.4)"><circle cx="100" cy="140" r="10"/></g><g transform="matrix(1.76,0,0,1.76,264,17.6)"><circle cx="100" cy="140" r="10"/></g><g transform="matrix(1.76,0,0,1.76,264,193.6)"><circle cx="100" cy="140" r="10"/></g><rect width="176" height="176" x="88" y="88" style="fill:none;stroke:#000;stroke-width:1px"/><path d="M88,90L264,264" style="fill:none;stroke:#000;stroke-width:1px"/><path d="M88,264L264,88" style="fill:none;stroke:#000;stroke-width:1px"/><g><text x="59.142" y="53.754" style="font-family:'ArialMT','Arial',sans-serif;font-size:50px" transform="matrix(1,0,0,1,-14.5571,13.91)">2</text></g><g><text x="59.142" y="53.754" style="font-family:'ArialMT','Arial',sans-serif;font-size:50px" transform="matrix(1,0,0,1,216.658,13.5467)">3</text></g><g><text x="59.142" y="53.754" style="font-family:'ArialMT','Arial',sans-serif;font-size:50px" transform="matrix(1,0,0,1,-18.3071,267.82)">0</text></g><g><text x="59.142" y="53.754" style="font-family:'ArialMT','Arial',sans-serif;font-size:50px" transform="matrix(1,0,0,1,215.978,267.476)">1</text></g><g><text x="59.142" y="53.754" style="font-family:'ArialMT','Arial',sans-serif;font-size:50px" transform="matrix(1,0,0,1,143.634,141.23)">4</text></g></svg>