<svg xmlns="http://www.w3.org/2000/svg" xmlns:xlink="http://www.w3.org/1999/xlink" width="100%" height="100%" version="1.1" viewBox="0 0 650 512" xml:space="preserve" style="fill-rule:evenodd;clip-rule:evenodd;stroke-linecap:round;stroke-linejoin:round;stroke-miterlimit:1.5"><g><path d="M394.725,136L-60.761,136L166.621,195L177.911,195L394.725,136Z" style="fill:#e4ebff;stroke:#000;stroke-width:.03px" transform="matrix(1.30527,4.23642e-18,0,4.39451,101.309,-502.263)"/></g><g><g><path d="M256,0L256,512" style="fill:none;stroke:#000;stroke-width:.1px" transform="matrix(1,0,0,1,69,0) matrix(1,0,0,1,266,-2.22045e-16)"/></g><g><path d="M256,0L256,512" style="fill:none;stroke:#000;stroke-width:.1px" transform="matrix(1,0,0,1,69,0) matrix(1,0,0,1,212.913,-2.22045e-16)"/></g><g><path d="M256,0L256,512" style="fill:none;stroke:#000;stroke-width:.1px" transform="matrix(1,0,0,1,69,0) matrix(1,0,0,1,159.826,-2.22045e-16)"/></g><g><path d="M256,0L256,512" style="fill:none;stroke:#000;stroke-width:.1px" transform="matrix(1,0,0,1,69,0) matrix(1,0,0,1,106.739,-2.22045e-16)"/></g><g><path d="M256,0L256,512" style="fill:none;stroke:#000;stroke-width:.1px" transform="matrix(1,0,0,1,69,0) matrix(1,0,0,1,53.6526,-2.22045e-16)"/></g><g><path d="M256,0L256,512" style="fill:none;stroke:#000;stroke-width:1px" transform="matrix(1,0,0,1,69,0) matrix(1,0,0,1,0.565757,-2.22045e-16)"/></g><g><path d="M256,0L256,512" style="fill:none;stroke:#000;stroke-width:.1px" transform="matrix(1,0,0,1,69,0) matrix(1,0,0,1,-52.5211,-2.22045e-16)"/></g><g><path d="M256,0L256,512" style="fill:none;stroke:#000;stroke-width:.1px" transform="matrix(1,0,0,1,69,0) matrix(1,0,0,1,-105.608,-2.22045e-16)"/></g><g><path d="M256,0L256,512" style="fill:none;stroke:#000;stroke-width:.1px" transform="matrix(1,0,0,1,69,0) matrix(1,0,0,1,-158.695,-2.22045e-16)"/></g><g><path d="M256,0L256,512" style="fill:none;stroke:#000;stroke-width:.1px" transform="matrix(1,0,0,1,69,0) matrix(1,0,0,1,-211.695,-2.22045e-16)"/></g><g><path d="M256,0L256,512" style="fill:none;stroke:#000;stroke-width:.1px" transform="matrix(1,0,0,1,69,0) matrix(1,0,0,1,-264.782,-2.22045e-16)"/></g></g><g><g><path d="M256,0L256,512" style="fill:none;stroke:#000;stroke-width:.09px" transform="matrix(6.12323e-17,-1,1.26953,7.77364e-17,8.52951e-14,512) matrix(1,0,0,1,212.913,-2.22045e-16)"/></g><g><path d="M256,0L256,512" style="fill:none;stroke:#000;stroke-width:.09px" transform="matrix(6.12323e-17,-1,1.26953,7.77364e-17,8.52951e-14,512) matrix(1,0,0,1,159.826,-2.22045e-16)"/></g><g><path d="M256,0L256,512" style="fill:none;stroke:#000;stroke-width:.09px" transform="matrix(6.12323e-17,-1,1.26953,7.77364e-17,8.52951e-14,512) matrix(1,0,0,1,106.739,-2.22045e-16)"/></g><g><path d="M256,0L256,512" style="fill:none;stroke:#000;stroke-width:.09px" transform="matrix(6.12323e-17,-1,1.26953,7.77364e-17,8.52951e-14,512) matrix(1,0,0,1,53.6526,-2.22045e-16)"/></g><g><path d="M256,0L256,512" style="fill:none;stroke:#000;stroke-width:.88px" transform="matrix(6.12323e-17,-1,1.26953,7.77364e-17,8.52951e-14,512) matrix(1,0,0,1,0.565757,-2.22045e-16)"/></g><g><path d="M256,0L256,512" style="fill:none;stroke:#000;stroke-width:.09px" transform="matrix(6.12323e-17,-1,1.26953,7.77364e-17,8.52951e-14,512) matrix(1,0,0,1,-52.5211,-2.22045e-16)"/></g><g><path d="M256,0L256,512" style="fill:none;stroke:#000;stroke-width:.09px" transform="matrix(6.12323e-17,-1,1.26953,7.77364e-17,8.52951e-14,512) matrix(1,0,0,1,-105.608,-2.22045e-16)"/></g><g><path d="M256,0L256,512" style="fill:none;stroke:#000;stroke-width:.09px" transform="matrix(6.12323e-17,-1,1.26953,7.77364e-17,8.52951e-14,512) matrix(1,0,0,1,-158.695,-2.22045e-16)"/></g><g><path d="M256,0L256,512" style="fill:none;stroke:#000;stroke-width:.09px" transform="matrix(6.12323e-17,-1,1.26953,7.77364e-17,8.52951e-14,512) matrix(1,0,0,1,-211.782,-2.22045e-16)"/></g></g><g><text x="278.451" y="492.641" style="font-family:'Arial-BoldMT','Arial',sans-serif;font-weight:700;font-size:36px" transform="matrix(1,0,0,1,69,0)">+Z</text></g><g><text x="278.451" y="492.641" style="font-family:'Arial-BoldMT','Arial',sans-serif;font-weight:700;font-size:36px" transform="matrix(1,0,0,1,69,-457)">-Z</text></g><g><text x="278.451" y="492.641" style="font-family:'Arial-BoldMT','Arial',sans-serif;font-weight:700;font-size:36px" transform="matrix(1,0,0,1,-270,-200)">-X</text></g><g><text x="278.451" y="492.641" style="font-family:'Arial-BoldMT','Arial',sans-serif;font-weight:700;font-size:36px" transform="matrix(1,0,0,1,318,-200)">+X</text></g><g><path d="M257,335L270,361L244,361L257,335Z" style="fill:#aaa;stroke:#000;stroke-width:1px" transform="matrix(-0.999975,-0.00701169,0.00701169,-0.999975,580.462,723.793)"/></g><g transform="matrix(1,0,0,1,68.9088,18)"><rect width="40" height="40" x="237" y="361" style="fill:#aaa;stroke:#000;stroke-width:1px"/></g><g transform="matrix(0.857143,0,0,0.857143,105.701,36.5714)"><rect width="70" height="70" x="221.909" y="221" style="fill:#4a8;stroke:#000;stroke-width:1.17px"/></g><circle cx="325.939" cy="361.091" r="4.909" style="stroke:#000;stroke-width:.1px"/></svg>