<svg xmlns="http://www.w3.org/2000/svg" xmlns:xlink="http://www.w3.org/1999/xlink" width="100%" height="100%" version="1.1" viewBox="0 0 410 140" xml:space="preserve" style="fill-rule:evenodd;clip-rule:evenodd;stroke-linecap:round;stroke-linejoin:round;stroke-miterlimit:1.5"><g transform="matrix(0.975,0,0,0.769231,-29,-0.492041)"><rect width="400" height="13" x="40" y="27" style="fill:#00b4d8;stroke:#000;stroke-width:.23px"/></g><g transform="matrix(0.975,0,0,0.769231,-29,29.508)"><rect width="400" height="13" x="40" y="27" style="fill:#0091e4;stroke:#000;stroke-width:.23px"/></g><g transform="matrix(0.975,0,0,0.769231,-29,59.508)"><rect width="400" height="13" x="40" y="27" style="fill:#00b4d8;stroke:#000;stroke-width:.23px"/></g><g transform="matrix(0.975,0,0,0.769231,-29,89.508)"><rect width="400" height="13" x="40" y="27" style="fill:#08a67a;stroke:#000;stroke-width:.23px"/></g><g><text x="212.844" y="33.448" style="font-family:'Arial-BoldMT','Arial',sans-serif;font-weight:700;font-size:9px" transform="matrix(1,0,0,1,-200.343,-5.94665)">position</text></g><g><text x="212.844" y="33.448" style="font-family:'Arial-BoldMT','Arial',sans-serif;font-weight:700;font-size:9px" transform="matrix(1,0,0,1,-200.343,24.0534)">normal</text></g><g><text x="212.844" y="33.448" style="font-family:'Arial-BoldMT','Arial',sans-serif;font-weight:700;font-size:9px" transform="matrix(1,0,0,1,-200.343,54.0534)">color</text></g><g><text x="212.844" y="33.448" style="font-family:'Arial-BoldMT','Arial',sans-serif;font-weight:700;font-size:9px" transform="matrix(1,0,0,1,-200.343,84.0534)">uv</text></g><g><g transform="matrix(1,0,0,1,-30,-49.7228) matrix(1,0,0,1,20,40)"><rect width="10" height="10" x="20" y="40" style="fill:#00d4ff;stroke:#000;stroke-width:.2px"/></g><g transform="matrix(1,0,0,1,-30,-49.7228) matrix(1,0,0,1,50,40)"><rect width="10" height="10" x="20" y="40" style="fill:#00d4ff;stroke:#000;stroke-width:.2px"/></g><g transform="matrix(1,0,0,1,-30,-49.7228) matrix(1,0,0,1,80,40)"><rect width="10" height="10" x="20" y="40" style="fill:#00d4ff;stroke:#000;stroke-width:.2px"/></g><g transform="matrix(1,0,0,1,-30,-49.7228) matrix(1,0,0,1,110,40)"><rect width="10" height="10" x="20" y="40" style="fill:#00d4ff;stroke:#000;stroke-width:.2px"/></g><g transform="matrix(1,0,0,1,-30,-49.7228) matrix(1,0,0,1,140,40)"><rect width="10" height="10" x="20" y="40" style="fill:#00d4ff;stroke:#000;stroke-width:.2px"/></g><g transform="matrix(1,0,0,1,-30,-49.7228) matrix(1,0,0,1,170,40)"><rect width="10" height="10" x="20" y="40" style="fill:#00d4ff;stroke:#000;stroke-width:.2px"/></g><g transform="matrix(1,0,0,1,-30,-49.7228) matrix(1,0,0,1,200,40)"><rect width="10" height="10" x="20" y="40" style="fill:#00d4ff;stroke:#000;stroke-width:.2px"/></g><g transform="matrix(1,0,0,1,-30,-49.7228) matrix(1,0,0,1,230,40)"><rect width="10" height="10" x="20" y="40" style="fill:#00d4ff;stroke:#000;stroke-width:.2px"/></g><g transform="matrix(1,0,0,1,-30,-49.7228) matrix(1,0,0,1,260,40)"><rect width="10" height="10" x="20" y="40" style="fill:#00d4ff;stroke:#000;stroke-width:.2px"/></g><g transform="matrix(1,0,0,1,-30,-49.7228) matrix(1,0,0,1,290,40)"><rect width="10" height="10" x="20" y="40" style="fill:#00d4ff;stroke:#000;stroke-width:.2px"/></g><g transform="matrix(1,0,0,1,-30,-49.7228) matrix(1,0,0,1,320,40)"><rect width="10" height="10" x="20" y="40" style="fill:#00d4ff;stroke:#000;stroke-width:.2px"/></g><g transform="matrix(1,0,0,1,-30,-49.7228) matrix(1,0,0,1,350,40)"><rect width="10" height="10" x="20" y="40" style="fill:#00d4ff;stroke:#000;stroke-width:.2px"/></g><g transform="matrix(1,0,0,1,-30,-49.7228) matrix(1,0,0,1,380,40)"><rect width="10" height="10" x="20" y="40" style="fill:#00d4ff;stroke:#000;stroke-width:.2px"/></g><g transform="matrix(1,0,0,1,-30,-49.7228) matrix(1,0,0,1,30,40)"><rect width="10" height="10" x="20" y="40" style="fill:#00d4ff;stroke:#000;stroke-width:.2px"/></g><g transform="matrix(1,0,0,1,-30,-49.7228) matrix(1,0,0,1,60,40)"><rect width="10" height="10" x="20" y="40" style="fill:#00d4ff;stroke:#000;stroke-width:.2px"/></g><g transform="matrix(1,0,0,1,-30,-49.7228) matrix(1,0,0,1,90,40)"><rect width="10" height="10" x="20" y="40" style="fill:#00d4ff;stroke:#000;stroke-width:.2px"/></g><g transform="matrix(1,0,0,1,-30,-49.7228) matrix(1,0,0,1,120,40)"><rect width="10" height="10" x="20" y="40" style="fill:#00d4ff;stroke:#000;stroke-width:.2px"/></g><g transform="matrix(1,0,0,1,-30,-49.7228) matrix(1,0,0,1,150,40)"><rect width="10" height="10" x="20" y="40" style="fill:#00d4ff;stroke:#000;stroke-width:.2px"/></g><g transform="matrix(1,0,0,1,-30,-49.7228) matrix(1,0,0,1,180,40)"><rect width="10" height="10" x="20" y="40" style="fill:#00d4ff;stroke:#000;stroke-width:.2px"/></g><g transform="matrix(1,0,0,1,-30,-49.7228) matrix(1,0,0,1,210,40)"><rect width="10" height="10" x="20" y="40" style="fill:#00d4ff;stroke:#000;stroke-width:.2px"/></g><g transform="matrix(1,0,0,1,-30,-49.7228) matrix(1,0,0,1,240,40)"><rect width="10" height="10" x="20" y="40" style="fill:#00d4ff;stroke:#000;stroke-width:.2px"/></g><g transform="matrix(1,0,0,1,-30,-49.7228) matrix(1,0,0,1,270,40)"><rect width="10" height="10" x="20" y="40" style="fill:#00d4ff;stroke:#000;stroke-width:.2px"/></g><g transform="matrix(1,0,0,1,-30,-49.7228) matrix(1,0,0,1,300,40)"><rect width="10" height="10" x="20" y="40" style="fill:#00d4ff;stroke:#000;stroke-width:.2px"/></g><g transform="matrix(1,0,0,1,-30,-49.7228) matrix(1,0,0,1,330,40)"><rect width="10" height="10" x="20" y="40" style="fill:#00d4ff;stroke:#000;stroke-width:.2px"/></g><g transform="matrix(1,0,0,1,-30,-49.7228) matrix(1,0,0,1,360,40)"><rect width="10" height="10" x="20" y="40" style="fill:#00d4ff;stroke:#000;stroke-width:.2px"/></g><g transform="matrix(1,0,0,1,-30,-49.7228) matrix(1,0,0,1,390,40)"><rect width="10" height="10" x="20" y="40" style="fill:#00d4ff;stroke:#000;stroke-width:.2px"/></g><g transform="matrix(1,0,0,1,-30,-49.7228) matrix(1,0,0,1,40,40)"><rect width="10" height="10" x="20" y="40" style="fill:#00d4ff;stroke:#000;stroke-width:.2px"/></g><g transform="matrix(1,0,0,1,-30,-49.7228) matrix(1,0,0,1,70,40)"><rect width="10" height="10" x="20" y="40" style="fill:#00d4ff;stroke:#000;stroke-width:.2px"/></g><g transform="matrix(1,0,0,1,-30,-49.7228) matrix(1,0,0,1,100,40)"><rect width="10" height="10" x="20" y="40" style="fill:#00d4ff;stroke:#000;stroke-width:.2px"/></g><g transform="matrix(1,0,0,1,-30,-49.7228) matrix(1,0,0,1,130,40)"><rect width="10" height="10" x="20" y="40" style="fill:#00d4ff;stroke:#000;stroke-width:.2px"/></g><g transform="matrix(1,0,0,1,-30,-49.7228) matrix(1,0,0,1,160,40)"><rect width="10" height="10" x="20" y="40" style="fill:#00d4ff;stroke:#000;stroke-width:.2px"/></g><g transform="matrix(1,0,0,1,-30,-49.7228) matrix(1,0,0,1,190,40)"><rect width="10" height="10" x="20" y="40" style="fill:#00d4ff;stroke:#000;stroke-width:.2px"/></g><g transform="matrix(1,0,0,1,-30,-49.7228) matrix(1,0,0,1,220,40)"><rect width="10" height="10" x="20" y="40" style="fill:#00d4ff;stroke:#000;stroke-width:.2px"/></g><g transform="matrix(1,0,0,1,-30,-49.7228) matrix(1,0,0,1,250,40)"><rect width="10" height="10" x="20" y="40" style="fill:#00d4ff;stroke:#000;stroke-width:.2px"/></g><g transform="matrix(1,0,0,1,-30,-49.7228) matrix(1,0,0,1,280,40)"><rect width="10" height="10" x="20" y="40" style="fill:#00d4ff;stroke:#000;stroke-width:.2px"/></g><g transform="matrix(1,0,0,1,-30,-49.7228) matrix(1,0,0,1,310,40)"><rect width="10" height="10" x="20" y="40" style="fill:#00d4ff;stroke:#000;stroke-width:.2px"/></g><g transform="matrix(1,0,0,1,-30,-49.7228) matrix(1,0,0,1,340,40)"><rect width="10" height="10" x="20" y="40" style="fill:#00d4ff;stroke:#000;stroke-width:.2px"/></g><g transform="matrix(1,0,0,1,-30,-49.7228) matrix(1,0,0,1,370,40)"><rect width="10" height="10" x="20" y="40" style="fill:#00d4ff;stroke:#000;stroke-width:.2px"/></g><g transform="matrix(1,0,0,1,-30,-49.7228) matrix(1,0,0,1,400,40)"><rect width="10" height="10" x="20" y="40" style="fill:#00d4ff;stroke:#000;stroke-width:.2px"/></g></g><g><g transform="matrix(1,0,0,1,-30,-19.7228) matrix(1,0,0,1,20,40)"><rect width="10" height="10" x="20" y="40" style="fill:#00a2ff;stroke:#000;stroke-width:.2px"/></g><g transform="matrix(1,0,0,1,-30,-19.7228) matrix(1,0,0,1,50,40)"><rect width="10" height="10" x="20" y="40" style="fill:#00a2ff;stroke:#000;stroke-width:.2px"/></g><g transform="matrix(1,0,0,1,-30,-19.7228) matrix(1,0,0,1,80,40)"><rect width="10" height="10" x="20" y="40" style="fill:#00a2ff;stroke:#000;stroke-width:.2px"/></g><g transform="matrix(1,0,0,1,-30,-19.7228) matrix(1,0,0,1,110,40)"><rect width="10" height="10" x="20" y="40" style="fill:#00a2ff;stroke:#000;stroke-width:.2px"/></g><g transform="matrix(1,0,0,1,-30,-19.7228) matrix(1,0,0,1,140,40)"><rect width="10" height="10" x="20" y="40" style="fill:#00a2ff;stroke:#000;stroke-width:.2px"/></g><g transform="matrix(1,0,0,1,-30,-19.7228) matrix(1,0,0,1,170,40)"><rect width="10" height="10" x="20" y="40" style="fill:#00a2ff;stroke:#000;stroke-width:.2px"/></g><g transform="matrix(1,0,0,1,-30,-19.7228) matrix(1,0,0,1,200,40)"><rect width="10" height="10" x="20" y="40" style="fill:#00a2ff;stroke:#000;stroke-width:.2px"/></g><g transform="matrix(1,0,0,1,-30,-19.7228) matrix(1,0,0,1,230,40)"><rect width="10" height="10" x="20" y="40" style="fill:#00a2ff;stroke:#000;stroke-width:.2px"/></g><g transform="matrix(1,0,0,1,-30,-19.7228) matrix(1,0,0,1,260,40)"><rect width="10" height="10" x="20" y="40" style="fill:#00a2ff;stroke:#000;stroke-width:.2px"/></g><g transform="matrix(1,0,0,1,-30,-19.7228) matrix(1,0,0,1,290,40)"><rect width="10" height="10" x="20" y="40" style="fill:#00a2ff;stroke:#000;stroke-width:.2px"/></g><g transform="matrix(1,0,0,1,-30,-19.7228) matrix(1,0,0,1,320,40)"><rect width="10" height="10" x="20" y="40" style="fill:#00a2ff;stroke:#000;stroke-width:.2px"/></g><g transform="matrix(1,0,0,1,-30,-19.7228) matrix(1,0,0,1,350,40)"><rect width="10" height="10" x="20" y="40" style="fill:#00a2ff;stroke:#000;stroke-width:.2px"/></g><g transform="matrix(1,0,0,1,-30,-19.7228) matrix(1,0,0,1,380,40)"><rect width="10" height="10" x="20" y="40" style="fill:#00a2ff;stroke:#000;stroke-width:.2px"/></g><g transform="matrix(1,0,0,1,-30,-19.7228) matrix(1,0,0,1,30,40)"><rect width="10" height="10" x="20" y="40" style="fill:#00a2ff;stroke:#000;stroke-width:.2px"/></g><g transform="matrix(1,0,0,1,-30,-19.7228) matrix(1,0,0,1,60,40)"><rect width="10" height="10" x="20" y="40" style="fill:#00a2ff;stroke:#000;stroke-width:.2px"/></g><g transform="matrix(1,0,0,1,-30,-19.7228) matrix(1,0,0,1,90,40)"><rect width="10" height="10" x="20" y="40" style="fill:#00a2ff;stroke:#000;stroke-width:.2px"/></g><g transform="matrix(1,0,0,1,-30,-19.7228) matrix(1,0,0,1,120,40)"><rect width="10" height="10" x="20" y="40" style="fill:#00a2ff;stroke:#000;stroke-width:.2px"/></g><g transform="matrix(1,0,0,1,-30,-19.7228) matrix(1,0,0,1,150,40)"><rect width="10" height="10" x="20" y="40" style="fill:#00a2ff;stroke:#000;stroke-width:.2px"/></g><g transform="matrix(1,0,0,1,-30,-19.7228) matrix(1,0,0,1,180,40)"><rect width="10" height="10" x="20" y="40" style="fill:#00a2ff;stroke:#000;stroke-width:.2px"/></g><g transform="matrix(1,0,0,1,-30,-19.7228) matrix(1,0,0,1,210,40)"><rect width="10" height="10" x="20" y="40" style="fill:#00a2ff;stroke:#000;stroke-width:.2px"/></g><g transform="matrix(1,0,0,1,-30,-19.7228) matrix(1,0,0,1,240,40)"><rect width="10" height="10" x="20" y="40" style="fill:#00a2ff;stroke:#000;stroke-width:.2px"/></g><g transform="matrix(1,0,0,1,-30,-19.7228) matrix(1,0,0,1,270,40)"><rect width="10" height="10" x="20" y="40" style="fill:#00a2ff;stroke:#000;stroke-width:.2px"/></g><g transform="matrix(1,0,0,1,-30,-19.7228) matrix(1,0,0,1,300,40)"><rect width="10" height="10" x="20" y="40" style="fill:#00a2ff;stroke:#000;stroke-width:.2px"/></g><g transform="matrix(1,0,0,1,-30,-19.7228) matrix(1,0,0,1,330,40)"><rect width="10" height="10" x="20" y="40" style="fill:#00a2ff;stroke:#000;stroke-width:.2px"/></g><g transform="matrix(1,0,0,1,-30,-19.7228) matrix(1,0,0,1,360,40)"><rect width="10" height="10" x="20" y="40" style="fill:#00a2ff;stroke:#000;stroke-width:.2px"/></g><g transform="matrix(1,0,0,1,-30,-19.7228) matrix(1,0,0,1,390,40)"><rect width="10" height="10" x="20" y="40" style="fill:#00a2ff;stroke:#000;stroke-width:.2px"/></g><g transform="matrix(1,0,0,1,-30,-19.7228) matrix(1,0,0,1,40,40)"><rect width="10" height="10" x="20" y="40" style="fill:#00a2ff;stroke:#000;stroke-width:.2px"/></g><g transform="matrix(1,0,0,1,-30,-19.7228) matrix(1,0,0,1,70,40)"><rect width="10" height="10" x="20" y="40" style="fill:#00a2ff;stroke:#000;stroke-width:.2px"/></g><g transform="matrix(1,0,0,1,-30,-19.7228) matrix(1,0,0,1,100,40)"><rect width="10" height="10" x="20" y="40" style="fill:#00a2ff;stroke:#000;stroke-width:.2px"/></g><g transform="matrix(1,0,0,1,-30,-19.7228) matrix(1,0,0,1,130,40)"><rect width="10" height="10" x="20" y="40" style="fill:#00a2ff;stroke:#000;stroke-width:.2px"/></g><g transform="matrix(1,0,0,1,-30,-19.7228) matrix(1,0,0,1,160,40)"><rect width="10" height="10" x="20" y="40" style="fill:#00a2ff;stroke:#000;stroke-width:.2px"/></g><g transform="matrix(1,0,0,1,-30,-19.7228) matrix(1,0,0,1,190,40)"><rect width="10" height="10" x="20" y="40" style="fill:#00a2ff;stroke:#000;stroke-width:.2px"/></g><g transform="matrix(1,0,0,1,-30,-19.7228) matrix(1,0,0,1,220,40)"><rect width="10" height="10" x="20" y="40" style="fill:#00a2ff;stroke:#000;stroke-width:.2px"/></g><g transform="matrix(1,0,0,1,-30,-19.7228) matrix(1,0,0,1,250,40)"><rect width="10" height="10" x="20" y="40" style="fill:#00a2ff;stroke:#000;stroke-width:.2px"/></g><g transform="matrix(1,0,0,1,-30,-19.7228) matrix(1,0,0,1,280,40)"><rect width="10" height="10" x="20" y="40" style="fill:#00a2ff;stroke:#000;stroke-width:.2px"/></g><g transform="matrix(1,0,0,1,-30,-19.7228) matrix(1,0,0,1,310,40)"><rect width="10" height="10" x="20" y="40" style="fill:#00a2ff;stroke:#000;stroke-width:.2px"/></g><g transform="matrix(1,0,0,1,-30,-19.7228) matrix(1,0,0,1,340,40)"><rect width="10" height="10" x="20" y="40" style="fill:#00a2ff;stroke:#000;stroke-width:.2px"/></g><g transform="matrix(1,0,0,1,-30,-19.7228) matrix(1,0,0,1,370,40)"><rect width="10" height="10" x="20" y="40" style="fill:#00a2ff;stroke:#000;stroke-width:.2px"/></g><g transform="matrix(1,0,0,1,-30,-19.7228) matrix(1,0,0,1,400,40)"><rect width="10" height="10" x="20" y="40" style="fill:#00a2ff;stroke:#000;stroke-width:.2px"/></g></g><g><g transform="matrix(1,0,0,1,-30,10.2772) matrix(1,0,0,1,20,40)"><rect width="10" height="10" x="20" y="40" style="fill:#00d4ff;stroke:#000;stroke-width:.2px"/></g><g transform="matrix(1,0,0,1,-30,10.2772) matrix(1,0,0,1,50,40)"><rect width="10" height="10" x="20" y="40" style="fill:#00d4ff;stroke:#000;stroke-width:.2px"/></g><g transform="matrix(1,0,0,1,-30,10.2772) matrix(1,0,0,1,80,40)"><rect width="10" height="10" x="20" y="40" style="fill:#00d4ff;stroke:#000;stroke-width:.2px"/></g><g transform="matrix(1,0,0,1,-30,10.2772) matrix(1,0,0,1,110,40)"><rect width="10" height="10" x="20" y="40" style="fill:#00d4ff;stroke:#000;stroke-width:.2px"/></g><g transform="matrix(1,0,0,1,-30,10.2772) matrix(1,0,0,1,140,40)"><rect width="10" height="10" x="20" y="40" style="fill:#00d4ff;stroke:#000;stroke-width:.2px"/></g><g transform="matrix(1,0,0,1,-30,10.2772) matrix(1,0,0,1,170,40)"><rect width="10" height="10" x="20" y="40" style="fill:#00d4ff;stroke:#000;stroke-width:.2px"/></g><g transform="matrix(1,0,0,1,-30,10.2772) matrix(1,0,0,1,200,40)"><rect width="10" height="10" x="20" y="40" style="fill:#00d4ff;stroke:#000;stroke-width:.2px"/></g><g transform="matrix(1,0,0,1,-30,10.2772) matrix(1,0,0,1,230,40)"><rect width="10" height="10" x="20" y="40" style="fill:#00d4ff;stroke:#000;stroke-width:.2px"/></g><g transform="matrix(1,0,0,1,-30,10.2772) matrix(1,0,0,1,260,40)"><rect width="10" height="10" x="20" y="40" style="fill:#00d4ff;stroke:#000;stroke-width:.2px"/></g><g transform="matrix(1,0,0,1,-30,10.2772) matrix(1,0,0,1,290,40)"><rect width="10" height="10" x="20" y="40" style="fill:#00d4ff;stroke:#000;stroke-width:.2px"/></g><g transform="matrix(1,0,0,1,-30,10.2772) matrix(1,0,0,1,320,40)"><rect width="10" height="10" x="20" y="40" style="fill:#00d4ff;stroke:#000;stroke-width:.2px"/></g><g transform="matrix(1,0,0,1,-30,10.2772) matrix(1,0,0,1,350,40)"><rect width="10" height="10" x="20" y="40" style="fill:#00d4ff;stroke:#000;stroke-width:.2px"/></g><g transform="matrix(1,0,0,1,-30,10.2772) matrix(1,0,0,1,380,40)"><rect width="10" height="10" x="20" y="40" style="fill:#00d4ff;stroke:#000;stroke-width:.2px"/></g><g transform="matrix(1,0,0,1,-30,10.2772) matrix(1,0,0,1,30,40)"><rect width="10" height="10" x="20" y="40" style="fill:#00d4ff;stroke:#000;stroke-width:.2px"/></g><g transform="matrix(1,0,0,1,-30,10.2772) matrix(1,0,0,1,60,40)"><rect width="10" height="10" x="20" y="40" style="fill:#00d4ff;stroke:#000;stroke-width:.2px"/></g><g transform="matrix(1,0,0,1,-30,10.2772) matrix(1,0,0,1,90,40)"><rect width="10" height="10" x="20" y="40" style="fill:#00d4ff;stroke:#000;stroke-width:.2px"/></g><g transform="matrix(1,0,0,1,-30,10.2772) matrix(1,0,0,1,120,40)"><rect width="10" height="10" x="20" y="40" style="fill:#00d4ff;stroke:#000;stroke-width:.2px"/></g><g transform="matrix(1,0,0,1,-30,10.2772) matrix(1,0,0,1,150,40)"><rect width="10" height="10" x="20" y="40" style="fill:#00d4ff;stroke:#000;stroke-width:.2px"/></g><g transform="matrix(1,0,0,1,-30,10.2772) matrix(1,0,0,1,180,40)"><rect width="10" height="10" x="20" y="40" style="fill:#00d4ff;stroke:#000;stroke-width:.2px"/></g><g transform="matrix(1,0,0,1,-30,10.2772) matrix(1,0,0,1,210,40)"><rect width="10" height="10" x="20" y="40" style="fill:#00d4ff;stroke:#000;stroke-width:.2px"/></g><g transform="matrix(1,0,0,1,-30,10.2772) matrix(1,0,0,1,240,40)"><rect width="10" height="10" x="20" y="40" style="fill:#00d4ff;stroke:#000;stroke-width:.2px"/></g><g transform="matrix(1,0,0,1,-30,10.2772) matrix(1,0,0,1,270,40)"><rect width="10" height="10" x="20" y="40" style="fill:#00d4ff;stroke:#000;stroke-width:.2px"/></g><g transform="matrix(1,0,0,1,-30,10.2772) matrix(1,0,0,1,300,40)"><rect width="10" height="10" x="20" y="40" style="fill:#00d4ff;stroke:#000;stroke-width:.2px"/></g><g transform="matrix(1,0,0,1,-30,10.2772) matrix(1,0,0,1,330,40)"><rect width="10" height="10" x="20" y="40" style="fill:#00d4ff;stroke:#000;stroke-width:.2px"/></g><g transform="matrix(1,0,0,1,-30,10.2772) matrix(1,0,0,1,360,40)"><rect width="10" height="10" x="20" y="40" style="fill:#00d4ff;stroke:#000;stroke-width:.2px"/></g><g transform="matrix(1,0,0,1,-30,10.2772) matrix(1,0,0,1,390,40)"><rect width="10" height="10" x="20" y="40" style="fill:#00d4ff;stroke:#000;stroke-width:.2px"/></g><g transform="matrix(1,0,0,1,-30,10.2772) matrix(1,0,0,1,40,40)"><rect width="10" height="10" x="20" y="40" style="fill:#00d4ff;stroke:#000;stroke-width:.2px"/></g><g transform="matrix(1,0,0,1,-30,10.2772) matrix(1,0,0,1,70,40)"><rect width="10" height="10" x="20" y="40" style="fill:#00d4ff;stroke:#000;stroke-width:.2px"/></g><g transform="matrix(1,0,0,1,-30,10.2772) matrix(1,0,0,1,100,40)"><rect width="10" height="10" x="20" y="40" style="fill:#00d4ff;stroke:#000;stroke-width:.2px"/></g><g transform="matrix(1,0,0,1,-30,10.2772) matrix(1,0,0,1,130,40)"><rect width="10" height="10" x="20" y="40" style="fill:#00d4ff;stroke:#000;stroke-width:.2px"/></g><g transform="matrix(1,0,0,1,-30,10.2772) matrix(1,0,0,1,160,40)"><rect width="10" height="10" x="20" y="40" style="fill:#00d4ff;stroke:#000;stroke-width:.2px"/></g><g transform="matrix(1,0,0,1,-30,10.2772) matrix(1,0,0,1,190,40)"><rect width="10" height="10" x="20" y="40" style="fill:#00d4ff;stroke:#000;stroke-width:.2px"/></g><g transform="matrix(1,0,0,1,-30,10.2772) matrix(1,0,0,1,220,40)"><rect width="10" height="10" x="20" y="40" style="fill:#00d4ff;stroke:#000;stroke-width:.2px"/></g><g transform="matrix(1,0,0,1,-30,10.2772) matrix(1,0,0,1,250,40)"><rect width="10" height="10" x="20" y="40" style="fill:#00d4ff;stroke:#000;stroke-width:.2px"/></g><g transform="matrix(1,0,0,1,-30,10.2772) matrix(1,0,0,1,280,40)"><rect width="10" height="10" x="20" y="40" style="fill:#00d4ff;stroke:#000;stroke-width:.2px"/></g><g transform="matrix(1,0,0,1,-30,10.2772) matrix(1,0,0,1,310,40)"><rect width="10" height="10" x="20" y="40" style="fill:#00d4ff;stroke:#000;stroke-width:.2px"/></g><g transform="matrix(1,0,0,1,-30,10.2772) matrix(1,0,0,1,340,40)"><rect width="10" height="10" x="20" y="40" style="fill:#00d4ff;stroke:#000;stroke-width:.2px"/></g><g transform="matrix(1,0,0,1,-30,10.2772) matrix(1,0,0,1,370,40)"><rect width="10" height="10" x="20" y="40" style="fill:#00d4ff;stroke:#000;stroke-width:.2px"/></g><g transform="matrix(1,0,0,1,-30,10.2772) matrix(1,0,0,1,400,40)"><rect width="10" height="10" x="20" y="40" style="fill:#00d4ff;stroke:#000;stroke-width:.2px"/></g></g><g><rect width="15" height="10" x="10" y="120.277" style="fill:#00d89c;stroke:#000;stroke-width:.2px"/><g transform="matrix(1,0,0,1,30,0)"><rect width="15" height="10" x="10" y="120.277" style="fill:#00d89c;stroke:#000;stroke-width:.2px"/></g><g transform="matrix(1,0,0,1,60,0)"><rect width="15" height="10" x="10" y="120.277" style="fill:#00d89c;stroke:#000;stroke-width:.2px"/></g><g transform="matrix(1,0,0,1,90,0)"><rect width="15" height="10" x="10" y="120.277" style="fill:#00d89c;stroke:#000;stroke-width:.2px"/></g><g transform="matrix(1,0,0,1,120,0)"><rect width="15" height="10" x="10" y="120.277" style="fill:#00d89c;stroke:#000;stroke-width:.2px"/></g><g transform="matrix(1,0,0,1,150,0)"><rect width="15" height="10" x="10" y="120.277" style="fill:#00d89c;stroke:#000;stroke-width:.2px"/></g><g transform="matrix(1,0,0,1,180,0)"><rect width="15" height="10" x="10" y="120.277" style="fill:#00d89c;stroke:#000;stroke-width:.2px"/></g><g transform="matrix(1,0,0,1,210,0)"><rect width="15" height="10" x="10" y="120.277" style="fill:#00d89c;stroke:#000;stroke-width:.2px"/></g><g transform="matrix(1,0,0,1,240,0)"><rect width="15" height="10" x="10" y="120.277" style="fill:#00d89c;stroke:#000;stroke-width:.2px"/></g><g transform="matrix(1,0,0,1,270,0)"><rect width="15" height="10" x="10" y="120.277" style="fill:#00d89c;stroke:#000;stroke-width:.2px"/></g><g transform="matrix(1,0,0,1,300,0)"><rect width="15" height="10" x="10" y="120.277" style="fill:#00d89c;stroke:#000;stroke-width:.2px"/></g><g transform="matrix(1,0,0,1,330,0)"><rect width="15" height="10" x="10" y="120.277" style="fill:#00d89c;stroke:#000;stroke-width:.2px"/></g><g transform="matrix(1,0,0,1,360,0)"><rect width="15" height="10" x="10" y="120.277" style="fill:#00d89c;stroke:#000;stroke-width:.2px"/></g><rect width="15" height="10" x="25" y="120.277" style="fill:#00d89c;stroke:#000;stroke-width:.2px"/><g transform="matrix(1,0,0,1,30,0)"><rect width="15" height="10" x="25" y="120.277" style="fill:#00d89c;stroke:#000;stroke-width:.2px"/></g><g transform="matrix(1,0,0,1,60,0)"><rect width="15" height="10" x="25" y="120.277" style="fill:#00d89c;stroke:#000;stroke-width:.2px"/></g><g transform="matrix(1,0,0,1,90,0)"><rect width="15" height="10" x="25" y="120.277" style="fill:#00d89c;stroke:#000;stroke-width:.2px"/></g><g transform="matrix(1,0,0,1,120,0)"><rect width="15" height="10" x="25" y="120.277" style="fill:#00d89c;stroke:#000;stroke-width:.2px"/></g><g transform="matrix(1,0,0,1,150,0)"><rect width="15" height="10" x="25" y="120.277" style="fill:#00d89c;stroke:#000;stroke-width:.2px"/></g><g transform="matrix(1,0,0,1,180,0)"><rect width="15" height="10" x="25" y="120.277" style="fill:#00d89c;stroke:#000;stroke-width:.2px"/></g><g transform="matrix(1,0,0,1,210,0)"><rect width="15" height="10" x="25" y="120.277" style="fill:#00d89c;stroke:#000;stroke-width:.2px"/></g><g transform="matrix(1,0,0,1,240,0)"><rect width="15" height="10" x="25" y="120.277" style="fill:#00d89c;stroke:#000;stroke-width:.2px"/></g><g transform="matrix(1,0,0,1,270,0)"><rect width="15" height="10" x="25" y="120.277" style="fill:#00d89c;stroke:#000;stroke-width:.2px"/></g><g transform="matrix(1,0,0,1,300,0)"><rect width="15" height="10" x="25" y="120.277" style="fill:#00d89c;stroke:#000;stroke-width:.2px"/></g><g transform="matrix(1,0,0,1,330,0)"><rect width="15" height="10" x="25" y="120.277" style="fill:#00d89c;stroke:#000;stroke-width:.2px"/></g><g transform="matrix(1,0,0,1,360,0)"><rect width="15" height="10" x="25" y="120.277" style="fill:#00d89c;stroke:#000;stroke-width:.2px"/></g></g><g><g><text x="24.509" y="44.619" style="font-family:'ArialMT','Arial',sans-serif;font-size:10px" transform="matrix(1,0,0,1,-30,-49.7228) matrix(1,0,0,1,28.0614,42.3808)">y</text></g><g><text x="24.509" y="44.619" style="font-family:'ArialMT','Arial',sans-serif;font-size:10px" transform="matrix(1,0,0,1,-30,-49.7228) matrix(1,0,0,1,58.0614,42.3808)">y</text></g><g><text x="24.509" y="44.619" style="font-family:'ArialMT','Arial',sans-serif;font-size:10px" transform="matrix(1,0,0,1,-30,-49.7228) matrix(1,0,0,1,88.0614,42.3808)">y</text></g><g><text x="24.509" y="44.619" style="font-family:'ArialMT','Arial',sans-serif;font-size:10px" transform="matrix(1,0,0,1,-30,-49.7228) matrix(1,0,0,1,118.061,42.3808)">y</text></g><g><text x="24.509" y="44.619" style="font-family:'ArialMT','Arial',sans-serif;font-size:10px" transform="matrix(1,0,0,1,-30,-49.7228) matrix(1,0,0,1,148.061,42.3808)">y</text></g><g><text x="24.509" y="44.619" style="font-family:'ArialMT','Arial',sans-serif;font-size:10px" transform="matrix(1,0,0,1,-30,-49.7228) matrix(1,0,0,1,178.061,42.3808)">y</text></g><g><text x="24.509" y="44.619" style="font-family:'ArialMT','Arial',sans-serif;font-size:10px" transform="matrix(1,0,0,1,-30,-49.7228) matrix(1,0,0,1,208.061,42.3808)">y</text></g><g><text x="24.509" y="44.619" style="font-family:'ArialMT','Arial',sans-serif;font-size:10px" transform="matrix(1,0,0,1,-30,-49.7228) matrix(1,0,0,1,238.061,42.3808)">y</text></g><g><text x="24.509" y="44.619" style="font-family:'ArialMT','Arial',sans-serif;font-size:10px" transform="matrix(1,0,0,1,-30,-49.7228) matrix(1,0,0,1,268.061,42.3808)">y</text></g><g><text x="24.509" y="44.619" style="font-family:'ArialMT','Arial',sans-serif;font-size:10px" transform="matrix(1,0,0,1,-30,-49.7228) matrix(1,0,0,1,298.061,42.3808)">y</text></g><g><text x="24.509" y="44.619" style="font-family:'ArialMT','Arial',sans-serif;font-size:10px" transform="matrix(1,0,0,1,-30,-49.7228) matrix(1,0,0,1,328.061,42.3808)">y</text></g><g><text x="24.509" y="44.619" style="font-family:'ArialMT','Arial',sans-serif;font-size:10px" transform="matrix(1,0,0,1,-30,-49.7228) matrix(1,0,0,1,358.061,42.3808)">y</text></g><g><text x="24.509" y="44.619" style="font-family:'ArialMT','Arial',sans-serif;font-size:10px" transform="matrix(1,0,0,1,-30,-49.7228) matrix(1,0,0,1,388.061,42.3808)">y</text></g><g><text x="24.509" y="44.619" style="font-family:'ArialMT','Arial',sans-serif;font-size:10px" transform="matrix(1,0,0,1,-30,-49.7228) matrix(1,0,0,1,38.0614,42.3808)">z</text></g><g><text x="24.509" y="44.619" style="font-family:'ArialMT','Arial',sans-serif;font-size:10px" transform="matrix(1,0,0,1,-30,-49.7228) matrix(1,0,0,1,68.0614,42.3808)">z</text></g><g><text x="24.509" y="44.619" style="font-family:'ArialMT','Arial',sans-serif;font-size:10px" transform="matrix(1,0,0,1,-30,-49.7228) matrix(1,0,0,1,98.0614,42.3808)">z</text></g><g><text x="24.509" y="44.619" style="font-family:'ArialMT','Arial',sans-serif;font-size:10px" transform="matrix(1,0,0,1,-30,-49.7228) matrix(1,0,0,1,128.061,42.3808)">z</text></g><g><text x="24.509" y="44.619" style="font-family:'ArialMT','Arial',sans-serif;font-size:10px" transform="matrix(1,0,0,1,-30,-49.7228) matrix(1,0,0,1,158.061,42.3808)">z</text></g><g><text x="24.509" y="44.619" style="font-family:'ArialMT','Arial',sans-serif;font-size:10px" transform="matrix(1,0,0,1,-30,-49.7228) matrix(1,0,0,1,188.061,42.3808)">z</text></g><g><text x="24.509" y="44.619" style="font-family:'ArialMT','Arial',sans-serif;font-size:10px" transform="matrix(1,0,0,1,-30,-49.7228) matrix(1,0,0,1,218.061,42.3808)">z</text></g><g><text x="24.509" y="44.619" style="font-family:'ArialMT','Arial',sans-serif;font-size:10px" transform="matrix(1,0,0,1,-30,-49.7228) matrix(1,0,0,1,248.061,42.3808)">z</text></g><g><text x="24.509" y="44.619" style="font-family:'ArialMT','Arial',sans-serif;font-size:10px" transform="matrix(1,0,0,1,-30,-49.7228) matrix(1,0,0,1,278.061,42.3808)">z</text></g><g><text x="24.509" y="44.619" style="font-family:'ArialMT','Arial',sans-serif;font-size:10px" transform="matrix(1,0,0,1,-30,-49.7228) matrix(1,0,0,1,308.061,42.3808)">z</text></g><g><text x="24.509" y="44.619" style="font-family:'ArialMT','Arial',sans-serif;font-size:10px" transform="matrix(1,0,0,1,-30,-49.7228) matrix(1,0,0,1,338.061,42.3808)">z</text></g><g><text x="24.509" y="44.619" style="font-family:'ArialMT','Arial',sans-serif;font-size:10px" transform="matrix(1,0,0,1,-30,-49.7228) matrix(1,0,0,1,368.061,42.3808)">z</text></g><g><text x="24.509" y="44.619" style="font-family:'ArialMT','Arial',sans-serif;font-size:10px" transform="matrix(1,0,0,1,-30,-49.7228) matrix(1,0,0,1,398.061,42.3808)">z</text></g><g><text x="24.509" y="44.619" style="font-family:'ArialMT','Arial',sans-serif;font-size:10px" transform="matrix(1,0,0,1,-30,-49.7228) matrix(1,0,0,1,18.0614,42.3808)">x</text></g><g><text x="24.509" y="44.619" style="font-family:'ArialMT','Arial',sans-serif;font-size:10px" transform="matrix(1,0,0,1,-30,-49.7228) matrix(1,0,0,1,48.0614,42.3808)">x</text></g><g><text x="24.509" y="44.619" style="font-family:'ArialMT','Arial',sans-serif;font-size:10px" transform="matrix(1,0,0,1,-30,-49.7228) matrix(1,0,0,1,78.0614,42.3808)">x</text></g><g><text x="24.509" y="44.619" style="font-family:'ArialMT','Arial',sans-serif;font-size:10px" transform="matrix(1,0,0,1,-30,-49.7228) matrix(1,0,0,1,108.061,42.3808)">x</text></g><g><text x="24.509" y="44.619" style="font-family:'ArialMT','Arial',sans-serif;font-size:10px" transform="matrix(1,0,0,1,-30,-49.7228) matrix(1,0,0,1,138.061,42.3808)">x</text></g><g><text x="24.509" y="44.619" style="font-family:'ArialMT','Arial',sans-serif;font-size:10px" transform="matrix(1,0,0,1,-30,-49.7228) matrix(1,0,0,1,168.061,42.3808)">x</text></g><g><text x="24.509" y="44.619" style="font-family:'ArialMT','Arial',sans-serif;font-size:10px" transform="matrix(1,0,0,1,-30,-49.7228) matrix(1,0,0,1,198.061,42.3808)">x</text></g><g><text x="24.509" y="44.619" style="font-family:'ArialMT','Arial',sans-serif;font-size:10px" transform="matrix(1,0,0,1,-30,-49.7228) matrix(1,0,0,1,228.061,42.3808)">x</text></g><g><text x="24.509" y="44.619" style="font-family:'ArialMT','Arial',sans-serif;font-size:10px" transform="matrix(1,0,0,1,-30,-49.7228) matrix(1,0,0,1,258.061,42.3808)">x</text></g><g><text x="24.509" y="44.619" style="font-family:'ArialMT','Arial',sans-serif;font-size:10px" transform="matrix(1,0,0,1,-30,-49.7228) matrix(1,0,0,1,288.061,42.3808)">x</text></g><g><text x="24.509" y="44.619" style="font-family:'ArialMT','Arial',sans-serif;font-size:10px" transform="matrix(1,0,0,1,-30,-49.7228) matrix(1,0,0,1,318.061,42.3808)">x</text></g><g><text x="24.509" y="44.619" style="font-family:'ArialMT','Arial',sans-serif;font-size:10px" transform="matrix(1,0,0,1,-30,-49.7228) matrix(1,0,0,1,348.061,42.3808)">x</text></g><g><text x="24.509" y="44.619" style="font-family:'ArialMT','Arial',sans-serif;font-size:10px" transform="matrix(1,0,0,1,-30,-49.7228) matrix(1,0,0,1,378.061,42.3808)">x</text></g></g><g><g><text x="24.509" y="44.619" style="font-family:'ArialMT','Arial',sans-serif;font-size:10px" transform="matrix(1,0,0,1,-30,-19.7228) matrix(1,0,0,1,28.0614,42.3808)">y</text></g><g><text x="24.509" y="44.619" style="font-family:'ArialMT','Arial',sans-serif;font-size:10px" transform="matrix(1,0,0,1,-30,-19.7228) matrix(1,0,0,1,58.0614,42.3808)">y</text></g><g><text x="24.509" y="44.619" style="font-family:'ArialMT','Arial',sans-serif;font-size:10px" transform="matrix(1,0,0,1,-30,-19.7228) matrix(1,0,0,1,88.0614,42.3808)">y</text></g><g><text x="24.509" y="44.619" style="font-family:'ArialMT','Arial',sans-serif;font-size:10px" transform="matrix(1,0,0,1,-30,-19.7228) matrix(1,0,0,1,118.061,42.3808)">y</text></g><g><text x="24.509" y="44.619" style="font-family:'ArialMT','Arial',sans-serif;font-size:10px" transform="matrix(1,0,0,1,-30,-19.7228) matrix(1,0,0,1,148.061,42.3808)">y</text></g><g><text x="24.509" y="44.619" style="font-family:'ArialMT','Arial',sans-serif;font-size:10px" transform="matrix(1,0,0,1,-30,-19.7228) matrix(1,0,0,1,178.061,42.3808)">y</text></g><g><text x="24.509" y="44.619" style="font-family:'ArialMT','Arial',sans-serif;font-size:10px" transform="matrix(1,0,0,1,-30,-19.7228) matrix(1,0,0,1,208.061,42.3808)">y</text></g><g><text x="24.509" y="44.619" style="font-family:'ArialMT','Arial',sans-serif;font-size:10px" transform="matrix(1,0,0,1,-30,-19.7228) matrix(1,0,0,1,238.061,42.3808)">y</text></g><g><text x="24.509" y="44.619" style="font-family:'ArialMT','Arial',sans-serif;font-size:10px" transform="matrix(1,0,0,1,-30,-19.7228) matrix(1,0,0,1,268.061,42.3808)">y</text></g><g><text x="24.509" y="44.619" style="font-family:'ArialMT','Arial',sans-serif;font-size:10px" transform="matrix(1,0,0,1,-30,-19.7228) matrix(1,0,0,1,298.061,42.3808)">y</text></g><g><text x="24.509" y="44.619" style="font-family:'ArialMT','Arial',sans-serif;font-size:10px" transform="matrix(1,0,0,1,-30,-19.7228) matrix(1,0,0,1,328.061,42.3808)">y</text></g><g><text x="24.509" y="44.619" style="font-family:'ArialMT','Arial',sans-serif;font-size:10px" transform="matrix(1,0,0,1,-30,-19.7228) matrix(1,0,0,1,358.061,42.3808)">y</text></g><g><text x="24.509" y="44.619" style="font-family:'ArialMT','Arial',sans-serif;font-size:10px" transform="matrix(1,0,0,1,-30,-19.7228) matrix(1,0,0,1,388.061,42.3808)">y</text></g><g><text x="24.509" y="44.619" style="font-family:'ArialMT','Arial',sans-serif;font-size:10px" transform="matrix(1,0,0,1,-30,-19.7228) matrix(1,0,0,1,38.0614,42.3808)">z</text></g><g><text x="24.509" y="44.619" style="font-family:'ArialMT','Arial',sans-serif;font-size:10px" transform="matrix(1,0,0,1,-30,-19.7228) matrix(1,0,0,1,68.0614,42.3808)">z</text></g><g><text x="24.509" y="44.619" style="font-family:'ArialMT','Arial',sans-serif;font-size:10px" transform="matrix(1,0,0,1,-30,-19.7228) matrix(1,0,0,1,98.0614,42.3808)">z</text></g><g><text x="24.509" y="44.619" style="font-family:'ArialMT','Arial',sans-serif;font-size:10px" transform="matrix(1,0,0,1,-30,-19.7228) matrix(1,0,0,1,128.061,42.3808)">z</text></g><g><text x="24.509" y="44.619" style="font-family:'ArialMT','Arial',sans-serif;font-size:10px" transform="matrix(1,0,0,1,-30,-19.7228) matrix(1,0,0,1,158.061,42.3808)">z</text></g><g><text x="24.509" y="44.619" style="font-family:'ArialMT','Arial',sans-serif;font-size:10px" transform="matrix(1,0,0,1,-30,-19.7228) matrix(1,0,0,1,188.061,42.3808)">z</text></g><g><text x="24.509" y="44.619" style="font-family:'ArialMT','Arial',sans-serif;font-size:10px" transform="matrix(1,0,0,1,-30,-19.7228) matrix(1,0,0,1,218.061,42.3808)">z</text></g><g><text x="24.509" y="44.619" style="font-family:'ArialMT','Arial',sans-serif;font-size:10px" transform="matrix(1,0,0,1,-30,-19.7228) matrix(1,0,0,1,248.061,42.3808)">z</text></g><g><text x="24.509" y="44.619" style="font-family:'ArialMT','Arial',sans-serif;font-size:10px" transform="matrix(1,0,0,1,-30,-19.7228) matrix(1,0,0,1,278.061,42.3808)">z</text></g><g><text x="24.509" y="44.619" style="font-family:'ArialMT','Arial',sans-serif;font-size:10px" transform="matrix(1,0,0,1,-30,-19.7228) matrix(1,0,0,1,308.061,42.3808)">z</text></g><g><text x="24.509" y="44.619" style="font-family:'ArialMT','Arial',sans-serif;font-size:10px" transform="matrix(1,0,0,1,-30,-19.7228) matrix(1,0,0,1,338.061,42.3808)">z</text></g><g><text x="24.509" y="44.619" style="font-family:'ArialMT','Arial',sans-serif;font-size:10px" transform="matrix(1,0,0,1,-30,-19.7228) matrix(1,0,0,1,368.061,42.3808)">z</text></g><g><text x="24.509" y="44.619" style="font-family:'ArialMT','Arial',sans-serif;font-size:10px" transform="matrix(1,0,0,1,-30,-19.7228) matrix(1,0,0,1,398.061,42.3808)">z</text></g><g><text x="24.509" y="44.619" style="font-family:'ArialMT','Arial',sans-serif;font-size:10px" transform="matrix(1,0,0,1,-30,-19.7228) matrix(1,0,0,1,18.0614,42.3808)">x</text></g><g><text x="24.509" y="44.619" style="font-family:'ArialMT','Arial',sans-serif;font-size:10px" transform="matrix(1,0,0,1,-30,-19.7228) matrix(1,0,0,1,48.0614,42.3808)">x</text></g><g><text x="24.509" y="44.619" style="font-family:'ArialMT','Arial',sans-serif;font-size:10px" transform="matrix(1,0,0,1,-30,-19.7228) matrix(1,0,0,1,78.0614,42.3808)">x</text></g><g><text x="24.509" y="44.619" style="font-family:'ArialMT','Arial',sans-serif;font-size:10px" transform="matrix(1,0,0,1,-30,-19.7228) matrix(1,0,0,1,108.061,42.3808)">x</text></g><g><text x="24.509" y="44.619" style="font-family:'ArialMT','Arial',sans-serif;font-size:10px" transform="matrix(1,0,0,1,-30,-19.7228) matrix(1,0,0,1,138.061,42.3808)">x</text></g><g><text x="24.509" y="44.619" style="font-family:'ArialMT','Arial',sans-serif;font-size:10px" transform="matrix(1,0,0,1,-30,-19.7228) matrix(1,0,0,1,168.061,42.3808)">x</text></g><g><text x="24.509" y="44.619" style="font-family:'ArialMT','Arial',sans-serif;font-size:10px" transform="matrix(1,0,0,1,-30,-19.7228) matrix(1,0,0,1,198.061,42.3808)">x</text></g><g><text x="24.509" y="44.619" style="font-family:'ArialMT','Arial',sans-serif;font-size:10px" transform="matrix(1,0,0,1,-30,-19.7228) matrix(1,0,0,1,228.061,42.3808)">x</text></g><g><text x="24.509" y="44.619" style="font-family:'ArialMT','Arial',sans-serif;font-size:10px" transform="matrix(1,0,0,1,-30,-19.7228) matrix(1,0,0,1,258.061,42.3808)">x</text></g><g><text x="24.509" y="44.619" style="font-family:'ArialMT','Arial',sans-serif;font-size:10px" transform="matrix(1,0,0,1,-30,-19.7228) matrix(1,0,0,1,288.061,42.3808)">x</text></g><g><text x="24.509" y="44.619" style="font-family:'ArialMT','Arial',sans-serif;font-size:10px" transform="matrix(1,0,0,1,-30,-19.7228) matrix(1,0,0,1,318.061,42.3808)">x</text></g><g><text x="24.509" y="44.619" style="font-family:'ArialMT','Arial',sans-serif;font-size:10px" transform="matrix(1,0,0,1,-30,-19.7228) matrix(1,0,0,1,348.061,42.3808)">x</text></g><g><text x="24.509" y="44.619" style="font-family:'ArialMT','Arial',sans-serif;font-size:10px" transform="matrix(1,0,0,1,-30,-19.7228) matrix(1,0,0,1,378.061,42.3808)">x</text></g></g><g><g><text x="24.229" y="44.619" style="font-family:'ArialMT','Arial',sans-serif;font-size:10px" transform="matrix(1,0,0,1,-30,10.804) matrix(1,0,0,1,28.0614,42.3808)">g</text></g><g><text x="24.229" y="44.619" style="font-family:'ArialMT','Arial',sans-serif;font-size:10px" transform="matrix(1,0,0,1,-30,10.804) matrix(1,0,0,1,58.0614,42.3808)">g</text></g><g><text x="24.229" y="44.619" style="font-family:'ArialMT','Arial',sans-serif;font-size:10px" transform="matrix(1,0,0,1,-30,10.804) matrix(1,0,0,1,88.0614,42.3808)">g</text></g><g><text x="24.229" y="44.619" style="font-family:'ArialMT','Arial',sans-serif;font-size:10px" transform="matrix(1,0,0,1,-30,10.804) matrix(1,0,0,1,118.061,42.3808)">g</text></g><g><text x="24.229" y="44.619" style="font-family:'ArialMT','Arial',sans-serif;font-size:10px" transform="matrix(1,0,0,1,-30,10.804) matrix(1,0,0,1,148.061,42.3808)">g</text></g><g><text x="24.229" y="44.619" style="font-family:'ArialMT','Arial',sans-serif;font-size:10px" transform="matrix(1,0,0,1,-30,10.804) matrix(1,0,0,1,178.061,42.3808)">g</text></g><g><text x="24.229" y="44.619" style="font-family:'ArialMT','Arial',sans-serif;font-size:10px" transform="matrix(1,0,0,1,-30,10.804) matrix(1,0,0,1,208.061,42.3808)">g</text></g><g><text x="24.229" y="44.619" style="font-family:'ArialMT','Arial',sans-serif;font-size:10px" transform="matrix(1,0,0,1,-30,10.804) matrix(1,0,0,1,238.061,42.3808)">g</text></g><g><text x="24.229" y="44.619" style="font-family:'ArialMT','Arial',sans-serif;font-size:10px" transform="matrix(1,0,0,1,-30,10.804) matrix(1,0,0,1,268.061,42.3808)">g</text></g><g><text x="24.229" y="44.619" style="font-family:'ArialMT','Arial',sans-serif;font-size:10px" transform="matrix(1,0,0,1,-30,10.804) matrix(1,0,0,1,298.061,42.3808)">g</text></g><g><text x="24.229" y="44.619" style="font-family:'ArialMT','Arial',sans-serif;font-size:10px" transform="matrix(1,0,0,1,-30,10.804) matrix(1,0,0,1,328.061,42.3808)">g</text></g><g><text x="24.229" y="44.619" style="font-family:'ArialMT','Arial',sans-serif;font-size:10px" transform="matrix(1,0,0,1,-30,10.804) matrix(1,0,0,1,358.061,42.3808)">g</text></g><g><text x="24.229" y="44.619" style="font-family:'ArialMT','Arial',sans-serif;font-size:10px" transform="matrix(1,0,0,1,-30,10.804) matrix(1,0,0,1,388.061,42.3808)">g</text></g><g><text x="24.229" y="44.619" style="font-family:'ArialMT','Arial',sans-serif;font-size:10px" transform="matrix(1,0,0,1,-30,10.804) matrix(1,0,0,1,38.0614,42.3808)">b</text></g><g><text x="24.229" y="44.619" style="font-family:'ArialMT','Arial',sans-serif;font-size:10px" transform="matrix(1,0,0,1,-30,10.804) matrix(1,0,0,1,68.0614,42.3808)">b</text></g><g><text x="24.229" y="44.619" style="font-family:'ArialMT','Arial',sans-serif;font-size:10px" transform="matrix(1,0,0,1,-30,10.804) matrix(1,0,0,1,98.0614,42.3808)">b</text></g><g><text x="24.229" y="44.619" style="font-family:'ArialMT','Arial',sans-serif;font-size:10px" transform="matrix(1,0,0,1,-30,10.804) matrix(1,0,0,1,128.061,42.3808)">b</text></g><g><text x="24.229" y="44.619" style="font-family:'ArialMT','Arial',sans-serif;font-size:10px" transform="matrix(1,0,0,1,-30,10.804) matrix(1,0,0,1,158.061,42.3808)">b</text></g><g><text x="24.229" y="44.619" style="font-family:'ArialMT','Arial',sans-serif;font-size:10px" transform="matrix(1,0,0,1,-30,10.804) matrix(1,0,0,1,188.061,42.3808)">b</text></g><g><text x="24.229" y="44.619" style="font-family:'ArialMT','Arial',sans-serif;font-size:10px" transform="matrix(1,0,0,1,-30,10.804) matrix(1,0,0,1,218.061,42.3808)">b</text></g><g><text x="24.229" y="44.619" style="font-family:'ArialMT','Arial',sans-serif;font-size:10px" transform="matrix(1,0,0,1,-30,10.804) matrix(1,0,0,1,248.061,42.3808)">b</text></g><g><text x="24.229" y="44.619" style="font-family:'ArialMT','Arial',sans-serif;font-size:10px" transform="matrix(1,0,0,1,-30,10.804) matrix(1,0,0,1,278.061,42.3808)">b</text></g><g><text x="24.229" y="44.619" style="font-family:'ArialMT','Arial',sans-serif;font-size:10px" transform="matrix(1,0,0,1,-30,10.804) matrix(1,0,0,1,308.061,42.3808)">b</text></g><g><text x="24.229" y="44.619" style="font-family:'ArialMT','Arial',sans-serif;font-size:10px" transform="matrix(1,0,0,1,-30,10.804) matrix(1,0,0,1,338.061,42.3808)">b</text></g><g><text x="24.229" y="44.619" style="font-family:'ArialMT','Arial',sans-serif;font-size:10px" transform="matrix(1,0,0,1,-30,10.804) matrix(1,0,0,1,368.061,42.3808)">b</text></g><g><text x="24.229" y="44.619" style="font-family:'ArialMT','Arial',sans-serif;font-size:10px" transform="matrix(1,0,0,1,-30,10.804) matrix(1,0,0,1,398.061,42.3808)">b</text></g><g><text x="25.344" y="44.619" style="font-family:'ArialMT','Arial',sans-serif;font-size:10px" transform="matrix(1,0,0,1,-30,10.804) matrix(1,0,0,1,18.0614,42.3808)">r</text></g><g><text x="25.344" y="44.619" style="font-family:'ArialMT','Arial',sans-serif;font-size:10px" transform="matrix(1,0,0,1,-30,10.804) matrix(1,0,0,1,48.0614,42.3808)">r</text></g><g><text x="25.344" y="44.619" style="font-family:'ArialMT','Arial',sans-serif;font-size:10px" transform="matrix(1,0,0,1,-30,10.804) matrix(1,0,0,1,78.0614,42.3808)">r</text></g><g><text x="25.344" y="44.619" style="font-family:'ArialMT','Arial',sans-serif;font-size:10px" transform="matrix(1,0,0,1,-30,10.804) matrix(1,0,0,1,108.061,42.3808)">r</text></g><g><text x="25.344" y="44.619" style="font-family:'ArialMT','Arial',sans-serif;font-size:10px" transform="matrix(1,0,0,1,-30,10.804) matrix(1,0,0,1,138.061,42.3808)">r</text></g><g><text x="25.344" y="44.619" style="font-family:'ArialMT','Arial',sans-serif;font-size:10px" transform="matrix(1,0,0,1,-30,10.804) matrix(1,0,0,1,168.061,42.3808)">r</text></g><g><text x="25.344" y="44.619" style="font-family:'ArialMT','Arial',sans-serif;font-size:10px" transform="matrix(1,0,0,1,-30,10.804) matrix(1,0,0,1,198.061,42.3808)">r</text></g><g><text x="25.344" y="44.619" style="font-family:'ArialMT','Arial',sans-serif;font-size:10px" transform="matrix(1,0,0,1,-30,10.804) matrix(1,0,0,1,228.061,42.3808)">r</text></g><g><text x="25.344" y="44.619" style="font-family:'ArialMT','Arial',sans-serif;font-size:10px" transform="matrix(1,0,0,1,-30,10.804) matrix(1,0,0,1,258.061,42.3808)">r</text></g><g><text x="25.344" y="44.619" style="font-family:'ArialMT','Arial',sans-serif;font-size:10px" transform="matrix(1,0,0,1,-30,10.804) matrix(1,0,0,1,288.061,42.3808)">r</text></g><g><text x="25.344" y="44.619" style="font-family:'ArialMT','Arial',sans-serif;font-size:10px" transform="matrix(1,0,0,1,-30,10.804) matrix(1,0,0,1,318.061,42.3808)">r</text></g><g><text x="25.344" y="44.619" style="font-family:'ArialMT','Arial',sans-serif;font-size:10px" transform="matrix(1,0,0,1,-30,10.804) matrix(1,0,0,1,348.061,42.3808)">r</text></g><g><text x="25.344" y="44.619" style="font-family:'ArialMT','Arial',sans-serif;font-size:10px" transform="matrix(1,0,0,1,-30,10.804) matrix(1,0,0,1,378.061,42.3808)">r</text></g></g><g><g><text x="14.993" y="127.064" style="font-family:'ArialMT','Arial',sans-serif;font-size:10px" transform="matrix(1,0,0,1,-0.234618,0.93567)">u</text></g><g><text x="14.993" y="127.064" style="font-family:'ArialMT','Arial',sans-serif;font-size:10px" transform="matrix(1,0,0,1,29.7654,0.93567)">u</text></g><g><text x="14.993" y="127.064" style="font-family:'ArialMT','Arial',sans-serif;font-size:10px" transform="matrix(1,0,0,1,59.7654,0.93567)">u</text></g><g><text x="14.993" y="127.064" style="font-family:'ArialMT','Arial',sans-serif;font-size:10px" transform="matrix(1,0,0,1,89.7654,0.93567)">u</text></g><g><text x="14.993" y="127.064" style="font-family:'ArialMT','Arial',sans-serif;font-size:10px" transform="matrix(1,0,0,1,119.765,0.93567)">u</text></g><g><text x="14.993" y="127.064" style="font-family:'ArialMT','Arial',sans-serif;font-size:10px" transform="matrix(1,0,0,1,149.765,0.93567)">u</text></g><g><text x="14.993" y="127.064" style="font-family:'ArialMT','Arial',sans-serif;font-size:10px" transform="matrix(1,0,0,1,179.765,0.93567)">u</text></g><g><text x="14.993" y="127.064" style="font-family:'ArialMT','Arial',sans-serif;font-size:10px" transform="matrix(1,0,0,1,209.765,0.93567)">u</text></g><g><text x="14.993" y="127.064" style="font-family:'ArialMT','Arial',sans-serif;font-size:10px" transform="matrix(1,0,0,1,239.765,0.93567)">u</text></g><g><text x="14.993" y="127.064" style="font-family:'ArialMT','Arial',sans-serif;font-size:10px" transform="matrix(1,0,0,1,269.765,0.93567)">u</text></g><g><text x="14.993" y="127.064" style="font-family:'ArialMT','Arial',sans-serif;font-size:10px" transform="matrix(1,0,0,1,299.765,0.93567)">u</text></g><g><text x="14.993" y="127.064" style="font-family:'ArialMT','Arial',sans-serif;font-size:10px" transform="matrix(1,0,0,1,329.765,0.93567)">u</text></g><g><text x="14.993" y="127.064" style="font-family:'ArialMT','Arial',sans-serif;font-size:10px" transform="matrix(1,0,0,1,359.765,0.93567)">u</text></g><g><text x="15.274" y="127.064" style="font-family:'ArialMT','Arial',sans-serif;font-size:10px" transform="matrix(1,0,0,1,14.7654,1.12122)">v</text></g><g><text x="15.274" y="127.064" style="font-family:'ArialMT','Arial',sans-serif;font-size:10px" transform="matrix(1,0,0,1,44.7654,1.12122)">v</text></g><g><text x="15.274" y="127.064" style="font-family:'ArialMT','Arial',sans-serif;font-size:10px" transform="matrix(1,0,0,1,74.7654,1.12122)">v</text></g><g><text x="15.274" y="127.064" style="font-family:'ArialMT','Arial',sans-serif;font-size:10px" transform="matrix(1,0,0,1,104.765,1.12122)">v</text></g><g><text x="15.274" y="127.064" style="font-family:'ArialMT','Arial',sans-serif;font-size:10px" transform="matrix(1,0,0,1,134.765,1.12122)">v</text></g><g><text x="15.274" y="127.064" style="font-family:'ArialMT','Arial',sans-serif;font-size:10px" transform="matrix(1,0,0,1,164.765,1.12122)">v</text></g><g><text x="15.274" y="127.064" style="font-family:'ArialMT','Arial',sans-serif;font-size:10px" transform="matrix(1,0,0,1,194.765,1.12122)">v</text></g><g><text x="15.274" y="127.064" style="font-family:'ArialMT','Arial',sans-serif;font-size:10px" transform="matrix(1,0,0,1,224.765,1.12122)">v</text></g><g><text x="15.274" y="127.064" style="font-family:'ArialMT','Arial',sans-serif;font-size:10px" transform="matrix(1,0,0,1,254.765,1.12122)">v</text></g><g><text x="15.274" y="127.064" style="font-family:'ArialMT','Arial',sans-serif;font-size:10px" transform="matrix(1,0,0,1,284.765,1.12122)">v</text></g><g><text x="15.274" y="127.064" style="font-family:'ArialMT','Arial',sans-serif;font-size:10px" transform="matrix(1,0,0,1,314.765,1.12122)">v</text></g><g><text x="15.274" y="127.064" style="font-family:'ArialMT','Arial',sans-serif;font-size:10px" transform="matrix(1,0,0,1,344.765,1.12122)">v</text></g><g><text x="15.274" y="127.064" style="font-family:'ArialMT','Arial',sans-serif;font-size:10px" transform="matrix(1,0,0,1,374.765,1.12122)">v</text></g></g><g transform="matrix(0.971429,0,0,1,4.62857,-9.72281)"><rect width="35" height="117" x="127" y="26" style="fill:#e400a8;fill-opacity:.196078;stroke:#000;stroke-width:.2px"/></g><g><text x="128.83" y="22.888" style="font-family:'ArialMT','Arial',sans-serif;font-size:9px" transform="matrix(1,0,0,1,-5.68434e-14,-9.72281)">vertex 4</text></g></svg>