<svg xmlns="http://www.w3.org/2000/svg" xmlns:xlink="http://www.w3.org/1999/xlink" width="100%" height="100%" version="1.1" viewBox="0 0 460 380" xml:space="preserve" style="fill-rule:evenodd;clip-rule:evenodd;stroke-linecap:round;stroke-linejoin:round;stroke-miterlimit:1.5"><g><g transform="matrix(1,0,0,1,-20,0) matrix(1,0,0,1,-20,-20)"><rect width="40" height="40" x="60" y="60" style="fill:#00d4ff;stroke:#000;stroke-width:.2px"/></g><g><text x="49.05" y="60.575" style="font-family:'ArialMT','Arial',sans-serif;font-size:12px" transform="matrix(1,0,0,1,-20,0) matrix(1,0,0,1,-0.853483,1.27345)">x,y<tspan x="63.493 66.827" y="60.575 60.575">,z</tspan></text></g></g><g><g transform="matrix(1,0,0,1,20,0) matrix(1,0,0,1,-20,-20)"><rect width="40" height="40" x="60" y="60" style="fill:#00d4ff;stroke:#000;stroke-width:.2px"/></g><g><text x="49.05" y="60.575" style="font-family:'ArialMT','Arial',sans-serif;font-size:12px" transform="matrix(1,0,0,1,20,0) matrix(1,0,0,1,-0.853483,1.27345)">x,y<tspan x="63.493 66.827" y="60.575 60.575">,z</tspan></text></g></g><g><g transform="matrix(1,0,0,1,60,0) matrix(1,0,0,1,-20,-20)"><rect width="40" height="40" x="60" y="60" style="fill:#00d4ff;stroke:#000;stroke-width:.2px"/></g><g><text x="49.05" y="60.575" style="font-family:'ArialMT','Arial',sans-serif;font-size:12px" transform="matrix(1,0,0,1,60,0) matrix(1,0,0,1,-0.853483,1.27345)">x,y<tspan x="63.493 66.827" y="60.575 60.575">,z</tspan></text></g></g><g><g transform="matrix(1,0,0,1,100,0) matrix(1,0,0,1,-20,-20)"><rect width="40" height="40" x="60" y="60" style="fill:#00d4ff;stroke:#000;stroke-width:.2px"/></g><g><text x="49.05" y="60.575" style="font-family:'ArialMT','Arial',sans-serif;font-size:12px" transform="matrix(1,0,0,1,100,0) matrix(1,0,0,1,-0.853483,1.27345)">x,y<tspan x="63.493 66.827" y="60.575 60.575">,z</tspan></text></g></g><g><g transform="matrix(1,0,0,1,140,0) matrix(1,0,0,1,-20,-20)"><rect width="40" height="40" x="60" y="60" style="fill:#00d4ff;stroke:#000;stroke-width:.2px"/></g><g><text x="49.05" y="60.575" style="font-family:'ArialMT','Arial',sans-serif;font-size:12px" transform="matrix(1,0,0,1,140,0) matrix(1,0,0,1,-0.853483,1.27345)">x,y<tspan x="63.493 66.827" y="60.575 60.575">,z</tspan></text></g></g><g><g transform="matrix(1,0,0,1,180,0) matrix(1,0,0,1,-20,-20)"><rect width="40" height="40" x="60" y="60" style="fill:#00d4ff;stroke:#000;stroke-width:.2px"/></g><g><text x="49.05" y="60.575" style="font-family:'ArialMT','Arial',sans-serif;font-size:12px" transform="matrix(1,0,0,1,180,0) matrix(1,0,0,1,-0.853483,1.27345)">x,y<tspan x="63.493 66.827" y="60.575 60.575">,z</tspan></text></g></g><g><g transform="matrix(1,0,0,1,220,0) matrix(1,0,0,1,-20,-20)"><rect width="40" height="40" x="60" y="60" style="fill:#00d4ff;stroke:#000;stroke-width:.2px"/></g><g><text x="49.05" y="60.575" style="font-family:'ArialMT','Arial',sans-serif;font-size:12px" transform="matrix(1,0,0,1,220,0) matrix(1,0,0,1,-0.853483,1.27345)">x,y<tspan x="63.493 66.827" y="60.575 60.575">,z</tspan></text></g></g><g><g transform="matrix(1,0,0,1,260,0) matrix(1,0,0,1,-20,-20)"><rect width="40" height="40" x="60" y="60" style="fill:#00d4ff;stroke:#000;stroke-width:.2px"/></g><g><text x="49.05" y="60.575" style="font-family:'ArialMT','Arial',sans-serif;font-size:12px" transform="matrix(1,0,0,1,260,0) matrix(1,0,0,1,-0.853483,1.27345)">x,y<tspan x="63.493 66.827" y="60.575 60.575">,z</tspan></text></g></g><g><g transform="matrix(1,0,0,1,300,0) matrix(1,0,0,1,-20,-20)"><rect width="40" height="40" x="60" y="60" style="fill:#00d4ff;stroke:#000;stroke-width:.2px"/></g><g><text x="49.05" y="60.575" style="font-family:'ArialMT','Arial',sans-serif;font-size:12px" transform="matrix(1,0,0,1,300,0) matrix(1,0,0,1,-0.853483,1.27345)">x,y<tspan x="63.493 66.827" y="60.575 60.575">,z</tspan></text></g></g><g><g transform="matrix(1,0,0,1,340,0) matrix(1,0,0,1,-20,-20)"><rect width="40" height="40" x="60" y="60" style="fill:#00d4ff;stroke:#000;stroke-width:.2px"/></g><g><text x="49.05" y="60.575" style="font-family:'ArialMT','Arial',sans-serif;font-size:12px" transform="matrix(1,0,0,1,340,0) matrix(1,0,0,1,-0.853483,1.27345)">x,y<tspan x="63.493 66.827" y="60.575 60.575">,z</tspan></text></g></g><g><g transform="matrix(1.28571,0,0,1,-11.4286,0)"><rect width="140" height="60" x="40" y="120" style="fill:#00a2ff;stroke:#000;stroke-width:.17px"/></g><g><text x="33.425" y="151.325" style="font-family:'ArialMT','Arial',sans-serif;font-size:12px" transform="matrix(1,0,0,1,15.4797,-10.6675)">indices: 0, 1, 2</text><text x="33.425" y="163.717" style="font-family:'ArialMT','Arial',sans-serif;font-size:12px" transform="matrix(1,0,0,1,15.4797,-10.6675)">vertexNormals: xyz, xyz, xyz</text><text x="33.425" y="176.11" style="font-family:'ArialMT','Arial',sans-serif;font-size:12px" transform="matrix(1,0,0,1,15.4797,-10.6675)">vertexColors: rgb, rgb, rgb</text></g></g><g><g transform="matrix(1,0,0,1,-5.68434e-14,60) matrix(1.28571,0,0,1,-11.4286,0)"><rect width="140" height="60" x="40" y="120" style="fill:#00a2ff;stroke:#000;stroke-width:.17px"/></g><g><text x="33.425" y="151.325" style="font-family:'ArialMT','Arial',sans-serif;font-size:12px" transform="matrix(1,0,0,1,-5.68434e-14,60) matrix(1,0,0,1,15.4797,-10.6675)">indices: 0, 3, 1</text><text x="33.425" y="163.717" style="font-family:'ArialMT','Arial',sans-serif;font-size:12px" transform="matrix(1,0,0,1,-5.68434e-14,60) matrix(1,0,0,1,15.4797,-10.6675)">vertexNormals: xyz, xyz, xyz</text><text x="33.425" y="176.11" style="font-family:'ArialMT','Arial',sans-serif;font-size:12px" transform="matrix(1,0,0,1,-5.68434e-14,60) matrix(1,0,0,1,15.4797,-10.6675)">vertexColors: rgb, rgb, rgb</text></g></g><g><g transform="matrix(1,0,0,1,-5.68434e-14,120) matrix(1.28571,0,0,1,-11.4286,0)"><rect width="140" height="60" x="40" y="120" style="fill:#00a2ff;stroke:#000;stroke-width:.17px"/></g><g><text x="33.425" y="151.325" style="font-family:'ArialMT','Arial',sans-serif;font-size:12px" transform="matrix(1,0,0,1,-5.68434e-14,120) matrix(1,0,0,1,15.4797,-10.6675)">indices: 4, 5, 6</text><text x="33.425" y="163.717" style="font-family:'ArialMT','Arial',sans-serif;font-size:12px" transform="matrix(1,0,0,1,-5.68434e-14,120) matrix(1,0,0,1,15.4797,-10.6675)">vertexNormals: xyz, xyz, xyz</text><text x="33.425" y="176.11" style="font-family:'ArialMT','Arial',sans-serif;font-size:12px" transform="matrix(1,0,0,1,-5.68434e-14,120) matrix(1,0,0,1,15.4797,-10.6675)">vertexColors: rgb, rgb, rgb</text></g></g><g><g transform="matrix(1,0,0,1,-5.68434e-14,180) matrix(1.28571,0,0,1,-11.4286,0)"><rect width="140" height="60" x="40" y="120" style="fill:#00a2ff;stroke:#000;stroke-width:.17px"/></g><g><text x="33.425" y="151.325" style="font-family:'ArialMT','Arial',sans-serif;font-size:12px" transform="matrix(1,0,0,1,-5.68434e-14,180) matrix(1,0,0,1,15.4797,-10.6675)">indices: 4, 7, 5</text><text x="33.425" y="163.717" style="font-family:'ArialMT','Arial',sans-serif;font-size:12px" transform="matrix(1,0,0,1,-5.68434e-14,180) matrix(1,0,0,1,15.4797,-10.6675)">vertexNormals: xyz, xyz, xyz</text><text x="33.425" y="176.11" style="font-family:'ArialMT','Arial',sans-serif;font-size:12px" transform="matrix(1,0,0,1,-5.68434e-14,180) matrix(1,0,0,1,15.4797,-10.6675)">vertexColors: rgb, rgb, rgb</text></g></g><rect width="180" height="20" x="40" y="100" style="fill:#0091e4;stroke:#000;stroke-width:.2px"/><g><text x="130.963" y="113.833" style="font-family:'Arial-BoldMT','Arial',sans-serif;font-weight:700;font-size:12px" transform="matrix(1,0,0,1,-16.5283,0.403108)">faces</text></g><g transform="matrix(1,0,0,1.53846,-20,-21.5385)"><rect width="400" height="13" x="40" y="27" style="fill:#00b4d8;stroke:#000;stroke-width:.15px"/></g><g><text x="186.164" y="33.448" style="font-family:'Arial-BoldMT','Arial',sans-serif;font-weight:700;font-size:12px" transform="matrix(1,0,0,1,-19.6069,-0.342976)">vertices(positions)</text></g><g transform="matrix(1,0,0,1,-20,0)"><rect width="140" height="240" x="280" y="120" style="fill:#03926a;stroke:#000;stroke-width:.2px"/></g><g transform="matrix(1,0,0,1,10,0)"><rect width="140" height="60" x="250" y="120" style="fill:none"/><g transform="matrix(1,0,0,1.1,-30,-12.5)"><rect width="130" height="50" x="285" y="125" style="fill:#0ac591;stroke:#000;stroke-width:.19px"/></g><g><g transform="matrix(1,0,0,1,0,10) matrix(1,0,0,1,20,0)"><rect width="40" height="40" x="240" y="120" style="fill:#00d89c;stroke:#000;stroke-width:.2px"/></g><g><text x="249.934" y="138.415" style="font-family:'ArialMT','Arial',sans-serif;font-size:12px" transform="matrix(1,0,0,1,0,10) matrix(1,0,0,1,21.749,3.84696)">u,v</text></g></g><g><g transform="matrix(1,0,0,1,40,10) matrix(1,0,0,1,20,0)"><rect width="40" height="40" x="240" y="120" style="fill:#00d89c;stroke:#000;stroke-width:.2px"/></g><g><text x="249.934" y="138.415" style="font-family:'ArialMT','Arial',sans-serif;font-size:12px" transform="matrix(1,0,0,1,40,10) matrix(1,0,0,1,21.749,3.84696)">u,v</text></g></g><g><g transform="matrix(1,0,0,1,80,10) matrix(1,0,0,1,20,0)"><rect width="40" height="40" x="240" y="120" style="fill:#00d89c;stroke:#000;stroke-width:.2px"/></g><g><text x="249.934" y="138.415" style="font-family:'ArialMT','Arial',sans-serif;font-size:12px" transform="matrix(1,0,0,1,80,10) matrix(1,0,0,1,21.749,3.84696)">u,v</text></g></g></g><g transform="matrix(1,0,0,1,10,60)"><rect width="140" height="60" x="250" y="120" style="fill:none"/><g transform="matrix(1,0,0,1.2,-30,-30)"><rect width="130" height="50" x="285" y="125" style="fill:#0ac591;stroke:#000;stroke-width:.18px"/></g><g><g transform="matrix(1,0,0,1,0,10) matrix(1,0,0,1,20,0)"><rect width="40" height="40" x="240" y="120" style="fill:#00d89c;stroke:#000;stroke-width:.2px"/></g><g><text x="249.934" y="138.415" style="font-family:'ArialMT','Arial',sans-serif;font-size:12px" transform="matrix(1,0,0,1,0,10) matrix(1,0,0,1,21.749,3.84696)">u,v</text></g></g><g><g transform="matrix(1,0,0,1,40,10) matrix(1,0,0,1,20,0)"><rect width="40" height="40" x="240" y="120" style="fill:#00d89c;stroke:#000;stroke-width:.2px"/></g><g><text x="249.934" y="138.415" style="font-family:'ArialMT','Arial',sans-serif;font-size:12px" transform="matrix(1,0,0,1,40,10) matrix(1,0,0,1,21.749,3.84696)">u,v</text></g></g><g><g transform="matrix(1,0,0,1,80,10) matrix(1,0,0,1,20,0)"><rect width="40" height="40" x="240" y="120" style="fill:#00d89c;stroke:#000;stroke-width:.2px"/></g><g><text x="249.934" y="138.415" style="font-family:'ArialMT','Arial',sans-serif;font-size:12px" transform="matrix(1,0,0,1,80,10) matrix(1,0,0,1,21.749,3.84696)">u,v</text></g></g></g><g transform="matrix(1,0,0,1,10,120)"><rect width="140" height="60" x="250" y="120" style="fill:none"/><g transform="matrix(1,0,0,1.2,-30,-30)"><rect width="130" height="50" x="285" y="125" style="fill:#0ac591;stroke:#000;stroke-width:.18px"/></g><g><g transform="matrix(1,0,0,1,0,10) matrix(1,0,0,1,20,0)"><rect width="40" height="40" x="240" y="120" style="fill:#00d89c;stroke:#000;stroke-width:.2px"/></g><g><text x="249.934" y="138.415" style="font-family:'ArialMT','Arial',sans-serif;font-size:12px" transform="matrix(1,0,0,1,0,10) matrix(1,0,0,1,21.749,3.84696)">u,v</text></g></g><g><g transform="matrix(1,0,0,1,40,10) matrix(1,0,0,1,20,0)"><rect width="40" height="40" x="240" y="120" style="fill:#00d89c;stroke:#000;stroke-width:.2px"/></g><g><text x="249.934" y="138.415" style="font-family:'ArialMT','Arial',sans-serif;font-size:12px" transform="matrix(1,0,0,1,40,10) matrix(1,0,0,1,21.749,3.84696)">u,v</text></g></g><g><g transform="matrix(1,0,0,1,80,10) matrix(1,0,0,1,20,0)"><rect width="40" height="40" x="240" y="120" style="fill:#00d89c;stroke:#000;stroke-width:.2px"/></g><g><text x="249.934" y="138.415" style="font-family:'ArialMT','Arial',sans-serif;font-size:12px" transform="matrix(1,0,0,1,80,10) matrix(1,0,0,1,21.749,3.84696)">u,v</text></g></g></g><g transform="matrix(1,0,0,1,10,180)"><rect width="140" height="60" x="250" y="120" style="fill:none"/><g transform="matrix(1,0,0,1.1,-30,-17.5)"><rect width="130" height="50" x="285" y="125" style="fill:#0ac591;stroke:#000;stroke-width:.19px"/></g><g><g transform="matrix(1,0,0,1,0,10) matrix(1,0,0,1,20,0)"><rect width="40" height="40" x="240" y="120" style="fill:#00d89c;stroke:#000;stroke-width:.2px"/></g><g><text x="249.934" y="138.415" style="font-family:'ArialMT','Arial',sans-serif;font-size:12px" transform="matrix(1,0,0,1,0,10) matrix(1,0,0,1,21.749,3.84696)">u,v</text></g></g><g><g transform="matrix(1,0,0,1,40,10) matrix(1,0,0,1,20,0)"><rect width="40" height="40" x="240" y="120" style="fill:#00d89c;stroke:#000;stroke-width:.2px"/></g><g><text x="249.934" y="138.415" style="font-family:'ArialMT','Arial',sans-serif;font-size:12px" transform="matrix(1,0,0,1,40,10) matrix(1,0,0,1,21.749,3.84696)">u,v</text></g></g><g><g transform="matrix(1,0,0,1,80,10) matrix(1,0,0,1,20,0)"><rect width="40" height="40" x="240" y="120" style="fill:#00d89c;stroke:#000;stroke-width:.2px"/></g><g><text x="249.934" y="138.415" style="font-family:'ArialMT','Arial',sans-serif;font-size:12px" transform="matrix(1,0,0,1,80,10) matrix(1,0,0,1,21.749,3.84696)">u,v</text></g></g></g><g transform="matrix(1,0,0,1,10,0)"><rect width="140" height="20" x="250" y="100" style="fill:#08a67a;stroke:#000;stroke-width:.2px"/></g><g><text x="277.216" y="111.137" style="font-family:'Arial-BoldMT','Arial',sans-serif;font-weight:700;font-size:12px" transform="matrix(1,0,0,1,11.2642,3.15754)">faceV<tspan x="308.576 315.249" y="111.137 111.137">er</tspan>texUVs</text></g></svg>