<svg xmlns="http://www.w3.org/2000/svg" xmlns:xlink="http://www.w3.org/1999/xlink" width="100%" height="100%" version="1.1" viewBox="0 0 500 400" xml:space="preserve" style="fill-rule:evenodd;clip-rule:evenodd;stroke-linecap:round;stroke-linejoin:round;stroke-miterlimit:1.5"><g transform="matrix(1,0,0,1,-68.9446,-4.67287)"><rect width="25.333" height="25.333" x="177.014" y="150.396" style="stroke:#000;stroke-width:1px"/></g><g transform="matrix(1,0,0,1,-68.9446,96.6592)"><rect width="25.333" height="25.333" x="177.014" y="150.396" style="fill:#009200;stroke:#000;stroke-width:1px"/></g><g transform="matrix(1,0,0,1,-68.9446,45.9931)"><rect width="25.333" height="25.333" x="177.014" y="150.396" style="fill:#004900;stroke:#000;stroke-width:1px"/></g><g transform="matrix(1,0,0,1,-68.9446,147.325)"><rect width="25.333" height="25.333" x="177.014" y="150.396" style="fill:#00db00;stroke:#000;stroke-width:1px"/></g><g transform="matrix(1,0,0,1,-68.9446,20.6601)"><rect width="25.333" height="25.333" x="177.014" y="150.396" style="fill:#002400;stroke:#000;stroke-width:1px"/></g><g transform="matrix(1,0,0,1,-68.9446,121.992)"><rect width="25.333" height="25.333" x="177.014" y="150.396" style="fill:#00b600;stroke:#000;stroke-width:1px"/></g><g transform="matrix(1,0,0,1,-68.9446,71.3262)"><rect width="25.333" height="25.333" x="177.014" y="150.396" style="fill:#006d00;stroke:#000;stroke-width:1px"/></g><g transform="matrix(1,0,0,1,-68.9446,172.658)"><rect width="25.333" height="25.333" x="177.014" y="150.396" style="fill:#0f0;stroke:#000;stroke-width:1px"/></g><g transform="matrix(1,0,0,1,32.3875,-4.67287)"><rect width="25.333" height="25.333" x="177.014" y="150.396" style="fill:#910000;stroke:#000;stroke-width:1px"/></g><g transform="matrix(1,0,0,1,32.3875,96.6592)"><rect width="25.333" height="25.333" x="177.014" y="150.396" style="fill:#ebebeb;stroke:#000;stroke-width:1px"/></g><g transform="matrix(1,0,0,1,32.3875,45.9931)"><rect width="25.333" height="25.333" x="177.014" y="150.396" style="fill:#ebebeb;stroke:#000;stroke-width:1px"/></g><g transform="matrix(1,0,0,1,32.3875,147.325)"><rect width="25.333" height="25.333" x="177.014" y="150.396" style="fill:#ebebeb;stroke:#000;stroke-width:1px"/></g><g transform="matrix(1,0,0,1,32.3875,20.6601)"><rect width="25.333" height="25.333" x="177.014" y="150.396" style="fill:#ebebeb;stroke:#000;stroke-width:1px"/></g><g transform="matrix(1,0,0,1,32.3875,121.992)"><rect width="25.333" height="25.333" x="177.014" y="150.396" style="fill:#ebebeb;stroke:#000;stroke-width:1px"/></g><g transform="matrix(1,0,0,1,32.3875,71.3262)"><rect width="25.333" height="25.333" x="177.014" y="150.396" style="fill:#ebebeb;stroke:#000;stroke-width:1px"/></g><g transform="matrix(1,0,0,1,32.3875,172.658)"><rect width="25.333" height="25.333" x="177.014" y="150.396" style="fill:#91ff00;stroke:#000;stroke-width:1px"/></g><g transform="matrix(1,0,0,1,-18.2786,-4.67287)"><rect width="25.333" height="25.333" x="177.014" y="150.396" style="fill:#490000;stroke:#000;stroke-width:1px"/></g><g transform="matrix(1,0,0,1,-18.2786,96.6592)"><rect width="25.333" height="25.333" x="177.014" y="150.396" style="fill:#ebebeb;stroke:#000;stroke-width:1px"/></g><g transform="matrix(1,0,0,1,-18.2786,45.9931)"><rect width="25.333" height="25.333" x="177.014" y="150.396" style="fill:#ebebeb;stroke:#000;stroke-width:1px"/></g><g transform="matrix(1,0,0,1,-18.2786,147.325)"><rect width="25.333" height="25.333" x="177.014" y="150.396" style="fill:#ebebeb;stroke:#000;stroke-width:1px"/></g><g transform="matrix(1,0,0,1,-18.2786,20.6601)"><rect width="25.333" height="25.333" x="177.014" y="150.396" style="fill:#ebebeb;stroke:#000;stroke-width:1px"/></g><g transform="matrix(1,0,0,1,-18.2786,121.992)"><rect width="25.333" height="25.333" x="177.014" y="150.396" style="fill:#ebebeb;stroke:#000;stroke-width:1px"/></g><g transform="matrix(1,0,0,1,-18.2786,71.3262)"><rect width="25.333" height="25.333" x="177.014" y="150.396" style="fill:#ebebeb;stroke:#000;stroke-width:1px"/></g><g transform="matrix(1,0,0,1,-18.2786,172.658)"><rect width="25.333" height="25.333" x="177.014" y="150.396" style="fill:#49ff00;stroke:#000;stroke-width:1px"/></g><g transform="matrix(1,0,0,1,83.0535,-4.67287)"><rect width="25.333" height="25.333" x="177.014" y="150.396" style="fill:#da0000;stroke:#000;stroke-width:1px"/></g><g transform="matrix(1,0,0,1,83.0535,96.6592)"><rect width="25.333" height="25.333" x="177.014" y="150.396" style="fill:#ebebeb;stroke:#000;stroke-width:1px"/></g><g transform="matrix(1,0,0,1,83.0535,45.9931)"><rect width="25.333" height="25.333" x="177.014" y="150.396" style="fill:#ebebeb;stroke:#000;stroke-width:1px"/></g><g transform="matrix(1,0,0,1,83.0535,147.325)"><rect width="25.333" height="25.333" x="177.014" y="150.396" style="fill:#ebebeb;stroke:#000;stroke-width:1px"/></g><g transform="matrix(1,0,0,1,83.0535,20.6601)"><rect width="25.333" height="25.333" x="177.014" y="150.396" style="fill:#ebebeb;stroke:#000;stroke-width:1px"/></g><g transform="matrix(1,0,0,1,83.0535,121.992)"><rect width="25.333" height="25.333" x="177.014" y="150.396" style="fill:#ebebeb;stroke:#000;stroke-width:1px"/></g><g transform="matrix(1,0,0,1,83.0535,71.3262)"><rect width="25.333" height="25.333" x="177.014" y="150.396" style="fill:#ebebeb;stroke:#000;stroke-width:1px"/></g><g transform="matrix(1,0,0,1,83.0535,172.658)"><rect width="25.333" height="25.333" x="177.014" y="150.396" style="fill:#daff00;stroke:#000;stroke-width:1px"/></g><g transform="matrix(1,0,0,1,-43.6116,-4.67287)"><rect width="25.333" height="25.333" x="177.014" y="150.396" style="fill:#240000;stroke:#000;stroke-width:1px"/></g><g transform="matrix(1,0,0,1,-43.6116,96.6592)"><rect width="25.333" height="25.333" x="177.014" y="150.396" style="fill:#ebebeb;stroke:#000;stroke-width:1px"/></g><g transform="matrix(1,0,0,1,-43.6116,45.9931)"><rect width="25.333" height="25.333" x="177.014" y="150.396" style="fill:#ebebeb;stroke:#000;stroke-width:1px"/></g><g transform="matrix(1,0,0,1,-43.6116,147.325)"><rect width="25.333" height="25.333" x="177.014" y="150.396" style="fill:#ebebeb;stroke:#000;stroke-width:1px"/></g><g transform="matrix(1,0,0,1,-43.6116,20.6601)"><rect width="25.333" height="25.333" x="177.014" y="150.396" style="fill:#ebebeb;stroke:#000;stroke-width:1px"/></g><g transform="matrix(1,0,0,1,-43.6116,121.992)"><rect width="25.333" height="25.333" x="177.014" y="150.396" style="fill:#ebebeb;stroke:#000;stroke-width:1px"/></g><g transform="matrix(1,0,0,1,-43.6116,71.3262)"><rect width="25.333" height="25.333" x="177.014" y="150.396" style="fill:#ebebeb;stroke:#000;stroke-width:1px"/></g><g transform="matrix(1,0,0,1,-43.6116,172.658)"><rect width="25.333" height="25.333" x="177.014" y="150.396" style="fill:#24ff00;stroke:#000;stroke-width:1px"/></g><g transform="matrix(1,0,0,1,57.7205,-4.67287)"><rect width="25.333" height="25.333" x="177.014" y="150.396" style="fill:#b60000;stroke:#000;stroke-width:1px"/></g><g transform="matrix(1,0,0,1,57.7205,96.6592)"><rect width="25.333" height="25.333" x="177.014" y="150.396" style="fill:#ebebeb;stroke:#000;stroke-width:1px"/></g><g transform="matrix(1,0,0,1,57.7205,45.9931)"><rect width="25.333" height="25.333" x="177.014" y="150.396" style="fill:#ebebeb;stroke:#000;stroke-width:1px"/></g><g transform="matrix(1,0,0,1,57.7205,147.325)"><rect width="25.333" height="25.333" x="177.014" y="150.396" style="fill:#ebebeb;stroke:#000;stroke-width:1px"/></g><g transform="matrix(1,0,0,1,57.7205,20.6601)"><rect width="25.333" height="25.333" x="177.014" y="150.396" style="fill:#ebebeb;stroke:#000;stroke-width:1px"/></g><g transform="matrix(1,0,0,1,57.7205,121.992)"><rect width="25.333" height="25.333" x="177.014" y="150.396" style="fill:#ebebeb;stroke:#000;stroke-width:1px"/></g><g transform="matrix(1,0,0,1,57.7205,71.3262)"><rect width="25.333" height="25.333" x="177.014" y="150.396" style="fill:#ebebeb;stroke:#000;stroke-width:1px"/></g><g transform="matrix(1,0,0,1,57.7205,172.658)"><rect width="25.333" height="25.333" x="177.014" y="150.396" style="fill:#b6ff00;stroke:#000;stroke-width:1px"/></g><g transform="matrix(1,0,0,1,7.05444,-4.67287)"><rect width="25.333" height="25.333" x="177.014" y="150.396" style="fill:#6d0000;stroke:#000;stroke-width:1px"/></g><g transform="matrix(1,0,0,1,7.05444,96.6592)"><rect width="25.333" height="25.333" x="177.014" y="150.396" style="fill:#ebebeb;stroke:#000;stroke-width:1px"/></g><g transform="matrix(1,0,0,1,7.05444,45.9931)"><rect width="25.333" height="25.333" x="177.014" y="150.396" style="fill:#ebebeb;stroke:#000;stroke-width:1px"/></g><g transform="matrix(1,0,0,1,7.05444,147.325)"><rect width="25.333" height="25.333" x="177.014" y="150.396" style="fill:#ebebeb;stroke:#000;stroke-width:1px"/></g><g transform="matrix(1,0,0,1,7.05444,20.6601)"><rect width="25.333" height="25.333" x="177.014" y="150.396" style="fill:#ebebeb;stroke:#000;stroke-width:1px"/></g><g transform="matrix(1,0,0,1,7.05444,121.992)"><rect width="25.333" height="25.333" x="177.014" y="150.396" style="fill:#ebebeb;stroke:#000;stroke-width:1px"/></g><g transform="matrix(1,0,0,1,7.05444,71.3262)"><rect width="25.333" height="25.333" x="177.014" y="150.396" style="fill:#ebebeb;stroke:#000;stroke-width:1px"/></g><g transform="matrix(1,0,0,1,7.05444,172.658)"><rect width="25.333" height="25.333" x="177.014" y="150.396" style="fill:#6dff00;stroke:#000;stroke-width:1px"/></g><g transform="matrix(1,0,0,1,108.386,-4.67287)"><rect width="25.333" height="25.333" x="177.014" y="150.396" style="fill:#ff000d;stroke:#000;stroke-width:1px"/></g><g transform="matrix(1,0,0,1,108.386,96.6592)"><rect width="25.333" height="25.333" x="177.014" y="150.396" style="fill:#ff9100;stroke:#000;stroke-width:1px"/></g><g transform="matrix(1,0,0,1,108.386,45.9931)"><rect width="25.333" height="25.333" x="177.014" y="150.396" style="fill:#ff4800;stroke:#000;stroke-width:1px"/></g><g transform="matrix(1,0,0,1,108.386,147.325)"><rect width="25.333" height="25.333" x="177.014" y="150.396" style="fill:#ffda00;stroke:#000;stroke-width:1px"/></g><g transform="matrix(1,0,0,1,108.386,20.6601)"><rect width="25.333" height="25.333" x="177.014" y="150.396" style="fill:#ff2400;stroke:#000;stroke-width:1px"/></g><g transform="matrix(1,0,0,1,108.386,121.992)"><rect width="25.333" height="25.333" x="177.014" y="150.396" style="fill:#ffb600;stroke:#000;stroke-width:1px"/></g><g transform="matrix(1,0,0,1,108.386,71.3262)"><rect width="25.333" height="25.333" x="177.014" y="150.396" style="fill:#ff6d00;stroke:#000;stroke-width:1px"/></g><g transform="matrix(1,0,0,1,108.386,172.658)"><rect width="25.333" height="25.333" x="177.014" y="150.396" style="fill:#ff0;stroke:#000;stroke-width:1px"/></g><g><path d="M227.68,158.076L202.347,158.076L177.014,175.729L202.347,175.729L227.68,158.076Z" style="stroke:#000;stroke-width:.92px" transform="matrix(1,0,0.384374,0.665756,-137.093,28.6404)"/></g><g><path d="M227.68,158.076L202.347,158.076L177.014,175.729L202.347,175.729L227.68,158.076Z" style="fill:#000092;stroke:#000;stroke-width:.92px" transform="matrix(1,0,0.384374,0.665756,-62.9027,-18.37)"/></g><g><path d="M227.68,158.076L202.347,158.076L177.014,175.729L202.347,175.729L227.68,158.076Z" style="fill:#000049;stroke:#000;stroke-width:.92px" transform="matrix(1,0,0.384374,0.665756,-99.998,5.13517)"/></g><g><path d="M227.68,158.076L202.347,158.076L177.014,175.729L202.347,175.729L227.68,158.076Z" style="fill:#0000db;stroke:#000;stroke-width:.92px" transform="matrix(1,0,0.384374,0.665756,-25.8074,-41.8752)"/></g><g><path d="M227.68,158.076L202.347,158.076L177.014,175.729L202.347,175.729L227.68,158.076Z" style="fill:#000024;stroke:#000;stroke-width:.92px" transform="matrix(1,0,0.384374,0.665756,-118.546,16.8878)"/></g><g><path d="M227.68,158.076L202.347,158.076L177.014,175.729L202.347,175.729L227.68,158.076Z" style="fill:#0000b6;stroke:#000;stroke-width:.92px" transform="matrix(1,0,0.384374,0.665756,-44.355,-30.1226)"/></g><g><path d="M227.68,158.076L202.347,158.076L177.014,175.729L202.347,175.729L227.68,158.076Z" style="fill:#00006d;stroke:#000;stroke-width:.92px" transform="matrix(1,0,0.384374,0.665756,-81.4503,-6.61743)"/></g><g><path d="M227.68,158.076L202.347,158.076L177.014,175.729L202.347,175.729L227.68,158.076Z" style="fill:#00f;stroke:#000;stroke-width:.92px" transform="matrix(1,0,0.384374,0.665756,-7.25973,-53.6278)"/></g><g><path d="M227.68,158.076L202.347,158.076L177.014,175.729L202.347,175.729L227.68,158.076Z" style="fill:#910000;stroke:#000;stroke-width:.92px" transform="matrix(1,0,0.384374,0.665756,-35.7612,28.6404)"/></g><g><path d="M227.68,158.076L202.347,158.076L177.014,175.729L202.347,175.729L227.68,158.076Z" style="fill:#ebebeb;stroke:#000;stroke-width:.92px" transform="matrix(1,0,0.384374,0.665756,38.4294,-18.37)"/></g><g><path d="M227.68,158.076L202.347,158.076L177.014,175.729L202.347,175.729L227.68,158.076Z" style="fill:#ebebeb;stroke:#000;stroke-width:.92px" transform="matrix(1,0,0.384374,0.665756,1.33409,5.13517)"/></g><g><path d="M227.68,158.076L202.347,158.076L177.014,175.729L202.347,175.729L227.68,158.076Z" style="fill:#ebebeb;stroke:#000;stroke-width:.92px" transform="matrix(1,0,0.384374,0.665756,75.5247,-41.8752)"/></g><g><path d="M227.68,158.076L202.347,158.076L177.014,175.729L202.347,175.729L227.68,158.076Z" style="fill:#ebebeb;stroke:#000;stroke-width:.92px" transform="matrix(1,0,0.384374,0.665756,-17.2136,16.8878)"/></g><g><path d="M227.68,158.076L202.347,158.076L177.014,175.729L202.347,175.729L227.68,158.076Z" style="fill:#ebebeb;stroke:#000;stroke-width:.92px" transform="matrix(1,0,0.384374,0.665756,56.977,-30.1226)"/></g><g><path d="M227.68,158.076L202.347,158.076L177.014,175.729L202.347,175.729L227.68,158.076Z" style="fill:#ebebeb;stroke:#000;stroke-width:.92px" transform="matrix(1,0,0.384374,0.665756,19.8817,-6.61743)"/></g><g><path d="M227.68,158.076L202.347,158.076L177.014,175.729L202.347,175.729L227.68,158.076Z" style="fill:#9100ff;stroke:#000;stroke-width:.92px" transform="matrix(1,0,0.384374,0.665756,94.0723,-53.6278)"/></g><g><path d="M227.68,158.076L202.347,158.076L177.014,175.729L202.347,175.729L227.68,158.076Z" style="fill:#490000;stroke:#000;stroke-width:.92px" transform="matrix(1,0,0.384374,0.665756,-86.4272,28.6404)"/></g><g><path d="M227.68,158.076L202.347,158.076L177.014,175.729L202.347,175.729L227.68,158.076Z" style="fill:#ebebeb;stroke:#000;stroke-width:.92px" transform="matrix(1,0,0.384374,0.665756,-12.2366,-18.37)"/></g><g><path d="M227.68,158.076L202.347,158.076L177.014,175.729L202.347,175.729L227.68,158.076Z" style="fill:#ebebeb;stroke:#000;stroke-width:.92px" transform="matrix(1,0,0.384374,0.665756,-49.3319,5.13517)"/></g><g><path d="M227.68,158.076L202.347,158.076L177.014,175.729L202.347,175.729L227.68,158.076Z" style="fill:#ebebeb;stroke:#000;stroke-width:.92px" transform="matrix(1,0,0.384374,0.665756,24.8586,-41.8752)"/></g><g><path d="M227.68,158.076L202.347,158.076L177.014,175.729L202.347,175.729L227.68,158.076Z" style="fill:#ebebeb;stroke:#000;stroke-width:.92px" transform="matrix(1,0,0.384374,0.665756,-67.8796,16.8878)"/></g><g><path d="M227.68,158.076L202.347,158.076L177.014,175.729L202.347,175.729L227.68,158.076Z" style="fill:#ebebeb;stroke:#000;stroke-width:.92px" transform="matrix(1,0,0.384374,0.665756,6.311,-30.1226)"/></g><g><path d="M227.68,158.076L202.347,158.076L177.014,175.729L202.347,175.729L227.68,158.076Z" style="fill:#ebebeb;stroke:#000;stroke-width:.92px" transform="matrix(1,0,0.384374,0.665756,-30.7843,-6.61743)"/></g><g><path d="M227.68,158.076L202.347,158.076L177.014,175.729L202.347,175.729L227.68,158.076Z" style="fill:#4900ff;stroke:#000;stroke-width:.92px" transform="matrix(1,0,0.384374,0.665756,43.4063,-53.6278)"/></g><g><path d="M227.68,158.076L202.347,158.076L177.014,175.729L202.347,175.729L227.68,158.076Z" style="fill:#da0000;stroke:#000;stroke-width:.92px" transform="matrix(1,0,0.384374,0.665756,14.9048,28.6404)"/></g><g><path d="M227.68,158.076L202.347,158.076L177.014,175.729L202.347,175.729L227.68,158.076Z" style="fill:#ebebeb;stroke:#000;stroke-width:.92px" transform="matrix(1,0,0.384374,0.665756,89.0954,-18.37)"/></g><g><path d="M227.68,158.076L202.347,158.076L177.014,175.729L202.347,175.729L227.68,158.076Z" style="fill:#ebebeb;stroke:#000;stroke-width:.92px" transform="matrix(1,0,0.384374,0.665756,52.0001,5.13517)"/></g><g><path d="M227.68,158.076L202.347,158.076L177.014,175.729L202.347,175.729L227.68,158.076Z" style="fill:#ebebeb;stroke:#000;stroke-width:.92px" transform="matrix(1,0,0.384374,0.665756,126.191,-41.8752)"/></g><g><path d="M227.68,158.076L202.347,158.076L177.014,175.729L202.347,175.729L227.68,158.076Z" style="fill:#ebebeb;stroke:#000;stroke-width:.92px" transform="matrix(1,0,0.384374,0.665756,33.4525,16.8878)"/></g><g><path d="M227.68,158.076L202.347,158.076L177.014,175.729L202.347,175.729L227.68,158.076Z" style="fill:#ebebeb;stroke:#000;stroke-width:.92px" transform="matrix(1,0,0.384374,0.665756,107.643,-30.1226)"/></g><g><path d="M227.68,158.076L202.347,158.076L177.014,175.729L202.347,175.729L227.68,158.076Z" style="fill:#ebebeb;stroke:#000;stroke-width:.92px" transform="matrix(1,0,0.384374,0.665756,70.5478,-6.61743)"/></g><g><path d="M227.68,158.076L202.347,158.076L177.014,175.729L202.347,175.729L227.68,158.076Z" style="fill:#da00ff;stroke:#000;stroke-width:.92px" transform="matrix(1,0,0.384374,0.665756,144.738,-53.6278)"/></g><g><path d="M227.68,158.076L202.347,158.076L177.014,175.729L202.347,175.729L227.68,158.076Z" style="fill:#240000;stroke:#000;stroke-width:.92px" transform="matrix(1,0,0.384374,0.665756,-111.76,28.6404)"/></g><g><path d="M227.68,158.076L202.347,158.076L177.014,175.729L202.347,175.729L227.68,158.076Z" style="fill:#ebebeb;stroke:#000;stroke-width:.92px" transform="matrix(1,0,0.384374,0.665756,-37.5697,-18.37)"/></g><g><path d="M227.68,158.076L202.347,158.076L177.014,175.729L202.347,175.729L227.68,158.076Z" style="fill:#ebebeb;stroke:#000;stroke-width:.92px" transform="matrix(1,0,0.384374,0.665756,-74.6649,5.13517)"/></g><g><path d="M227.68,158.076L202.347,158.076L177.014,175.729L202.347,175.729L227.68,158.076Z" style="fill:#ebebeb;stroke:#000;stroke-width:.92px" transform="matrix(1,0,0.384374,0.665756,-0.474363,-41.8752)"/></g><g><path d="M227.68,158.076L202.347,158.076L177.014,175.729L202.347,175.729L227.68,158.076Z" style="fill:#ebebeb;stroke:#000;stroke-width:.92px" transform="matrix(1,0,0.384374,0.665756,-93.2126,16.8878)"/></g><g><path d="M227.68,158.076L202.347,158.076L177.014,175.729L202.347,175.729L227.68,158.076Z" style="fill:#ebebeb;stroke:#000;stroke-width:.92px" transform="matrix(1,0,0.384374,0.665756,-19.022,-30.1226)"/></g><g><path d="M227.68,158.076L202.347,158.076L177.014,175.729L202.347,175.729L227.68,158.076Z" style="fill:#ebebeb;stroke:#000;stroke-width:.92px" transform="matrix(1,0,0.384374,0.665756,-56.1173,-6.61743)"/></g><g><path d="M227.68,158.076L202.347,158.076L177.014,175.729L202.347,175.729L227.68,158.076Z" style="fill:#2400ff;stroke:#000;stroke-width:.92px" transform="matrix(1,0,0.384374,0.665756,18.0733,-53.6278)"/></g><g><path d="M227.68,158.076L202.347,158.076L177.014,175.729L202.347,175.729L227.68,158.076Z" style="fill:#b60000;stroke:#000;stroke-width:.92px" transform="matrix(1,0,0.384374,0.665756,-10.4282,28.6404)"/></g><g><path d="M227.68,158.076L202.347,158.076L177.014,175.729L202.347,175.729L227.68,158.076Z" style="fill:#ebebeb;stroke:#000;stroke-width:.92px" transform="matrix(1,0,0.384374,0.665756,63.7624,-18.37)"/></g><g><path d="M227.68,158.076L202.347,158.076L177.014,175.729L202.347,175.729L227.68,158.076Z" style="fill:#ebebeb;stroke:#000;stroke-width:.92px" transform="matrix(1,0,0.384374,0.665756,26.6671,5.13517)"/></g><g><path d="M227.68,158.076L202.347,158.076L177.014,175.729L202.347,175.729L227.68,158.076Z" style="fill:#ebebeb;stroke:#000;stroke-width:.92px" transform="matrix(1,0,0.384374,0.665756,100.858,-41.8752)"/></g><g><path d="M227.68,158.076L202.347,158.076L177.014,175.729L202.347,175.729L227.68,158.076Z" style="fill:#ebebeb;stroke:#000;stroke-width:.92px" transform="matrix(1,0,0.384374,0.665756,8.11946,16.8878)"/></g><g><path d="M227.68,158.076L202.347,158.076L177.014,175.729L202.347,175.729L227.68,158.076Z" style="fill:#ebebeb;stroke:#000;stroke-width:.92px" transform="matrix(1,0,0.384374,0.665756,82.31,-30.1226)"/></g><g><path d="M227.68,158.076L202.347,158.076L177.014,175.729L202.347,175.729L227.68,158.076Z" style="fill:#ebebeb;stroke:#000;stroke-width:.92px" transform="matrix(1,0,0.384374,0.665756,45.2147,-6.61743)"/></g><g><path d="M227.68,158.076L202.347,158.076L177.014,175.729L202.347,175.729L227.68,158.076Z" style="fill:#b600ff;stroke:#000;stroke-width:.92px" transform="matrix(1,0,0.384374,0.665756,119.405,-53.6278)"/></g><g><path d="M227.68,158.076L202.347,158.076L177.014,175.729L202.347,175.729L227.68,158.076Z" style="fill:#6d0000;stroke:#000;stroke-width:.92px" transform="matrix(1,0,0.384374,0.665756,-61.0942,28.6404)"/></g><g><path d="M227.68,158.076L202.347,158.076L177.014,175.729L202.347,175.729L227.68,158.076Z" style="fill:#ebebeb;stroke:#000;stroke-width:.92px" transform="matrix(1,0,0.384374,0.665756,13.0964,-18.37)"/></g><g><path d="M227.68,158.076L202.347,158.076L177.014,175.729L202.347,175.729L227.68,158.076Z" style="fill:#ebebeb;stroke:#000;stroke-width:.92px" transform="matrix(1,0,0.384374,0.665756,-23.9989,5.13517)"/></g><g><path d="M227.68,158.076L202.347,158.076L177.014,175.729L202.347,175.729L227.68,158.076Z" style="fill:#ebebeb;stroke:#000;stroke-width:.92px" transform="matrix(1,0,0.384374,0.665756,50.1917,-41.8752)"/></g><g><path d="M227.68,158.076L202.347,158.076L177.014,175.729L202.347,175.729L227.68,158.076Z" style="fill:#ebebeb;stroke:#000;stroke-width:.92px" transform="matrix(1,0,0.384374,0.665756,-42.5466,16.8878)"/></g><g><path d="M227.68,158.076L202.347,158.076L177.014,175.729L202.347,175.729L227.68,158.076Z" style="fill:#ebebeb;stroke:#000;stroke-width:.92px" transform="matrix(1,0,0.384374,0.665756,31.644,-30.1226)"/></g><g><path d="M227.68,158.076L202.347,158.076L177.014,175.729L202.347,175.729L227.68,158.076Z" style="fill:#ebebeb;stroke:#000;stroke-width:.92px" transform="matrix(1,0,0.384374,0.665756,-5.45128,-6.61743)"/></g><g><path d="M227.68,158.076L202.347,158.076L177.014,175.729L202.347,175.729L227.68,158.076Z" style="fill:#6d00ff;stroke:#000;stroke-width:.92px" transform="matrix(1,0,0.384374,0.665756,68.7393,-53.6278)"/></g><g><path d="M227.68,158.076L202.347,158.076L177.014,175.729L202.347,175.729L227.68,158.076Z" style="fill:#ff0d0d;stroke:#000;stroke-width:.92px" transform="matrix(1,0,0.384374,0.665756,40.2378,28.6404)"/></g><g><path d="M227.68,158.076L202.347,158.076L177.014,175.729L202.347,175.729L227.68,158.076Z" style="fill:#ff0091;stroke:#000;stroke-width:.92px" transform="matrix(1,0,0.384374,0.665756,114.428,-18.37)"/></g><g><path d="M227.68,158.076L202.347,158.076L177.014,175.729L202.347,175.729L227.68,158.076Z" style="fill:#ff0048;stroke:#000;stroke-width:.92px" transform="matrix(1,0,0.384374,0.665756,77.3331,5.13517)"/></g><g><path d="M227.68,158.076L202.347,158.076L177.014,175.729L202.347,175.729L227.68,158.076Z" style="fill:#ff00da;stroke:#000;stroke-width:.92px" transform="matrix(1,0,0.384374,0.665756,151.524,-41.8752)"/></g><g><path d="M227.68,158.076L202.347,158.076L177.014,175.729L202.347,175.729L227.68,158.076Z" style="fill:#ff0024;stroke:#000;stroke-width:.92px" transform="matrix(1,0,0.384374,0.665756,58.7855,16.8878)"/></g><g><path d="M227.68,158.076L202.347,158.076L177.014,175.729L202.347,175.729L227.68,158.076Z" style="fill:#ff00b6;stroke:#000;stroke-width:.92px" transform="matrix(1,0,0.384374,0.665756,132.976,-30.1226)"/></g><g><path d="M227.68,158.076L202.347,158.076L177.014,175.729L202.347,175.729L227.68,158.076Z" style="fill:#ff006d;stroke:#000;stroke-width:.92px" transform="matrix(1,0,0.384374,0.665756,95.8808,-6.61743)"/></g><g><path d="M227.68,158.076L202.347,158.076L177.014,175.729L202.347,175.729L227.68,158.076Z" style="fill:#f0f;stroke:#000;stroke-width:.92px" transform="matrix(1,0,0.384374,0.665756,170.071,-53.6278)"/></g><g><path d="M202.347,138.644L177.014,150.396L177.014,175.729L202.347,163.977L202.347,138.644Z" style="fill:red;stroke:#000;stroke-width:1.14px" transform="matrix(0.731033,0,0,1,181.386,-4.43825)"/></g><g><path d="M202.347,138.644L177.014,150.396L177.014,175.729L202.347,163.977L202.347,138.644Z" style="fill:#ff0091;stroke:#000;stroke-width:1.14px" transform="matrix(0.731033,0,0,1,255.378,-51.7595)"/></g><g><path d="M202.347,138.644L177.014,150.396L177.014,175.729L202.347,163.977L202.347,138.644Z" style="fill:#ff0048;stroke:#000;stroke-width:1.14px" transform="matrix(0.731033,0,0,1,218.424,-28.0428)"/></g><g><path d="M202.347,138.644L177.014,150.396L177.014,175.729L202.347,163.977L202.347,138.644Z" style="fill:#ff00da;stroke:#000;stroke-width:1.14px" transform="matrix(0.731033,0,0,1,292.283,-75.1028)"/></g><g><path d="M202.347,138.644L177.014,150.396L177.014,175.729L202.347,163.977L202.347,138.644Z" style="fill:#ff0024;stroke:#000;stroke-width:1.14px" transform="matrix(0.731033,0,0,1,199.905,-16.2902)"/></g><g><path d="M202.347,138.644L177.014,150.396L177.014,175.729L202.347,163.977L202.347,138.644Z" style="fill:#ff00b6;stroke:#000;stroke-width:1.14px" transform="matrix(0.731033,0,0,1,273.897,-63.5121)"/></g><g><path d="M202.347,138.644L177.014,150.396L177.014,175.729L202.347,163.977L202.347,138.644Z" style="fill:#ff006d;stroke:#000;stroke-width:1.14px" transform="matrix(0.731033,0,0,1,236.859,-39.9075)"/></g><g><path d="M202.347,138.644L177.014,150.396L177.014,175.729L202.347,163.977L202.347,138.644Z" style="fill:#f0f;stroke:#000;stroke-width:1.14px" transform="matrix(0.731033,0,0,1,310.803,-87.0314)"/></g><g><path d="M202.347,138.644L177.014,150.396L177.014,175.729L202.347,163.977L202.347,138.644Z" style="fill:#ff9100;stroke:#000;stroke-width:1.14px" transform="matrix(0.731033,0,0,1,181.386,96.4328)"/></g><g><path d="M202.347,138.644L177.014,150.396L177.014,175.729L202.347,163.977L202.347,138.644Z" style="fill:#ebebeb;stroke:#000;stroke-width:1.14px" transform="matrix(0.731033,0,0,1,255.378,49.1116)"/></g><g><path d="M202.347,138.644L177.014,150.396L177.014,175.729L202.347,163.977L202.347,138.644Z" style="fill:#ebebeb;stroke:#000;stroke-width:1.14px" transform="matrix(0.731033,0,0,1,218.424,72.8283)"/></g><g><path d="M202.347,138.644L177.014,150.396L177.014,175.729L202.347,163.977L202.347,138.644Z" style="fill:#ebebeb;stroke:#000;stroke-width:1.14px" transform="matrix(0.731033,0,0,1,292.283,25.7683)"/></g><g><path d="M202.347,138.644L177.014,150.396L177.014,175.729L202.347,163.977L202.347,138.644Z" style="fill:#ebebeb;stroke:#000;stroke-width:1.14px" transform="matrix(0.731033,0,0,1,199.905,84.5809)"/></g><g><path d="M202.347,138.644L177.014,150.396L177.014,175.729L202.347,163.977L202.347,138.644Z" style="fill:#ebebeb;stroke:#000;stroke-width:1.14px" transform="matrix(0.731033,0,0,1,273.897,37.359)"/></g><g><path d="M202.347,138.644L177.014,150.396L177.014,175.729L202.347,163.977L202.347,138.644Z" style="fill:#ebebeb;stroke:#000;stroke-width:1.14px" transform="matrix(0.731033,0,0,1,236.859,60.9636)"/></g><g><path d="M202.347,138.644L177.014,150.396L177.014,175.729L202.347,163.977L202.347,138.644Z" style="fill:#ff91ff;stroke:#000;stroke-width:1.14px" transform="matrix(0.731033,0,0,1,310.803,13.8397)"/></g><g><path d="M202.347,138.644L177.014,150.396L177.014,175.729L202.347,163.977L202.347,138.644Z" style="fill:#ff4800;stroke:#000;stroke-width:1.14px" transform="matrix(0.731033,0,0,1,181.386,45.9094)"/></g><g><path d="M202.347,138.644L177.014,150.396L177.014,175.729L202.347,163.977L202.347,138.644Z" style="fill:#ebebeb;stroke:#000;stroke-width:1.14px" transform="matrix(0.731033,0,0,1,255.378,-1.41182)"/></g><g><path d="M202.347,138.644L177.014,150.396L177.014,175.729L202.347,163.977L202.347,138.644Z" style="fill:#ebebeb;stroke:#000;stroke-width:1.14px" transform="matrix(0.731033,0,0,1,218.424,22.3048)"/></g><g><path d="M202.347,138.644L177.014,150.396L177.014,175.729L202.347,163.977L202.347,138.644Z" style="fill:#ebebeb;stroke:#000;stroke-width:1.14px" transform="matrix(0.731033,0,0,1,292.283,-24.7552)"/></g><g><path d="M202.347,138.644L177.014,150.396L177.014,175.729L202.347,163.977L202.347,138.644Z" style="fill:#ebebeb;stroke:#000;stroke-width:1.14px" transform="matrix(0.731033,0,0,1,199.905,34.0574)"/></g><g><path d="M202.347,138.644L177.014,150.396L177.014,175.729L202.347,163.977L202.347,138.644Z" style="fill:#ebebeb;stroke:#000;stroke-width:1.14px" transform="matrix(0.731033,0,0,1,273.897,-13.1644)"/></g><g><path d="M202.347,138.644L177.014,150.396L177.014,175.729L202.347,163.977L202.347,138.644Z" style="fill:#ebebeb;stroke:#000;stroke-width:1.14px" transform="matrix(0.731033,0,0,1,236.859,10.4402)"/></g><g><path d="M202.347,138.644L177.014,150.396L177.014,175.729L202.347,163.977L202.347,138.644Z" style="fill:#ff49ff;stroke:#000;stroke-width:1.14px" transform="matrix(0.731033,0,0,1,310.803,-36.6837)"/></g><g><path d="M202.347,138.644L177.014,150.396L177.014,175.729L202.347,163.977L202.347,138.644Z" style="fill:#ffda00;stroke:#000;stroke-width:1.14px" transform="matrix(0.731033,0,0,1,181.386,146.781)"/></g><g><path d="M202.347,138.644L177.014,150.396L177.014,175.729L202.347,163.977L202.347,138.644Z" style="fill:#ebebeb;stroke:#000;stroke-width:1.14px" transform="matrix(0.731033,0,0,1,255.378,99.4593)"/></g><g><path d="M202.347,138.644L177.014,150.396L177.014,175.729L202.347,163.977L202.347,138.644Z" style="fill:#ebebeb;stroke:#000;stroke-width:1.14px" transform="matrix(0.731033,0,0,1,218.424,123.176)"/></g><g><path d="M202.347,138.644L177.014,150.396L177.014,175.729L202.347,163.977L202.347,138.644Z" style="fill:#ebebeb;stroke:#000;stroke-width:1.14px" transform="matrix(0.731033,0,0,1,292.283,76.1159)"/></g><g><path d="M202.347,138.644L177.014,150.396L177.014,175.729L202.347,163.977L202.347,138.644Z" style="fill:#ebebeb;stroke:#000;stroke-width:1.14px" transform="matrix(0.731033,0,0,1,199.905,134.929)"/></g><g><path d="M202.347,138.644L177.014,150.396L177.014,175.729L202.347,163.977L202.347,138.644Z" style="fill:#ebebeb;stroke:#000;stroke-width:1.14px" transform="matrix(0.731033,0,0,1,273.897,87.7067)"/></g><g><path d="M202.347,138.644L177.014,150.396L177.014,175.729L202.347,163.977L202.347,138.644Z" style="fill:#ebebeb;stroke:#000;stroke-width:1.14px" transform="matrix(0.731033,0,0,1,236.859,111.311)"/></g><g><path d="M202.347,138.644L177.014,150.396L177.014,175.729L202.347,163.977L202.347,138.644Z" style="fill:#ffdaff;stroke:#000;stroke-width:1.14px" transform="matrix(0.731033,0,0,1,310.803,64.1874)"/></g><g><path d="M202.347,138.644L177.014,150.396L177.014,175.729L202.347,163.977L202.347,138.644Z" style="fill:#ff2400;stroke:#000;stroke-width:1.14px" transform="matrix(0.731033,0,0,1,181.386,20.6946)"/></g><g><path d="M202.347,138.644L177.014,150.396L177.014,175.729L202.347,163.977L202.347,138.644Z" style="fill:#ebebeb;stroke:#000;stroke-width:1.14px" transform="matrix(0.731033,0,0,1,255.378,-26.6267)"/></g><g><path d="M202.347,138.644L177.014,150.396L177.014,175.729L202.347,163.977L202.347,138.644Z" style="fill:#ebebeb;stroke:#000;stroke-width:1.14px" transform="matrix(0.731033,0,0,1,218.424,-2.91002)"/></g><g><path d="M202.347,138.644L177.014,150.396L177.014,175.729L202.347,163.977L202.347,138.644Z" style="fill:#ebebeb;stroke:#000;stroke-width:1.14px" transform="matrix(0.731033,0,0,1,292.283,-49.97)"/></g><g><path d="M202.347,138.644L177.014,150.396L177.014,175.729L202.347,163.977L202.347,138.644Z" style="fill:#ebebeb;stroke:#000;stroke-width:1.14px" transform="matrix(0.731033,0,0,1,199.905,8.84258)"/></g><g><path d="M202.347,138.644L177.014,150.396L177.014,175.729L202.347,163.977L202.347,138.644Z" style="fill:#ebebeb;stroke:#000;stroke-width:1.14px" transform="matrix(0.731033,0,0,1,273.897,-38.3793)"/></g><g><path d="M202.347,138.644L177.014,150.396L177.014,175.729L202.347,163.977L202.347,138.644Z" style="fill:#ebebeb;stroke:#000;stroke-width:1.14px" transform="matrix(0.731033,0,0,1,236.859,-14.7747)"/></g><g><path d="M202.347,138.644L177.014,150.396L177.014,175.729L202.347,163.977L202.347,138.644Z" style="fill:#ff24ff;stroke:#000;stroke-width:1.14px" transform="matrix(0.731033,0,0,1,310.803,-61.8986)"/></g><g><path d="M202.347,138.644L177.014,150.396L177.014,175.729L202.347,163.977L202.347,138.644Z" style="fill:#ffb600;stroke:#000;stroke-width:1.14px" transform="matrix(0.731033,0,0,1,181.386,121.566)"/></g><g><path d="M202.347,138.644L177.014,150.396L177.014,175.729L202.347,163.977L202.347,138.644Z" style="fill:#ebebeb;stroke:#000;stroke-width:1.14px" transform="matrix(0.731033,0,0,1,255.378,74.2444)"/></g><g><path d="M202.347,138.644L177.014,150.396L177.014,175.729L202.347,163.977L202.347,138.644Z" style="fill:#ebebeb;stroke:#000;stroke-width:1.14px" transform="matrix(0.731033,0,0,1,218.424,97.9611)"/></g><g><path d="M202.347,138.644L177.014,150.396L177.014,175.729L202.347,163.977L202.347,138.644Z" style="fill:#ebebeb;stroke:#000;stroke-width:1.14px" transform="matrix(0.731033,0,0,1,292.283,50.9011)"/></g><g><path d="M202.347,138.644L177.014,150.396L177.014,175.729L202.347,163.977L202.347,138.644Z" style="fill:#ebebeb;stroke:#000;stroke-width:1.14px" transform="matrix(0.731033,0,0,1,199.905,109.714)"/></g><g><path d="M202.347,138.644L177.014,150.396L177.014,175.729L202.347,163.977L202.347,138.644Z" style="fill:#ebebeb;stroke:#000;stroke-width:1.14px" transform="matrix(0.731033,0,0,1,273.897,62.4918)"/></g><g><path d="M202.347,138.644L177.014,150.396L177.014,175.729L202.347,163.977L202.347,138.644Z" style="fill:#ebebeb;stroke:#000;stroke-width:1.14px" transform="matrix(0.731033,0,0,1,236.859,86.0964)"/></g><g><path d="M202.347,138.644L177.014,150.396L177.014,175.729L202.347,163.977L202.347,138.644Z" style="fill:#ffb6ff;stroke:#000;stroke-width:1.14px" transform="matrix(0.731033,0,0,1,310.803,38.9725)"/></g><g><path d="M202.347,138.644L177.014,150.396L177.014,175.729L202.347,163.977L202.347,138.644Z" style="fill:#ff6d00;stroke:#000;stroke-width:1.14px" transform="matrix(0.731033,0,0,1,181.386,71.0422)"/></g><g><path d="M202.347,138.644L177.014,150.396L177.014,175.729L202.347,163.977L202.347,138.644Z" style="fill:#ebebeb;stroke:#000;stroke-width:1.14px" transform="matrix(0.731033,0,0,1,255.378,23.721)"/></g><g><path d="M202.347,138.644L177.014,150.396L177.014,175.729L202.347,163.977L202.347,138.644Z" style="fill:#ebebeb;stroke:#000;stroke-width:1.14px" transform="matrix(0.731033,0,0,1,218.424,47.4376)"/></g><g><path d="M202.347,138.644L177.014,150.396L177.014,175.729L202.347,163.977L202.347,138.644Z" style="fill:#ebebeb;stroke:#000;stroke-width:1.14px" transform="matrix(0.731033,0,0,1,292.283,0.377653)"/></g><g><path d="M202.347,138.644L177.014,150.396L177.014,175.729L202.347,163.977L202.347,138.644Z" style="fill:#ebebeb;stroke:#000;stroke-width:1.14px" transform="matrix(0.731033,0,0,1,199.905,59.1902)"/></g><g><path d="M202.347,138.644L177.014,150.396L177.014,175.729L202.347,163.977L202.347,138.644Z" style="fill:#ebebeb;stroke:#000;stroke-width:1.14px" transform="matrix(0.731033,0,0,1,273.897,11.9684)"/></g><g><path d="M202.347,138.644L177.014,150.396L177.014,175.729L202.347,163.977L202.347,138.644Z" style="fill:#ebebeb;stroke:#000;stroke-width:1.14px" transform="matrix(0.731033,0,0,1,236.859,35.573)"/></g><g><path d="M202.347,138.644L177.014,150.396L177.014,175.729L202.347,163.977L202.347,138.644Z" style="fill:#ff6dff;stroke:#000;stroke-width:1.14px" transform="matrix(0.731033,0,0,1,310.803,-11.5509)"/></g><g><path d="M202.347,138.644L177.014,150.396L177.014,175.729L202.347,163.977L202.347,138.644Z" style="fill:#ff0;stroke:#000;stroke-width:1.14px" transform="matrix(0.731033,0,0,1,181.386,171.913)"/></g><g><path d="M202.347,138.644L177.014,150.396L177.014,175.729L202.347,163.977L202.347,138.644Z" style="fill:#ffff91;stroke:#000;stroke-width:1.14px" transform="matrix(0.731033,0,0,1,255.378,124.592)"/></g><g><path d="M202.347,138.644L177.014,150.396L177.014,175.729L202.347,163.977L202.347,138.644Z" style="fill:#ffff49;stroke:#000;stroke-width:1.14px" transform="matrix(0.731033,0,0,1,218.424,148.309)"/></g><g><path d="M202.347,138.644L177.014,150.396L177.014,175.729L202.347,163.977L202.347,138.644Z" style="fill:#ffffda;stroke:#000;stroke-width:1.14px" transform="matrix(0.731033,0,0,1,292.283,101.249)"/></g><g><path d="M202.347,138.644L177.014,150.396L177.014,175.729L202.347,163.977L202.347,138.644Z" style="fill:#ffff24;stroke:#000;stroke-width:1.14px" transform="matrix(0.731033,0,0,1,199.905,160.061)"/></g><g><path d="M202.347,138.644L177.014,150.396L177.014,175.729L202.347,163.977L202.347,138.644Z" style="fill:#ffffb6;stroke:#000;stroke-width:1.14px" transform="matrix(0.731033,0,0,1,273.897,112.839)"/></g><g><path d="M202.347,138.644L177.014,150.396L177.014,175.729L202.347,163.977L202.347,138.644Z" style="fill:#ffff6d;stroke:#000;stroke-width:1.14px" transform="matrix(0.731033,0,0,1,236.859,136.444)"/></g><g><path d="M202.347,138.644L177.014,150.396L177.014,175.729L202.347,163.977L202.347,138.644Z" style="fill:#fff;stroke:#000;stroke-width:1.14px" transform="matrix(0.731033,0,0,1,310.803,89.3202)"/></g><g id="axes"><g><g><path d="M74.974,153.919L74.974,93.741" style="fill:none;stroke:#000;stroke-width:1px" transform="matrix(1,0,0,1,-0.0566172,-50) matrix(6.12323e-17,-1,1,6.12323e-17,-52.4094,270.607)"/></g><g><path d="M74.974,153.919L74.974,93.741" style="fill:none;stroke:#000;stroke-width:1px" transform="matrix(1,0,0,1,-0.0566172,-50) matrix(0,-1,1,0,-52.4094,473.361)"/></g><g><path d="M80.439,171.077L85.905,190.975L74.974,190.975L80.439,171.077Z" style="fill:#0f0" transform="matrix(1,0,0,1,-0.0566172,-50) matrix(-1,-1.22465e-16,1.22465e-16,-1,151.86,569.465)"/></g><g><path d="M80.439,171.077L85.905,190.975L74.974,190.975L80.439,171.077Z" style="fill:#0f0" transform="matrix(1,0,0,1,-0.0566172,-50) matrix(1,0,0,1,-9.01877,24.5561)"/></g><g><path d="M94.871,123.83L257.74,123.83" style="fill:none;stroke:#0f0;stroke-width:.99px" transform="matrix(1,0,0,1,-0.0566172,-50) matrix(6.21256e-17,-1.01459,1,6.12323e-17,-52.4094,477.765)"/></g></g><g><g><path d="M80.439,171.077L85.905,190.975L74.974,190.975L80.439,171.077Z" style="fill:#0d28f2" transform="matrix(1,0,0,1,-0.0566172,-50) matrix(0.547017,0.837121,-0.837121,0.547017,240.244,-7.07818) matrix(-1,-1.22465e-16,1.22465e-16,-1,157.286,422.965)"/></g><g><path d="M80.439,171.077L85.905,190.975L74.974,190.975L80.439,171.077Z" style="fill:#0d28f2" transform="matrix(1,0,0,1,-0.0566172,-50) matrix(0.547017,0.837121,-0.837121,0.547017,240.244,-7.07818) matrix(1,0,0,1,-4.41699,-88.72)"/></g><g><path d="M94.871,123.83L257.74,123.83" style="fill:none;stroke:#0d28f2;stroke-width:1.1px" transform="matrix(1,0,0,1,-0.0566172,-50) matrix(0.547017,0.837121,-0.837121,0.547017,240.244,-7.07818) matrix(6.41412e-17,-0.795906,1.01308,1.05301e-16,-49.3679,307.392)"/></g><g><path d="M74.974,153.919L74.974,93.741" style="fill:none;stroke:#000;stroke-width:1px" transform="matrix(1,0,0,1,-0.0566172,-50) matrix(0.547017,0.837121,-0.837121,0.547017,240.244,-7.07818) matrix(-0.837121,-0.547017,0.547017,-0.837121,67.9116,231.828)"/></g></g><g><g><path d="M74.974,153.919L74.974,93.741" style="fill:none;stroke:#fff;stroke-opacity:.54902;stroke-width:8.33px" transform="matrix(1,0,0,1,-0.0566172,-50) matrix(1,0,0,1,33.0393,0) matrix(1,0,0,1,0,30.6692)"/></g><g><path d="M74.974,153.919L74.974,93.741" style="fill:none;stroke:#fff;stroke-opacity:.54902;stroke-width:8.33px" transform="matrix(1,0,0,1,-0.0566172,-50) matrix(1,0,0,1,33.0393,0) matrix(1,0,0,1,202.664,30.6692)"/></g><g><path d="M80.439,171.077L85.905,190.975L74.974,190.975L80.439,171.077Z" style="fill:#f20d0d;stroke:#fff;stroke-opacity:.54902;stroke-width:8.33px" transform="matrix(1,0,0,1,-0.0566172,-50) matrix(1,0,0,1,33.0393,0) matrix(6.12323e-17,-1,1,6.12323e-17,-96.1034,234.938)"/></g><g><path d="M80.439,171.077L85.905,190.975L74.974,190.975L80.439,171.077Z" style="fill:#f20d0d;stroke:#fff;stroke-opacity:.54902;stroke-width:8.33px" transform="matrix(1,0,0,1,-0.0566172,-50) matrix(1,0,0,1,33.0393,0) matrix(6.12323e-17,1,-1,6.12323e-17,448.715,74.0599)"/></g><g><path d="M94.871,123.83L257.74,123.83" style="fill:none;stroke:#fff;stroke-opacity:.54902;stroke-width:8.33px" transform="matrix(1,0,0,1,-0.0566172,-50) matrix(1,0,0,1,33.0393,0) matrix(1,0,0,1,0,30.6692)"/></g></g><g><g><path d="M74.974,153.919L74.974,93.741" style="fill:none;stroke:#fff;stroke-width:3.75px" transform="matrix(1,0,0,1,-0.0566172,-50) matrix(1,0,0,1,33.0393,0) matrix(1,0,0,1,0,30.6692)"/></g><g><path d="M74.974,153.919L74.974,93.741" style="fill:none;stroke:#fff;stroke-width:3.75px" transform="matrix(1,0,0,1,-0.0566172,-50) matrix(1,0,0,1,33.0393,0) matrix(1,0,0,1,202.664,30.6692)"/></g><g><path d="M80.439,171.077L85.905,190.975L74.974,190.975L80.439,171.077Z" style="fill:#f20d0d;stroke:#fff;stroke-width:3.75px" transform="matrix(1,0,0,1,-0.0566172,-50) matrix(1,0,0,1,33.0393,0) matrix(6.12323e-17,-1,1,6.12323e-17,-96.1034,234.938)"/></g><g><path d="M80.439,171.077L85.905,190.975L74.974,190.975L80.439,171.077Z" style="fill:#f20d0d;stroke:#fff;stroke-width:3.75px" transform="matrix(1,0,0,1,-0.0566172,-50) matrix(1,0,0,1,33.0393,0) matrix(6.12323e-17,1,-1,6.12323e-17,448.715,74.0599)"/></g><g><path d="M94.871,123.83L257.74,123.83" style="fill:none;stroke:#fff;stroke-width:3.75px" transform="matrix(1,0,0,1,-0.0566172,-50) matrix(1,0,0,1,33.0393,0) matrix(1,0,0,1,0,30.6692)"/></g></g><g><g><path d="M74.974,153.919L74.974,93.741" style="fill:none;stroke:#000;stroke-width:1px" transform="matrix(1,0,0,1,-0.0566172,-50) matrix(1,0,0,1,33.0393,0) matrix(1,0,0,1,0,30.6692)"/></g><g><path d="M74.974,153.919L74.974,93.741" style="fill:none;stroke:#000;stroke-width:1px" transform="matrix(1,0,0,1,-0.0566172,-50) matrix(1,0,0,1,33.0393,0) matrix(1,0,0,1,202.664,30.6692)"/></g><g><path d="M80.439,171.077L85.905,190.975L74.974,190.975L80.439,171.077Z" style="fill:#f20d0d" transform="matrix(1,0,0,1,-0.0566172,-50) matrix(1,0,0,1,33.0393,0) matrix(6.12323e-17,-1,1,6.12323e-17,-96.1034,234.938)"/></g><g><path d="M80.439,171.077L85.905,190.975L74.974,190.975L80.439,171.077Z" style="fill:#f20d0d" transform="matrix(1,0,0,1,-0.0566172,-50) matrix(1,0,0,1,33.0393,0) matrix(6.12323e-17,1,-1,6.12323e-17,448.715,74.0599)"/></g><g><path d="M94.871,123.83L257.74,123.83" style="fill:none;stroke:#f20d0d;stroke-width:1px" transform="matrix(1,0,0,1,-0.0566172,-50) matrix(1,0,0,1,33.0393,0) matrix(1,0,0,1,0,30.6692)"/></g></g></g></svg>