<svg xmlns="http://www.w3.org/2000/svg" xmlns:xlink="http://www.w3.org/1999/xlink" width="100%" height="100%" version="1.1" viewBox="0 0 900 400" xml:space="preserve" style="fill-rule:evenodd;clip-rule:evenodd;stroke-linecap:round;stroke-linejoin:round;stroke-miterlimit:1.5"><g id="Input"><g transform="matrix(1,0,0,1,9.47928,-6.33325)"><rect width="178.1" height="113.999" x="33.377" y="171.057" style="fill:#90f4ff"/></g><g transform="matrix(1,0,0,1,9.47928,-6.33325)"><rect width="178.1" height="113.999" x="33.377" y="171.057" style="fill:#90f4ff;stroke:#000;stroke-width:1px"/></g><g transform="matrix(1,0,0,0.734872,0,179.303)"><rect width="178.1" height="43.091" x="42.856" y="92.197" style="fill:#916d00"/></g><g><path d="M136.941,209.056L153.624,238.426L120.259,238.426L136.941,209.056Z" style="fill:#007505" transform="matrix(1,0,0,1,-5.03489,-2.01823)"/></g><g><path d="M136.941,209.056L153.624,238.426L120.259,238.426L136.941,209.056Z" style="fill:#007505" transform="matrix(0.940057,0,0,0.940057,3.17374,-1.88307)"/></g><g><path d="M136.941,209.056L153.624,238.426L120.259,238.426L136.941,209.056Z" style="fill:#007505" transform="matrix(0.850143,0,0,0.850143,15.7252,5.07521)"/></g><g><path d="M80.357,174.727L83.592,184.684L89.827,181.607L88.827,188.488L99.297,188.488L90.827,194.642L95.68,199.62L88.827,200.796L92.062,210.753L83.592,204.599L80.357,210.753L77.122,204.599L68.651,210.753L71.887,200.796L65.034,199.62L69.887,194.642L61.417,188.488L71.887,188.488L70.887,181.607L77.122,184.684L80.357,174.727Z" style="fill:#fffb12" transform="matrix(1,0,0,1,2.28684,-3.71511)"/></g><g transform="matrix(1.14154,0,0,1,-23.4531,0)"><rect width="8.38" height="10.648" x="131.906" y="236.407" style="fill:#524b00"/></g></g><g id="Result" transform="matrix(1,0,0,1,642.707,0)"><g id="Arrow06-Result"><g><g transform="matrix(1,0,0,1,9.47928,-6.33325)"><rect width="178.1" height="113.999" x="33.377" y="171.057" style="fill:#90f4ff"/></g><g transform="matrix(1,0,0,1,9.47928,-6.33325)"><rect width="178.1" height="113.999" x="33.377" y="171.057" style="fill:#90f4ff;stroke:#000;stroke-width:1px"/></g></g><g id="Effect06-Hue"><g><g transform="matrix(1,0,0,1,9.47928,-6.33325)"><rect width="178.1" height="113.999" x="33.377" y="171.057" style="fill:#fb7900"/></g><g transform="matrix(1,0,0,1,9.47928,-6.33325)"><rect width="178.1" height="113.999" x="33.377" y="171.057" style="fill:#fb7900;stroke:#000;stroke-width:1px"/></g></g></g></g><g id="Arrow04-Result"><g transform="matrix(1,0,0,0.734872,0,179.303)"><rect width="178.1" height="43.091" x="42.856" y="92.197" style="fill:#916d00"/></g><g id="Effect04-Hue" transform="matrix(1,0,0,0.734872,0,179.303)"><rect width="178.1" height="43.091" x="42.856" y="92.197" style="fill:#fb7900"/></g></g><g id="Arrow01-Result"><g><g><path d="M136.941,209.056L153.624,238.426L120.259,238.426L136.941,209.056Z" style="fill:#007505" transform="matrix(1,0,0,1,-5.03489,-2.01823)"/></g><g><path d="M136.941,209.056L153.624,238.426L120.259,238.426L136.941,209.056Z" style="fill:#007505" transform="matrix(0.940057,0,0,0.940057,3.17374,-1.88307)"/></g><g><path d="M136.941,209.056L153.624,238.426L120.259,238.426L136.941,209.056Z" style="fill:#007505" transform="matrix(0.850143,0,0,0.850143,15.7252,5.07521)"/></g></g><g id="Effect01-Hue"><g><g><path d="M136.941,209.056L153.624,238.426L120.259,238.426L136.941,209.056Z" style="fill:#fb7900" transform="matrix(1,0,0,1,-5.03489,-2.01823)"/></g><g><path d="M136.941,209.056L153.624,238.426L120.259,238.426L136.941,209.056Z" style="fill:#fb7900" transform="matrix(0.940057,0,0,0.940057,3.17374,-1.88307)"/></g><g><path d="M136.941,209.056L153.624,238.426L120.259,238.426L136.941,209.056Z" style="fill:#fb7900" transform="matrix(0.850143,0,0,0.850143,15.7252,5.07521)"/></g></g></g></g><g id="Arrow03-Result"><g><path d="M80.357,174.727L83.592,184.684L89.827,181.607L88.827,188.488L99.297,188.488L90.827,194.642L95.68,199.62L88.827,200.796L92.062,210.753L83.592,204.599L80.357,210.753L77.122,204.599L68.651,210.753L71.887,200.796L65.034,199.62L69.887,194.642L61.417,188.488L71.887,188.488L70.887,181.607L77.122,184.684L80.357,174.727Z" style="fill:#fffb12" transform="matrix(1,0,0,1,2.28684,-3.71511)"/></g><g id="Effect03-Hue"><path d="M80.357,174.727L83.592,184.684L89.827,181.607L88.827,188.488L99.297,188.488L90.827,194.642L95.68,199.62L88.827,200.796L92.062,210.753L83.592,204.599L80.357,210.753L77.122,204.599L68.651,210.753L71.887,200.796L65.034,199.62L69.887,194.642L61.417,188.488L71.887,188.488L70.887,181.607L77.122,184.684L80.357,174.727Z" style="fill:#fb7900" transform="matrix(1,0,0,1,2.28684,-3.71511)"/></g></g><g id="Arrow02-Result"><g transform="matrix(1.14154,0,0,1,-23.4531,0)"><rect width="8.38" height="10.648" x="131.906" y="236.407" style="fill:#524b00"/></g><g id="Effect02-Hue" transform="matrix(1.14154,0,0,1,-23.4531,0)"><rect width="8.38" height="10.648" x="131.906" y="236.407" style="fill:#fb7900"/></g></g><g transform="matrix(1,0,0,1,9.47928,-6.33325)"><g id="Result-Outline"><rect width="178.1" height="113.999" x="33.377" y="171.057" style="fill:none;stroke:#000;stroke-width:1px"/></g></g></g><g id="Back-Arrows"><g id="Arrow06-Output"><g><path d="M133.373,543.235L192.513,758.881" style="fill:none;stroke:#000;stroke-width:1px" transform="matrix(0.0599313,-0.987016,0.987016,0.0599313,-53.7464,365.633) matrix(1,0,0,1.0209,0,-5.49553)"/></g><g><path d="M80.439,171.077L85.905,190.975L74.974,190.975L80.439,171.077Z" transform="matrix(0.0599313,-0.987016,0.987016,0.0599313,-53.7464,365.633) matrix(-0.960349,0.2788,-0.2788,-0.960349,320.16,918.802)"/></g></g><g id="Arrow06-Input"><g><path d="M124.812,479.05L192.513,758.881" style="fill:none;stroke:#000;stroke-width:1px" transform="matrix(0.446757,-0.882157,0.882157,0.446757,-283.977,94.0662) matrix(1,0,0,1.0209,0,-5.49553)"/></g><g><path d="M80.439,171.077L85.905,190.975L74.974,190.975L80.439,171.077Z" transform="matrix(0.446757,-0.882157,0.882157,0.446757,-283.977,94.0662) matrix(-0.960349,0.2788,-0.2788,-0.960349,320.16,918.802)"/></g></g></g><g id="_3DLUT"><g transform="matrix(1,0,0,1,97.9595,-4.67287)"><rect width="25.333" height="25.333" x="177.014" y="150.396" style="stroke:#000;stroke-width:1px"/></g><g transform="matrix(1,0,0,1,97.9595,96.6592)"><rect width="25.333" height="25.333" x="177.014" y="150.396" style="fill:#009200;stroke:#000;stroke-width:1px"/></g><g transform="matrix(1,0,0,1,97.9595,45.9931)"><rect width="25.333" height="25.333" x="177.014" y="150.396" style="fill:#004900;stroke:#000;stroke-width:1px"/></g><g transform="matrix(1,0,0,1,97.9595,147.325)"><rect width="25.333" height="25.333" x="177.014" y="150.396" style="fill:#00db00;stroke:#000;stroke-width:1px"/></g><g transform="matrix(1,0,0,1,97.9595,20.6601)"><rect width="25.333" height="25.333" x="177.014" y="150.396" style="fill:#002400;stroke:#000;stroke-width:1px"/></g><g transform="matrix(1,0,0,1,97.9595,121.992)"><rect width="25.333" height="25.333" x="177.014" y="150.396" style="fill:#00b600;stroke:#000;stroke-width:1px"/></g><g transform="matrix(1,0,0,1,97.9595,71.3262)"><rect width="25.333" height="25.333" x="177.014" y="150.396" style="fill:#006d00;stroke:#000;stroke-width:1px"/></g><g transform="matrix(1,0,0,1,97.9595,172.658)"><rect width="25.333" height="25.333" x="177.014" y="150.396" style="fill:#0f0;stroke:#000;stroke-width:1px"/></g><g transform="matrix(1,0,0,1,199.292,-4.67287)"><rect width="25.333" height="25.333" x="177.014" y="150.396" style="fill:#910000;stroke:#000;stroke-width:1px"/></g><g transform="matrix(1,0,0,1,199.292,96.6592)"><rect width="25.333" height="25.333" x="177.014" y="150.396" style="fill:#919100;stroke:#000;stroke-width:1px"/></g><g transform="matrix(1,0,0,1,199.292,45.9931)"><rect width="25.333" height="25.333" x="177.014" y="150.396" style="fill:#914800;stroke:#000;stroke-width:1px"/></g><g transform="matrix(1,0,0,1,199.292,147.325)"><rect width="25.333" height="25.333" x="177.014" y="150.396" style="fill:#91da00;stroke:#000;stroke-width:1px"/></g><g transform="matrix(1,0,0,1,199.292,20.6601)"><rect width="25.333" height="25.333" x="177.014" y="150.396" style="fill:#8e2400;stroke:#000;stroke-width:1px"/></g><g transform="matrix(1,0,0,1,199.292,121.992)"><rect width="25.333" height="25.333" x="177.014" y="150.396" style="fill:#91b600;stroke:#000;stroke-width:1px"/></g><g transform="matrix(1,0,0,1,199.292,71.3262)"><rect width="25.333" height="25.333" x="177.014" y="150.396" style="fill:#916d00;stroke:#000;stroke-width:1px"/></g><g transform="matrix(1,0,0,1,199.292,172.658)"><rect width="25.333" height="25.333" x="177.014" y="150.396" style="fill:#91ff00;stroke:#000;stroke-width:1px"/></g><g transform="matrix(1,0,0,1,148.626,-4.67287)"><rect width="25.333" height="25.333" x="177.014" y="150.396" style="fill:#490000;stroke:#000;stroke-width:1px"/></g><g transform="matrix(1,0,0,1,148.626,96.6592)"><rect width="25.333" height="25.333" x="177.014" y="150.396" style="fill:#489100;stroke:#000;stroke-width:1px"/></g><g transform="matrix(1,0,0,1,148.626,45.9931)"><rect width="25.333" height="25.333" x="177.014" y="150.396" style="fill:#494900;stroke:#000;stroke-width:1px"/></g><g transform="matrix(1,0,0,1,148.626,147.325)"><rect width="25.333" height="25.333" x="177.014" y="150.396" style="fill:#49da00;stroke:#000;stroke-width:1px"/></g><g transform="matrix(1,0,0,1,148.626,20.6601)"><rect width="25.333" height="25.333" x="177.014" y="150.396" style="fill:#482400;stroke:#000;stroke-width:1px"/></g><g transform="matrix(1,0,0,1,148.626,121.992)"><rect width="25.333" height="25.333" x="177.014" y="150.396" style="fill:#49b600;stroke:#000;stroke-width:1px"/></g><g transform="matrix(1,0,0,1,148.626,71.3262)"><rect width="25.333" height="25.333" x="177.014" y="150.396" style="fill:#486d00;stroke:#000;stroke-width:1px"/></g><g transform="matrix(1,0,0,1,148.626,172.658)"><rect width="25.333" height="25.333" x="177.014" y="150.396" style="fill:#49ff00;stroke:#000;stroke-width:1px"/></g><g transform="matrix(1,0,0,1,249.958,-4.67287)"><rect width="25.333" height="25.333" x="177.014" y="150.396" style="fill:#da0000;stroke:#000;stroke-width:1px"/></g><g transform="matrix(1,0,0,1,249.958,96.6592)"><rect width="25.333" height="25.333" x="177.014" y="150.396" style="fill:#db9100;stroke:#000;stroke-width:1px"/></g><g transform="matrix(1,0,0,1,249.958,45.9931)"><rect width="25.333" height="25.333" x="177.014" y="150.396" style="fill:#db4800;stroke:#000;stroke-width:1px"/></g><g transform="matrix(1,0,0,1,249.958,147.325)"><rect width="25.333" height="25.333" x="177.014" y="150.396" style="fill:#dada00;stroke:#000;stroke-width:1px"/></g><g transform="matrix(1,0,0,1,249.958,20.6601)"><rect width="25.333" height="25.333" x="177.014" y="150.396" style="fill:#db2400;stroke:#000;stroke-width:1px"/></g><g transform="matrix(1,0,0,1,249.958,121.992)"><rect width="25.333" height="25.333" x="177.014" y="150.396" style="fill:#dab600;stroke:#000;stroke-width:1px"/></g><g transform="matrix(1,0,0,1,249.958,71.3262)"><rect width="25.333" height="25.333" x="177.014" y="150.396" style="fill:#da6d00;stroke:#000;stroke-width:1px"/></g><g transform="matrix(1,0,0,1,249.958,172.658)"><rect width="25.333" height="25.333" x="177.014" y="150.396" style="fill:#daff00;stroke:#000;stroke-width:1px"/></g><g transform="matrix(1,0,0,1,123.293,-4.67287)"><rect width="25.333" height="25.333" x="177.014" y="150.396" style="fill:#240000;stroke:#000;stroke-width:1px"/></g><g transform="matrix(1,0,0,1,123.293,96.6592)"><rect width="25.333" height="25.333" x="177.014" y="150.396" style="fill:#249100;stroke:#000;stroke-width:1px"/></g><g transform="matrix(1,0,0,1,123.293,45.9931)"><rect width="25.333" height="25.333" x="177.014" y="150.396" style="fill:#244800;stroke:#000;stroke-width:1px"/></g><g transform="matrix(1,0,0,1,123.293,147.325)"><rect width="25.333" height="25.333" x="177.014" y="150.396" style="fill:#24da00;stroke:#000;stroke-width:1px"/></g><g transform="matrix(1,0,0,1,123.293,20.6601)"><rect width="25.333" height="25.333" x="177.014" y="150.396" style="fill:#242400;stroke:#000;stroke-width:1px"/></g><g transform="matrix(1,0,0,1,123.293,121.992)"><rect width="25.333" height="25.333" x="177.014" y="150.396" style="fill:#24b600;stroke:#000;stroke-width:1px"/></g><g transform="matrix(1,0,0,1,123.293,71.3262)"><rect width="25.333" height="25.333" x="177.014" y="150.396" style="fill:#246d00;stroke:#000;stroke-width:1px"/></g><g transform="matrix(1,0,0,1,123.293,172.658)"><rect width="25.333" height="25.333" x="177.014" y="150.396" style="fill:#24ff00;stroke:#000;stroke-width:1px"/></g><g transform="matrix(1,0,0,1,224.625,-4.67287)"><rect width="25.333" height="25.333" x="177.014" y="150.396" style="fill:#b60000;stroke:#000;stroke-width:1px"/></g><g transform="matrix(1,0,0,1,224.625,96.6592)"><rect width="25.333" height="25.333" x="177.014" y="150.396" style="fill:#b69100;stroke:#000;stroke-width:1px"/></g><g transform="matrix(1,0,0,1,224.625,45.9931)"><rect width="25.333" height="25.333" x="177.014" y="150.396" style="fill:#c04800;stroke:#000;stroke-width:1px"/></g><g transform="matrix(1,0,0,1,224.625,147.325)"><rect width="25.333" height="25.333" x="177.014" y="150.396" style="fill:#b6da00;stroke:#000;stroke-width:1px"/></g><g transform="matrix(1,0,0,1,224.625,20.6601)"><rect width="25.333" height="25.333" x="177.014" y="150.396" style="fill:#b62400;stroke:#000;stroke-width:1px"/></g><g transform="matrix(1,0,0,1,224.625,121.992)"><rect width="25.333" height="25.333" x="177.014" y="150.396" style="fill:#b6b600;stroke:#000;stroke-width:1px"/></g><g transform="matrix(1,0,0,1,224.625,71.3262)"><rect width="25.333" height="25.333" x="177.014" y="150.396" style="fill:#b66d00;stroke:#000;stroke-width:1px"/></g><g transform="matrix(1,0,0,1,224.625,172.658)"><rect width="25.333" height="25.333" x="177.014" y="150.396" style="fill:#b6ff00;stroke:#000;stroke-width:1px"/></g><g transform="matrix(1,0,0,1,173.959,-4.67287)"><rect width="25.333" height="25.333" x="177.014" y="150.396" style="fill:#6d0000;stroke:#000;stroke-width:1px"/></g><g transform="matrix(1,0,0,1,173.959,96.6592)"><rect width="25.333" height="25.333" x="177.014" y="150.396" style="fill:#6d9100;stroke:#000;stroke-width:1px"/></g><g transform="matrix(1,0,0,1,173.959,45.9931)"><rect width="25.333" height="25.333" x="177.014" y="150.396" style="fill:#6d4800;stroke:#000;stroke-width:1px"/></g><g transform="matrix(1,0,0,1,173.959,147.325)"><rect width="25.333" height="25.333" x="177.014" y="150.396" style="fill:#6dda00;stroke:#000;stroke-width:1px"/></g><g transform="matrix(1,0,0,1,173.959,20.6601)"><rect width="25.333" height="25.333" x="177.014" y="150.396" style="fill:#6d2400;stroke:#000;stroke-width:1px"/></g><g transform="matrix(1,0,0,1,173.959,121.992)"><rect width="25.333" height="25.333" x="177.014" y="150.396" style="fill:#6db600;stroke:#000;stroke-width:1px"/></g><g transform="matrix(1,0,0,1,173.959,71.3262)"><rect width="25.333" height="25.333" x="177.014" y="150.396" style="fill:#6d6d00;stroke:#000;stroke-width:1px"/></g><g transform="matrix(1,0,0,1,173.959,172.658)"><rect width="25.333" height="25.333" x="177.014" y="150.396" style="fill:#6dff00;stroke:#000;stroke-width:1px"/></g><g transform="matrix(1,0,0,1,275.291,-4.67287)"><rect width="25.333" height="25.333" x="177.014" y="150.396" style="fill:#ff000d;stroke:#000;stroke-width:1px"/></g><g transform="matrix(1,0,0,1,275.291,96.6592)"><rect width="25.333" height="25.333" x="177.014" y="150.396" style="fill:#ff9100;stroke:#000;stroke-width:1px"/></g><g transform="matrix(1,0,0,1,275.291,45.9931)"><rect width="25.333" height="25.333" x="177.014" y="150.396" style="fill:#ff4800;stroke:#000;stroke-width:1px"/></g><g transform="matrix(1,0,0,1,275.291,147.325)"><rect width="25.333" height="25.333" x="177.014" y="150.396" style="fill:#ffda00;stroke:#000;stroke-width:1px"/></g><g transform="matrix(1,0,0,1,275.291,20.6601)"><rect width="25.333" height="25.333" x="177.014" y="150.396" style="fill:#ff2400;stroke:#000;stroke-width:1px"/></g><g transform="matrix(1,0,0,1,275.291,121.992)"><rect width="25.333" height="25.333" x="177.014" y="150.396" style="fill:#ffb600;stroke:#000;stroke-width:1px"/></g><g transform="matrix(1,0,0,1,275.291,71.3262)"><rect width="25.333" height="25.333" x="177.014" y="150.396" style="fill:#ff6d00;stroke:#000;stroke-width:1px"/></g><g transform="matrix(1,0,0,1,275.291,172.658)"><rect width="25.333" height="25.333" x="177.014" y="150.396" style="fill:#ff0;stroke:#000;stroke-width:1px"/></g><g><path d="M227.68,158.076L202.347,158.076L177.014,175.729L202.347,175.729L227.68,158.076Z" style="stroke:#000;stroke-width:.92px" transform="matrix(1,0,0.384374,0.665756,29.8109,28.6404)"/></g><g><path d="M227.68,158.076L202.347,158.076L177.014,175.729L202.347,175.729L227.68,158.076Z" style="fill:#000092;stroke:#000;stroke-width:.92px" transform="matrix(1,0,0.384374,0.665756,104.001,-18.37)"/></g><g><path d="M227.68,158.076L202.347,158.076L177.014,175.729L202.347,175.729L227.68,158.076Z" style="fill:#000049;stroke:#000;stroke-width:.92px" transform="matrix(1,0,0.384374,0.665756,66.9062,5.13517)"/></g><g><path d="M227.68,158.076L202.347,158.076L177.014,175.729L202.347,175.729L227.68,158.076Z" style="fill:#0000db;stroke:#000;stroke-width:.92px" transform="matrix(1,0,0.384374,0.665756,141.097,-41.8752)"/></g><g><path d="M227.68,158.076L202.347,158.076L177.014,175.729L202.347,175.729L227.68,158.076Z" style="fill:#000024;stroke:#000;stroke-width:.92px" transform="matrix(1,0,0.384374,0.665756,48.3585,16.8878)"/></g><g><path d="M227.68,158.076L202.347,158.076L177.014,175.729L202.347,175.729L227.68,158.076Z" style="fill:#0000b6;stroke:#000;stroke-width:.92px" transform="matrix(1,0,0.384374,0.665756,122.549,-30.1226)"/></g><g><path d="M227.68,158.076L202.347,158.076L177.014,175.729L202.347,175.729L227.68,158.076Z" style="fill:#00006d;stroke:#000;stroke-width:.92px" transform="matrix(1,0,0.384374,0.665756,85.4538,-6.61743)"/></g><g><path d="M227.68,158.076L202.347,158.076L177.014,175.729L202.347,175.729L227.68,158.076Z" style="fill:#00f;stroke:#000;stroke-width:.92px" transform="matrix(1,0,0.384374,0.665756,159.644,-53.6278)"/></g><g><path d="M227.68,158.076L202.347,158.076L177.014,175.729L202.347,175.729L227.68,158.076Z" style="fill:#910000;stroke:#000;stroke-width:.92px" transform="matrix(1,0,0.384374,0.665756,131.143,28.6404)"/></g><g><path d="M227.68,158.076L202.347,158.076L177.014,175.729L202.347,175.729L227.68,158.076Z" style="fill:#910091;stroke:#000;stroke-width:.92px" transform="matrix(1,0,0.384374,0.665756,205.333,-18.37)"/></g><g><path d="M227.68,158.076L202.347,158.076L177.014,175.729L202.347,175.729L227.68,158.076Z" style="fill:#910048;stroke:#000;stroke-width:.92px" transform="matrix(1,0,0.384374,0.665756,168.238,5.13517)"/></g><g><path d="M227.68,158.076L202.347,158.076L177.014,175.729L202.347,175.729L227.68,158.076Z" style="fill:#9100da;stroke:#000;stroke-width:.92px" transform="matrix(1,0,0.384374,0.665756,242.429,-41.8752)"/></g><g><path d="M227.68,158.076L202.347,158.076L177.014,175.729L202.347,175.729L227.68,158.076Z" style="fill:#910024;stroke:#000;stroke-width:.92px" transform="matrix(1,0,0.384374,0.665756,149.691,16.8878)"/></g><g><path d="M227.68,158.076L202.347,158.076L177.014,175.729L202.347,175.729L227.68,158.076Z" style="fill:#9100b6;stroke:#000;stroke-width:.92px" transform="matrix(1,0,0.384374,0.665756,223.881,-30.1226)"/></g><g><path d="M227.68,158.076L202.347,158.076L177.014,175.729L202.347,175.729L227.68,158.076Z" style="fill:#91006d;stroke:#000;stroke-width:.92px" transform="matrix(1,0,0.384374,0.665756,186.786,-6.61743)"/></g><g><path d="M227.68,158.076L202.347,158.076L177.014,175.729L202.347,175.729L227.68,158.076Z" style="fill:#9100ff;stroke:#000;stroke-width:.92px" transform="matrix(1,0,0.384374,0.665756,260.976,-53.6278)"/></g><g><path d="M227.68,158.076L202.347,158.076L177.014,175.729L202.347,175.729L227.68,158.076Z" style="fill:#490000;stroke:#000;stroke-width:.92px" transform="matrix(1,0,0.384374,0.665756,80.4769,28.6404)"/></g><g><path d="M227.68,158.076L202.347,158.076L177.014,175.729L202.347,175.729L227.68,158.076Z" style="fill:#490091;stroke:#000;stroke-width:.92px" transform="matrix(1,0,0.384374,0.665756,154.667,-18.37)"/></g><g><path d="M227.68,158.076L202.347,158.076L177.014,175.729L202.347,175.729L227.68,158.076Z" style="fill:#480048;stroke:#000;stroke-width:.92px" transform="matrix(1,0,0.384374,0.665756,117.572,5.13517)"/></g><g><path d="M227.68,158.076L202.347,158.076L177.014,175.729L202.347,175.729L227.68,158.076Z" style="fill:#4900da;stroke:#000;stroke-width:.92px" transform="matrix(1,0,0.384374,0.665756,191.763,-41.8752)"/></g><g><path d="M227.68,158.076L202.347,158.076L177.014,175.729L202.347,175.729L227.68,158.076Z" style="fill:#490024;stroke:#000;stroke-width:.92px" transform="matrix(1,0,0.384374,0.665756,99.0245,16.8878)"/></g><g><path d="M227.68,158.076L202.347,158.076L177.014,175.729L202.347,175.729L227.68,158.076Z" style="fill:#4900b6;stroke:#000;stroke-width:.92px" transform="matrix(1,0,0.384374,0.665756,173.215,-30.1226)"/></g><g><path d="M227.68,158.076L202.347,158.076L177.014,175.729L202.347,175.729L227.68,158.076Z" style="fill:#49006d;stroke:#000;stroke-width:.92px" transform="matrix(1,0,0.384374,0.665756,136.12,-6.61743)"/></g><g><path d="M227.68,158.076L202.347,158.076L177.014,175.729L202.347,175.729L227.68,158.076Z" style="fill:#4900ff;stroke:#000;stroke-width:.92px" transform="matrix(1,0,0.384374,0.665756,210.31,-53.6278)"/></g><g><path d="M227.68,158.076L202.347,158.076L177.014,175.729L202.347,175.729L227.68,158.076Z" style="fill:#da0000;stroke:#000;stroke-width:.92px" transform="matrix(1,0,0.384374,0.665756,181.809,28.6404)"/></g><g><path d="M227.68,158.076L202.347,158.076L177.014,175.729L202.347,175.729L227.68,158.076Z" style="fill:#da0091;stroke:#000;stroke-width:.92px" transform="matrix(1,0,0.384374,0.665756,256,-18.37)"/></g><g><path d="M227.68,158.076L202.347,158.076L177.014,175.729L202.347,175.729L227.68,158.076Z" style="fill:#da0048;stroke:#000;stroke-width:.92px" transform="matrix(1,0,0.384374,0.665756,218.904,5.13517)"/></g><g><path d="M227.68,158.076L202.347,158.076L177.014,175.729L202.347,175.729L227.68,158.076Z" style="fill:#da00da;stroke:#000;stroke-width:.92px" transform="matrix(1,0,0.384374,0.665756,293.095,-41.8752)"/></g><g><path d="M227.68,158.076L202.347,158.076L177.014,175.729L202.347,175.729L227.68,158.076Z" style="fill:#da0024;stroke:#000;stroke-width:.92px" transform="matrix(1,0,0.384374,0.665756,200.357,16.8878)"/></g><g><path d="M227.68,158.076L202.347,158.076L177.014,175.729L202.347,175.729L227.68,158.076Z" style="fill:#da00b6;stroke:#000;stroke-width:.92px" transform="matrix(1,0,0.384374,0.665756,274.547,-30.1226)"/></g><g><path d="M227.68,158.076L202.347,158.076L177.014,175.729L202.347,175.729L227.68,158.076Z" style="fill:#da006d;stroke:#000;stroke-width:.92px" transform="matrix(1,0,0.384374,0.665756,237.452,-6.61743)"/></g><g><path d="M227.68,158.076L202.347,158.076L177.014,175.729L202.347,175.729L227.68,158.076Z" style="fill:#da00ff;stroke:#000;stroke-width:.92px" transform="matrix(1,0,0.384374,0.665756,311.642,-53.6278)"/></g><g><path d="M227.68,158.076L202.347,158.076L177.014,175.729L202.347,175.729L227.68,158.076Z" style="fill:#240000;stroke:#000;stroke-width:.92px" transform="matrix(1,0,0.384374,0.665756,55.1439,28.6404)"/></g><g><path d="M227.68,158.076L202.347,158.076L177.014,175.729L202.347,175.729L227.68,158.076Z" style="fill:#240091;stroke:#000;stroke-width:.92px" transform="matrix(1,0,0.384374,0.665756,129.334,-18.37)"/></g><g><path d="M227.68,158.076L202.347,158.076L177.014,175.729L202.347,175.729L227.68,158.076Z" style="fill:#240048;stroke:#000;stroke-width:.92px" transform="matrix(1,0,0.384374,0.665756,92.2392,5.13517)"/></g><g><path d="M227.68,158.076L202.347,158.076L177.014,175.729L202.347,175.729L227.68,158.076Z" style="fill:#2400da;stroke:#000;stroke-width:.92px" transform="matrix(1,0,0.384374,0.665756,166.43,-41.8752)"/></g><g><path d="M227.68,158.076L202.347,158.076L177.014,175.729L202.347,175.729L227.68,158.076Z" style="fill:#240024;stroke:#000;stroke-width:.92px" transform="matrix(1,0,0.384374,0.665756,73.6915,16.8878)"/></g><g><path d="M227.68,158.076L202.347,158.076L177.014,175.729L202.347,175.729L227.68,158.076Z" style="fill:#2400b6;stroke:#000;stroke-width:.92px" transform="matrix(1,0,0.384374,0.665756,147.882,-30.1226)"/></g><g><path d="M227.68,158.076L202.347,158.076L177.014,175.729L202.347,175.729L227.68,158.076Z" style="fill:#24006d;stroke:#000;stroke-width:.92px" transform="matrix(1,0,0.384374,0.665756,110.787,-6.61743)"/></g><g><path d="M227.68,158.076L202.347,158.076L177.014,175.729L202.347,175.729L227.68,158.076Z" style="fill:#2400ff;stroke:#000;stroke-width:.92px" transform="matrix(1,0,0.384374,0.665756,184.977,-53.6278)"/></g><g><path d="M227.68,158.076L202.347,158.076L177.014,175.729L202.347,175.729L227.68,158.076Z" style="fill:#b60000;stroke:#000;stroke-width:.92px" transform="matrix(1,0,0.384374,0.665756,156.476,28.6404)"/></g><g><path d="M227.68,158.076L202.347,158.076L177.014,175.729L202.347,175.729L227.68,158.076Z" style="fill:#b60091;stroke:#000;stroke-width:.92px" transform="matrix(1,0,0.384374,0.665756,230.666,-18.37)"/></g><g><path d="M227.68,158.076L202.347,158.076L177.014,175.729L202.347,175.729L227.68,158.076Z" style="fill:#b60048;stroke:#000;stroke-width:.92px" transform="matrix(1,0,0.384374,0.665756,193.571,5.13517)"/></g><g><path d="M227.68,158.076L202.347,158.076L177.014,175.729L202.347,175.729L227.68,158.076Z" style="fill:#b600da;stroke:#000;stroke-width:.92px" transform="matrix(1,0,0.384374,0.665756,267.762,-41.8752)"/></g><g><path d="M227.68,158.076L202.347,158.076L177.014,175.729L202.347,175.729L227.68,158.076Z" style="fill:#b60024;stroke:#000;stroke-width:.92px" transform="matrix(1,0,0.384374,0.665756,175.024,16.8878)"/></g><g><path d="M227.68,158.076L202.347,158.076L177.014,175.729L202.347,175.729L227.68,158.076Z" style="fill:#b600b7;stroke:#000;stroke-width:.92px" transform="matrix(1,0,0.384374,0.665756,249.214,-30.1226)"/></g><g><path d="M227.68,158.076L202.347,158.076L177.014,175.729L202.347,175.729L227.68,158.076Z" style="fill:#b6006d;stroke:#000;stroke-width:.92px" transform="matrix(1,0,0.384374,0.665756,212.119,-6.61743)"/></g><g><path d="M227.68,158.076L202.347,158.076L177.014,175.729L202.347,175.729L227.68,158.076Z" style="fill:#b600ff;stroke:#000;stroke-width:.92px" transform="matrix(1,0,0.384374,0.665756,286.309,-53.6278)"/></g><g><path d="M227.68,158.076L202.347,158.076L177.014,175.729L202.347,175.729L227.68,158.076Z" style="fill:#6d0000;stroke:#000;stroke-width:.92px" transform="matrix(1,0,0.384374,0.665756,105.81,28.6404)"/></g><g><path d="M227.68,158.076L202.347,158.076L177.014,175.729L202.347,175.729L227.68,158.076Z" style="fill:#6d0091;stroke:#000;stroke-width:.92px" transform="matrix(1,0,0.384374,0.665756,180,-18.37)"/></g><g><path d="M227.68,158.076L202.347,158.076L177.014,175.729L202.347,175.729L227.68,158.076Z" style="fill:#6d0048;stroke:#000;stroke-width:.92px" transform="matrix(1,0,0.384374,0.665756,142.905,5.13517)"/></g><g><path d="M227.68,158.076L202.347,158.076L177.014,175.729L202.347,175.729L227.68,158.076Z" style="fill:#6d00da;stroke:#000;stroke-width:.92px" transform="matrix(1,0,0.384374,0.665756,217.096,-41.8752)"/></g><g><path d="M227.68,158.076L202.347,158.076L177.014,175.729L202.347,175.729L227.68,158.076Z" style="fill:#6d0024;stroke:#000;stroke-width:.92px" transform="matrix(1,0,0.384374,0.665756,124.358,16.8878)"/></g><g><path d="M227.68,158.076L202.347,158.076L177.014,175.729L202.347,175.729L227.68,158.076Z" style="fill:#6d00b6;stroke:#000;stroke-width:.92px" transform="matrix(1,0,0.384374,0.665756,198.548,-30.1226)"/></g><g><path d="M227.68,158.076L202.347,158.076L177.014,175.729L202.347,175.729L227.68,158.076Z" style="fill:#6d006d;stroke:#000;stroke-width:.92px" transform="matrix(1,0,0.384374,0.665756,161.453,-6.61743)"/></g><g><path d="M227.68,158.076L202.347,158.076L177.014,175.729L202.347,175.729L227.68,158.076Z" style="fill:#6d00ff;stroke:#000;stroke-width:.92px" transform="matrix(1,0,0.384374,0.665756,235.643,-53.6278)"/></g><g><path d="M227.68,158.076L202.347,158.076L177.014,175.729L202.347,175.729L227.68,158.076Z" style="fill:#ff0d0d;stroke:#000;stroke-width:.92px" transform="matrix(1,0,0.384374,0.665756,207.142,28.6404)"/></g><g><path d="M227.68,158.076L202.347,158.076L177.014,175.729L202.347,175.729L227.68,158.076Z" style="fill:#ff0091;stroke:#000;stroke-width:.92px" transform="matrix(1,0,0.384374,0.665756,281.333,-18.37)"/></g><g><path d="M227.68,158.076L202.347,158.076L177.014,175.729L202.347,175.729L227.68,158.076Z" style="fill:#ff0048;stroke:#000;stroke-width:.92px" transform="matrix(1,0,0.384374,0.665756,244.237,5.13517)"/></g><g><path d="M227.68,158.076L202.347,158.076L177.014,175.729L202.347,175.729L227.68,158.076Z" style="fill:#ff00da;stroke:#000;stroke-width:.92px" transform="matrix(1,0,0.384374,0.665756,318.428,-41.8752)"/></g><g><path d="M227.68,158.076L202.347,158.076L177.014,175.729L202.347,175.729L227.68,158.076Z" style="fill:#ff0024;stroke:#000;stroke-width:.92px" transform="matrix(1,0,0.384374,0.665756,225.69,16.8878)"/></g><g><path d="M227.68,158.076L202.347,158.076L177.014,175.729L202.347,175.729L227.68,158.076Z" style="fill:#ff00b6;stroke:#000;stroke-width:.92px" transform="matrix(1,0,0.384374,0.665756,299.88,-30.1226)"/></g><g><path d="M227.68,158.076L202.347,158.076L177.014,175.729L202.347,175.729L227.68,158.076Z" style="fill:#ff006d;stroke:#000;stroke-width:.92px" transform="matrix(1,0,0.384374,0.665756,262.785,-6.61743)"/></g><g><path d="M227.68,158.076L202.347,158.076L177.014,175.729L202.347,175.729L227.68,158.076Z" style="fill:#f0f;stroke:#000;stroke-width:.92px" transform="matrix(1,0,0.384374,0.665756,336.975,-53.6278)"/></g><g><path d="M202.347,138.644L177.014,150.396L177.014,175.729L202.347,163.977L202.347,138.644Z" style="fill:red;stroke:#000;stroke-width:1.14px" transform="matrix(0.731033,0,0,1,348.29,-4.43825)"/></g><g><path d="M202.347,138.644L177.014,150.396L177.014,175.729L202.347,163.977L202.347,138.644Z" style="fill:#ff0091;stroke:#000;stroke-width:1.14px" transform="matrix(0.731033,0,0,1,422.282,-51.7595)"/></g><g><path d="M202.347,138.644L177.014,150.396L177.014,175.729L202.347,163.977L202.347,138.644Z" style="fill:#ff0048;stroke:#000;stroke-width:1.14px" transform="matrix(0.731033,0,0,1,385.328,-28.0428)"/></g><g><path d="M202.347,138.644L177.014,150.396L177.014,175.729L202.347,163.977L202.347,138.644Z" style="fill:#ff00da;stroke:#000;stroke-width:1.14px" transform="matrix(0.731033,0,0,1,459.187,-75.1028)"/></g><g><path d="M202.347,138.644L177.014,150.396L177.014,175.729L202.347,163.977L202.347,138.644Z" style="fill:#ff0024;stroke:#000;stroke-width:1.14px" transform="matrix(0.731033,0,0,1,366.809,-16.2902)"/></g><g><path d="M202.347,138.644L177.014,150.396L177.014,175.729L202.347,163.977L202.347,138.644Z" style="fill:#ff00b6;stroke:#000;stroke-width:1.14px" transform="matrix(0.731033,0,0,1,440.801,-63.5121)"/></g><g><path d="M202.347,138.644L177.014,150.396L177.014,175.729L202.347,163.977L202.347,138.644Z" style="fill:#ff006d;stroke:#000;stroke-width:1.14px" transform="matrix(0.731033,0,0,1,403.763,-39.9075)"/></g><g><path d="M202.347,138.644L177.014,150.396L177.014,175.729L202.347,163.977L202.347,138.644Z" style="fill:#f0f;stroke:#000;stroke-width:1.14px" transform="matrix(0.731033,0,0,1,477.707,-87.0314)"/></g><g><path d="M202.347,138.644L177.014,150.396L177.014,175.729L202.347,163.977L202.347,138.644Z" style="fill:#ff9100;stroke:#000;stroke-width:1.14px" transform="matrix(0.731033,0,0,1,348.29,96.4328)"/></g><g><path d="M202.347,138.644L177.014,150.396L177.014,175.729L202.347,163.977L202.347,138.644Z" style="fill:#ff9191;stroke:#000;stroke-width:1.14px" transform="matrix(0.731033,0,0,1,422.282,49.1116)"/></g><g><path d="M202.347,138.644L177.014,150.396L177.014,175.729L202.347,163.977L202.347,138.644Z" style="fill:#ff9148;stroke:#000;stroke-width:1.14px" transform="matrix(0.731033,0,0,1,385.328,72.8283)"/></g><g><path d="M202.347,138.644L177.014,150.396L177.014,175.729L202.347,163.977L202.347,138.644Z" style="fill:#ff91da;stroke:#000;stroke-width:1.14px" transform="matrix(0.731033,0,0,1,459.187,25.7683)"/></g><g><path d="M202.347,138.644L177.014,150.396L177.014,175.729L202.347,163.977L202.347,138.644Z" style="fill:#ff9124;stroke:#000;stroke-width:1.14px" transform="matrix(0.731033,0,0,1,366.809,84.5809)"/></g><g><path d="M202.347,138.644L177.014,150.396L177.014,175.729L202.347,163.977L202.347,138.644Z" style="fill:#ff91b6;stroke:#000;stroke-width:1.14px" transform="matrix(0.731033,0,0,1,440.801,37.359)"/></g><g><path d="M202.347,138.644L177.014,150.396L177.014,175.729L202.347,163.977L202.347,138.644Z" style="fill:#ff916d;stroke:#000;stroke-width:1.14px" transform="matrix(0.731033,0,0,1,403.763,60.9636)"/></g><g><path d="M202.347,138.644L177.014,150.396L177.014,175.729L202.347,163.977L202.347,138.644Z" style="fill:#ff91ff;stroke:#000;stroke-width:1.14px" transform="matrix(0.731033,0,0,1,477.707,13.8397)"/></g><g><path d="M202.347,138.644L177.014,150.396L177.014,175.729L202.347,163.977L202.347,138.644Z" style="fill:#ff4800;stroke:#000;stroke-width:1.14px" transform="matrix(0.731033,0,0,1,348.29,45.9094)"/></g><g><path d="M202.347,138.644L177.014,150.396L177.014,175.729L202.347,163.977L202.347,138.644Z" style="fill:#ff498e;stroke:#000;stroke-width:1.14px" transform="matrix(0.731033,0,0,1,422.282,-1.41182)"/></g><g><path d="M202.347,138.644L177.014,150.396L177.014,175.729L202.347,163.977L202.347,138.644Z" style="fill:#ff4848;stroke:#000;stroke-width:1.14px" transform="matrix(0.731033,0,0,1,385.328,22.3048)"/></g><g><path d="M202.347,138.644L177.014,150.396L177.014,175.729L202.347,163.977L202.347,138.644Z" style="fill:#ff49da;stroke:#000;stroke-width:1.14px" transform="matrix(0.731033,0,0,1,459.187,-24.7552)"/></g><g><path d="M202.347,138.644L177.014,150.396L177.014,175.729L202.347,163.977L202.347,138.644Z" style="fill:#ff4824;stroke:#000;stroke-width:1.14px" transform="matrix(0.731033,0,0,1,366.809,34.0574)"/></g><g><path d="M202.347,138.644L177.014,150.396L177.014,175.729L202.347,163.977L202.347,138.644Z" style="fill:#ff49b6;stroke:#000;stroke-width:1.14px" transform="matrix(0.731033,0,0,1,440.801,-13.1644)"/></g><g><path d="M202.347,138.644L177.014,150.396L177.014,175.729L202.347,163.977L202.347,138.644Z" style="fill:#ff496d;stroke:#000;stroke-width:1.14px" transform="matrix(0.731033,0,0,1,403.763,10.4402)"/></g><g><path d="M202.347,138.644L177.014,150.396L177.014,175.729L202.347,163.977L202.347,138.644Z" style="fill:#ff49ff;stroke:#000;stroke-width:1.14px" transform="matrix(0.731033,0,0,1,477.707,-36.6837)"/></g><g><path d="M202.347,138.644L177.014,150.396L177.014,175.729L202.347,163.977L202.347,138.644Z" style="fill:#ffda00;stroke:#000;stroke-width:1.14px" transform="matrix(0.731033,0,0,1,348.29,146.781)"/></g><g><path d="M202.347,138.644L177.014,150.396L177.014,175.729L202.347,163.977L202.347,138.644Z" style="fill:#ffda8e;stroke:#000;stroke-width:1.14px" transform="matrix(0.731033,0,0,1,422.282,99.4593)"/></g><g><path d="M202.347,138.644L177.014,150.396L177.014,175.729L202.347,163.977L202.347,138.644Z" style="fill:#ffda48;stroke:#000;stroke-width:1.14px" transform="matrix(0.731033,0,0,1,385.328,123.176)"/></g><g><path d="M202.347,138.644L177.014,150.396L177.014,175.729L202.347,163.977L202.347,138.644Z" style="fill:#ffdbdb;stroke:#000;stroke-width:1.14px" transform="matrix(0.731033,0,0,1,459.187,76.1159)"/></g><g><path d="M202.347,138.644L177.014,150.396L177.014,175.729L202.347,163.977L202.347,138.644Z" style="fill:#ffda24;stroke:#000;stroke-width:1.14px" transform="matrix(0.731033,0,0,1,366.809,134.929)"/></g><g><path d="M202.347,138.644L177.014,150.396L177.014,175.729L202.347,163.977L202.347,138.644Z" style="fill:#ffdab6;stroke:#000;stroke-width:1.14px" transform="matrix(0.731033,0,0,1,440.801,87.7067)"/></g><g><path d="M202.347,138.644L177.014,150.396L177.014,175.729L202.347,163.977L202.347,138.644Z" style="fill:#ffda6d;stroke:#000;stroke-width:1.14px" transform="matrix(0.731033,0,0,1,403.763,111.311)"/></g><g><path d="M202.347,138.644L177.014,150.396L177.014,175.729L202.347,163.977L202.347,138.644Z" style="fill:#ffdaff;stroke:#000;stroke-width:1.14px" transform="matrix(0.731033,0,0,1,477.707,64.1874)"/></g><g><path d="M202.347,138.644L177.014,150.396L177.014,175.729L202.347,163.977L202.347,138.644Z" style="fill:#ff2400;stroke:#000;stroke-width:1.14px" transform="matrix(0.731033,0,0,1,348.29,20.6946)"/></g><g><path d="M202.347,138.644L177.014,150.396L177.014,175.729L202.347,163.977L202.347,138.644Z" style="fill:#ff248e;stroke:#000;stroke-width:1.14px" transform="matrix(0.731033,0,0,1,422.282,-26.6267)"/></g><g><path d="M202.347,138.644L177.014,150.396L177.014,175.729L202.347,163.977L202.347,138.644Z" style="fill:#ff2448;stroke:#000;stroke-width:1.14px" transform="matrix(0.731033,0,0,1,385.328,-2.91002)"/></g><g><path d="M202.347,138.644L177.014,150.396L177.014,175.729L202.347,163.977L202.347,138.644Z" style="fill:#ff24da;stroke:#000;stroke-width:1.14px" transform="matrix(0.731033,0,0,1,459.187,-49.97)"/></g><g><path d="M202.347,138.644L177.014,150.396L177.014,175.729L202.347,163.977L202.347,138.644Z" style="fill:#ff2424;stroke:#000;stroke-width:1.14px" transform="matrix(0.731033,0,0,1,366.809,8.84258)"/></g><g><path d="M202.347,138.644L177.014,150.396L177.014,175.729L202.347,163.977L202.347,138.644Z" style="fill:#ff24b6;stroke:#000;stroke-width:1.14px" transform="matrix(0.731033,0,0,1,440.801,-38.3793)"/></g><g><path d="M202.347,138.644L177.014,150.396L177.014,175.729L202.347,163.977L202.347,138.644Z" style="fill:#ff246d;stroke:#000;stroke-width:1.14px" transform="matrix(0.731033,0,0,1,403.763,-14.7747)"/></g><g><path d="M202.347,138.644L177.014,150.396L177.014,175.729L202.347,163.977L202.347,138.644Z" style="fill:#ff24ff;stroke:#000;stroke-width:1.14px" transform="matrix(0.731033,0,0,1,477.707,-61.8986)"/></g><g><path d="M202.347,138.644L177.014,150.396L177.014,175.729L202.347,163.977L202.347,138.644Z" style="fill:#ffb600;stroke:#000;stroke-width:1.14px" transform="matrix(0.731033,0,0,1,348.29,121.566)"/></g><g><path d="M202.347,138.644L177.014,150.396L177.014,175.729L202.347,163.977L202.347,138.644Z" style="fill:#ffb68e;stroke:#000;stroke-width:1.14px" transform="matrix(0.731033,0,0,1,422.282,74.2444)"/></g><g><path d="M202.347,138.644L177.014,150.396L177.014,175.729L202.347,163.977L202.347,138.644Z" style="fill:#ffb648;stroke:#000;stroke-width:1.14px" transform="matrix(0.731033,0,0,1,385.328,97.9611)"/></g><g><path d="M202.347,138.644L177.014,150.396L177.014,175.729L202.347,163.977L202.347,138.644Z" style="fill:#ffb6da;stroke:#000;stroke-width:1.14px" transform="matrix(0.731033,0,0,1,459.187,50.9011)"/></g><g><path d="M202.347,138.644L177.014,150.396L177.014,175.729L202.347,163.977L202.347,138.644Z" style="fill:#ffb624;stroke:#000;stroke-width:1.14px" transform="matrix(0.731033,0,0,1,366.809,109.714)"/></g><g><path d="M202.347,138.644L177.014,150.396L177.014,175.729L202.347,163.977L202.347,138.644Z" style="fill:#ffb6b6;stroke:#000;stroke-width:1.14px" transform="matrix(0.731033,0,0,1,440.801,62.4918)"/></g><g><path d="M202.347,138.644L177.014,150.396L177.014,175.729L202.347,163.977L202.347,138.644Z" style="fill:#ffb66d;stroke:#000;stroke-width:1.14px" transform="matrix(0.731033,0,0,1,403.763,86.0964)"/></g><g><path d="M202.347,138.644L177.014,150.396L177.014,175.729L202.347,163.977L202.347,138.644Z" style="fill:#ffb6ff;stroke:#000;stroke-width:1.14px" transform="matrix(0.731033,0,0,1,477.707,38.9725)"/></g><g><path d="M202.347,138.644L177.014,150.396L177.014,175.729L202.347,163.977L202.347,138.644Z" style="fill:#ff6d00;stroke:#000;stroke-width:1.14px" transform="matrix(0.731033,0,0,1,348.29,71.0422)"/></g><g><path d="M202.347,138.644L177.014,150.396L177.014,175.729L202.347,163.977L202.347,138.644Z" style="fill:#ff6d8e;stroke:#000;stroke-width:1.14px" transform="matrix(0.731033,0,0,1,422.282,23.721)"/></g><g><path d="M202.347,138.644L177.014,150.396L177.014,175.729L202.347,163.977L202.347,138.644Z" style="fill:#ff6d48;stroke:#000;stroke-width:1.14px" transform="matrix(0.731033,0,0,1,385.328,47.4376)"/></g><g><path d="M202.347,138.644L177.014,150.396L177.014,175.729L202.347,163.977L202.347,138.644Z" style="fill:#ff6dda;stroke:#000;stroke-width:1.14px" transform="matrix(0.731033,0,0,1,459.187,0.377653)"/></g><g><path d="M202.347,138.644L177.014,150.396L177.014,175.729L202.347,163.977L202.347,138.644Z" style="fill:#ff6d24;stroke:#000;stroke-width:1.14px" transform="matrix(0.731033,0,0,1,366.809,59.1902)"/></g><g><path d="M202.347,138.644L177.014,150.396L177.014,175.729L202.347,163.977L202.347,138.644Z" style="fill:#ff6db6;stroke:#000;stroke-width:1.14px" transform="matrix(0.731033,0,0,1,440.801,11.9684)"/></g><g><path d="M202.347,138.644L177.014,150.396L177.014,175.729L202.347,163.977L202.347,138.644Z" style="fill:#ff6d6d;stroke:#000;stroke-width:1.14px" transform="matrix(0.731033,0,0,1,403.763,35.573)"/></g><g><path d="M202.347,138.644L177.014,150.396L177.014,175.729L202.347,163.977L202.347,138.644Z" style="fill:#ff6dff;stroke:#000;stroke-width:1.14px" transform="matrix(0.731033,0,0,1,477.707,-11.5509)"/></g><g><path d="M202.347,138.644L177.014,150.396L177.014,175.729L202.347,163.977L202.347,138.644Z" style="fill:#ff0;stroke:#000;stroke-width:1.14px" transform="matrix(0.731033,0,0,1,348.29,171.913)"/></g><g><path d="M202.347,138.644L177.014,150.396L177.014,175.729L202.347,163.977L202.347,138.644Z" style="fill:#ffff91;stroke:#000;stroke-width:1.14px" transform="matrix(0.731033,0,0,1,422.282,124.592)"/></g><g><path d="M202.347,138.644L177.014,150.396L177.014,175.729L202.347,163.977L202.347,138.644Z" style="fill:#ffff49;stroke:#000;stroke-width:1.14px" transform="matrix(0.731033,0,0,1,385.328,148.309)"/></g><g><path d="M202.347,138.644L177.014,150.396L177.014,175.729L202.347,163.977L202.347,138.644Z" style="fill:#ffffda;stroke:#000;stroke-width:1.14px" transform="matrix(0.731033,0,0,1,459.187,101.249)"/></g><g><path d="M202.347,138.644L177.014,150.396L177.014,175.729L202.347,163.977L202.347,138.644Z" style="fill:#ffff24;stroke:#000;stroke-width:1.14px" transform="matrix(0.731033,0,0,1,366.809,160.061)"/></g><g><path d="M202.347,138.644L177.014,150.396L177.014,175.729L202.347,163.977L202.347,138.644Z" style="fill:#ffffb6;stroke:#000;stroke-width:1.14px" transform="matrix(0.731033,0,0,1,440.801,112.839)"/></g><g><path d="M202.347,138.644L177.014,150.396L177.014,175.729L202.347,163.977L202.347,138.644Z" style="fill:#ffff6d;stroke:#000;stroke-width:1.14px" transform="matrix(0.731033,0,0,1,403.763,136.444)"/></g><g><path d="M202.347,138.644L177.014,150.396L177.014,175.729L202.347,163.977L202.347,138.644Z" style="fill:#fff;stroke:#000;stroke-width:1.14px" transform="matrix(0.731033,0,0,1,477.707,89.3202)"/></g></g><path id="Effect00-hue" d="M422.752,51.612L274.371,145.724L274.371,348.388L477.638,348.388L625.629,253.297L625.629,51.612L422.752,51.612Z" style="fill:#fb7900"/><g id="Front-Arrows"><g><g id="Arrow01-Input"><g><path d="M156.668,262.889L144.955,402.713" style="fill:none;stroke:#000;stroke-width:.99px" transform="matrix(-0.00725653,-0.999974,0.999974,-0.00725653,-129.6,385.888) matrix(1,0,0,1.0209,0,-5.49553)"/></g><g><path d="M80.439,171.077L85.905,190.975L74.974,190.975L80.439,171.077Z" transform="matrix(-0.00725653,-0.999974,0.999974,-0.00725653,-129.6,385.888) matrix(-0.993977,-0.109589,0.109589,-0.993977,204.051,594.659)"/></g></g><g id="Arrow01-Output"><g><path d="M141.452,344.114L211.962,814.451" style="fill:none;stroke:#000;stroke-width:1px" transform="matrix(0.0870807,-0.984992,0.984992,0.0870807,-57.429,349.296) matrix(1,0,0,1.0209,0,-5.49553)"/></g><g><path d="M80.439,171.077L85.905,190.975L74.974,190.975L80.439,171.077Z" transform="matrix(0.0870807,-0.984992,0.984992,0.0870807,-57.429,349.296) matrix(-0.991923,0.126838,-0.126838,-0.991923,313.621,989.726)"/></g></g><g id="Arrow02-Input"><g><path d="M162.241,236.283L143.059,415.107" style="fill:none;stroke:#000;stroke-width:.99px" transform="matrix(-0.394342,-0.918964,0.918964,-0.394342,-20.7391,483.782) matrix(1,0,0,1.0209,0,-5.49553)"/></g><g><path d="M80.439,171.077L85.905,190.975L74.974,190.975L80.439,171.077Z" transform="matrix(-0.394342,-0.918964,0.918964,-0.394342,-20.7391,483.782) matrix(-0.993977,-0.109589,0.109589,-0.993977,204.018,599.15)"/></g></g><g id="Arrow02-Output"><g><path d="M142.892,347.83L207.757,796.402" style="fill:none;stroke:#000;stroke-width:1px" transform="matrix(0.257817,-0.954632,0.954632,0.257817,-51.8064,233.413) matrix(1,0,0,1.0209,0,-5.49553)"/></g><g><path d="M80.439,171.077L85.905,190.975L74.974,190.975L80.439,171.077Z" transform="matrix(0.257817,-0.954632,0.954632,0.257817,-51.8064,233.413) matrix(-0.991523,0.129928,-0.129928,-0.991523,310.206,970.847)"/></g></g><g id="Arrow03-Input"><g><path d="M156.668,262.889L39.944,690.63" style="fill:none;stroke:#000;stroke-width:.99px" transform="matrix(-0.00725653,-0.999974,0.999974,-0.00725653,-180.334,350.514) matrix(1,0,0,1.0209,0,-5.49553)"/></g><g><path d="M80.439,171.077L85.905,190.975L74.974,190.975L80.439,171.077Z" transform="matrix(-0.00725653,-0.999974,0.999974,-0.00725653,-180.334,350.514) matrix(-0.974209,-0.225649,0.225649,-0.974209,78.8227,890.255)"/></g></g><g id="Arrow03-Output"><g><path d="M142.034,343.466L164.18,564.489" style="fill:none;stroke:#000;stroke-width:1px" transform="matrix(-0.406151,-0.901573,0.901573,-0.406151,276.05,570.518) matrix(1,0,0,1.0209,0,-5.49553)"/></g><g><path d="M80.439,171.077L85.905,190.975L74.974,190.975L80.439,171.077Z" transform="matrix(-0.406151,-0.901573,0.901573,-0.406151,276.05,570.518) matrix(-0.991523,0.129928,-0.129928,-0.991523,266.695,733.716)"/></g></g><g id="Arrow04-Input"><g><path d="M141.551,340.405L159.904,522.89" style="fill:none;stroke:#000;stroke-width:1px" transform="matrix(-0.185534,-0.971272,0.971272,-0.185534,-126.766,464.83) matrix(1,0,0,1.0209,0,-5.49553)"/></g><g><path d="M80.439,171.077L85.905,190.975L74.974,190.975L80.439,171.077Z" transform="matrix(-0.185534,-0.971272,0.971272,-0.185534,-126.766,464.83) matrix(-0.991523,0.129928,-0.129928,-0.991523,262.914,693.466)"/></g></g><g id="Arrow04-Output"><g><g><path d="M147.166,344.75L179.991,672.129" style="fill:none;stroke:#000;stroke-width:1px" transform="matrix(0.257817,-0.954632,0.954632,0.257817,1.31472,260.221) matrix(1,0,0,1.0209,-3.55271e-15,-5.49553)"/></g><g><path d="M80.439,171.077L85.905,190.975L74.974,190.975L80.439,171.077Z" transform="matrix(0.257817,-0.954632,0.954632,0.257817,1.31472,260.221) matrix(-0.991523,0.129928,-0.129928,-0.991523,283.185,845.353)"/></g></g></g></g></g></svg>