<svg xmlns="http://www.w3.org/2000/svg" xmlns:xlink="http://www.w3.org/1999/xlink" width="100%" height="100%" version="1.1" viewBox="0 0 500 400" xml:space="preserve" style="fill-rule:evenodd;clip-rule:evenodd;stroke-linecap:round;stroke-linejoin:round;stroke-miterlimit:1.5"><g transform="matrix(1,0,0,1,-69.0012,-4.67287)"><rect width="25.333" height="25.333" x="177.014" y="150.396" style="stroke:#000;stroke-width:1px"/></g><g transform="matrix(1,0,0,1,-69.0012,96.6592)"><rect width="25.333" height="25.333" x="177.014" y="150.396" style="fill:#009200;stroke:#000;stroke-width:1px"/></g><g transform="matrix(1,0,0,1,-69.0012,45.9931)"><rect width="25.333" height="25.333" x="177.014" y="150.396" style="fill:#004900;stroke:#000;stroke-width:1px"/></g><g transform="matrix(1,0,0,1,-69.0012,147.325)"><rect width="25.333" height="25.333" x="177.014" y="150.396" style="fill:#00db00;stroke:#000;stroke-width:1px"/></g><g transform="matrix(1,0,0,1,-69.0012,20.6601)"><rect width="25.333" height="25.333" x="177.014" y="150.396" style="fill:#002400;stroke:#000;stroke-width:1px"/></g><g transform="matrix(1,0,0,1,-69.0012,121.992)"><rect width="25.333" height="25.333" x="177.014" y="150.396" style="fill:#00b600;stroke:#000;stroke-width:1px"/></g><g transform="matrix(1,0,0,1,-69.0012,71.3262)"><rect width="25.333" height="25.333" x="177.014" y="150.396" style="fill:#006d00;stroke:#000;stroke-width:1px"/></g><g transform="matrix(1,0,0,1,-69.0012,172.658)"><rect width="25.333" height="25.333" x="177.014" y="150.396" style="fill:#0f0;stroke:#000;stroke-width:1px"/></g><g transform="matrix(1,0,0,1,32.3308,-4.67287)"><rect width="25.333" height="25.333" x="177.014" y="150.396" style="fill:#910000;stroke:#000;stroke-width:1px"/></g><g transform="matrix(1,0,0,1,32.3308,96.6592)"><rect width="25.333" height="25.333" x="177.014" y="150.396" style="fill:#919100;stroke:#000;stroke-width:1px"/></g><g transform="matrix(1,0,0,1,32.3308,45.9931)"><rect width="25.333" height="25.333" x="177.014" y="150.396" style="fill:#914800;stroke:#000;stroke-width:1px"/></g><g transform="matrix(1,0,0,1,32.3308,147.325)"><rect width="25.333" height="25.333" x="177.014" y="150.396" style="fill:#91da00;stroke:#000;stroke-width:1px"/></g><g transform="matrix(1,0,0,1,32.3308,20.6601)"><rect width="25.333" height="25.333" x="177.014" y="150.396" style="fill:#8e2400;stroke:#000;stroke-width:1px"/></g><g transform="matrix(1,0,0,1,32.3308,121.992)"><rect width="25.333" height="25.333" x="177.014" y="150.396" style="fill:#91b600;stroke:#000;stroke-width:1px"/></g><g transform="matrix(1,0,0,1,32.3308,71.3262)"><rect width="25.333" height="25.333" x="177.014" y="150.396" style="fill:#916d00;stroke:#000;stroke-width:1px"/></g><g transform="matrix(1,0,0,1,32.3308,172.658)"><rect width="25.333" height="25.333" x="177.014" y="150.396" style="fill:#91ff00;stroke:#000;stroke-width:1px"/></g><g transform="matrix(1,0,0,1,-18.3352,-4.67287)"><rect width="25.333" height="25.333" x="177.014" y="150.396" style="fill:#490000;stroke:#000;stroke-width:1px"/></g><g transform="matrix(1,0,0,1,-18.3352,96.6592)"><rect width="25.333" height="25.333" x="177.014" y="150.396" style="fill:#489100;stroke:#000;stroke-width:1px"/></g><g transform="matrix(1,0,0,1,-18.3352,45.9931)"><rect width="25.333" height="25.333" x="177.014" y="150.396" style="fill:#494900;stroke:#000;stroke-width:1px"/></g><g transform="matrix(1,0,0,1,-18.3352,147.325)"><rect width="25.333" height="25.333" x="177.014" y="150.396" style="fill:#49da00;stroke:#000;stroke-width:1px"/></g><g transform="matrix(1,0,0,1,-18.3352,20.6601)"><rect width="25.333" height="25.333" x="177.014" y="150.396" style="fill:#482400;stroke:#000;stroke-width:1px"/></g><g transform="matrix(1,0,0,1,-18.3352,121.992)"><rect width="25.333" height="25.333" x="177.014" y="150.396" style="fill:#49b600;stroke:#000;stroke-width:1px"/></g><g transform="matrix(1,0,0,1,-18.3352,71.3262)"><rect width="25.333" height="25.333" x="177.014" y="150.396" style="fill:#486d00;stroke:#000;stroke-width:1px"/></g><g transform="matrix(1,0,0,1,-18.3352,172.658)"><rect width="25.333" height="25.333" x="177.014" y="150.396" style="fill:#49ff00;stroke:#000;stroke-width:1px"/></g><g transform="matrix(1,0,0,1,82.9969,-4.67287)"><rect width="25.333" height="25.333" x="177.014" y="150.396" style="fill:#da0000;stroke:#000;stroke-width:1px"/></g><g transform="matrix(1,0,0,1,82.9969,96.6592)"><rect width="25.333" height="25.333" x="177.014" y="150.396" style="fill:#db9100;stroke:#000;stroke-width:1px"/></g><g transform="matrix(1,0,0,1,82.9969,45.9931)"><rect width="25.333" height="25.333" x="177.014" y="150.396" style="fill:#db4800;stroke:#000;stroke-width:1px"/></g><g transform="matrix(1,0,0,1,82.9969,147.325)"><rect width="25.333" height="25.333" x="177.014" y="150.396" style="fill:#dada00;stroke:#000;stroke-width:1px"/></g><g transform="matrix(1,0,0,1,82.9969,20.6601)"><rect width="25.333" height="25.333" x="177.014" y="150.396" style="fill:#db2400;stroke:#000;stroke-width:1px"/></g><g transform="matrix(1,0,0,1,82.9969,121.992)"><rect width="25.333" height="25.333" x="177.014" y="150.396" style="fill:#dab600;stroke:#000;stroke-width:1px"/></g><g transform="matrix(1,0,0,1,82.9969,71.3262)"><rect width="25.333" height="25.333" x="177.014" y="150.396" style="fill:#da6d00;stroke:#000;stroke-width:1px"/></g><g transform="matrix(1,0,0,1,82.9969,172.658)"><rect width="25.333" height="25.333" x="177.014" y="150.396" style="fill:#daff00;stroke:#000;stroke-width:1px"/></g><g transform="matrix(1,0,0,1,-43.6682,-4.67287)"><rect width="25.333" height="25.333" x="177.014" y="150.396" style="fill:#240000;stroke:#000;stroke-width:1px"/></g><g transform="matrix(1,0,0,1,-43.6682,96.6592)"><rect width="25.333" height="25.333" x="177.014" y="150.396" style="fill:#249100;stroke:#000;stroke-width:1px"/></g><g transform="matrix(1,0,0,1,-43.6682,45.9931)"><rect width="25.333" height="25.333" x="177.014" y="150.396" style="fill:#244800;stroke:#000;stroke-width:1px"/></g><g transform="matrix(1,0,0,1,-43.6682,147.325)"><rect width="25.333" height="25.333" x="177.014" y="150.396" style="fill:#24da00;stroke:#000;stroke-width:1px"/></g><g transform="matrix(1,0,0,1,-43.6682,20.6601)"><rect width="25.333" height="25.333" x="177.014" y="150.396" style="fill:#242400;stroke:#000;stroke-width:1px"/></g><g transform="matrix(1,0,0,1,-43.6682,121.992)"><rect width="25.333" height="25.333" x="177.014" y="150.396" style="fill:#24b600;stroke:#000;stroke-width:1px"/></g><g transform="matrix(1,0,0,1,-43.6682,71.3262)"><rect width="25.333" height="25.333" x="177.014" y="150.396" style="fill:#246d00;stroke:#000;stroke-width:1px"/></g><g transform="matrix(1,0,0,1,-43.6682,172.658)"><rect width="25.333" height="25.333" x="177.014" y="150.396" style="fill:#24ff00;stroke:#000;stroke-width:1px"/></g><g transform="matrix(1,0,0,1,57.6638,-4.67287)"><rect width="25.333" height="25.333" x="177.014" y="150.396" style="fill:#b60000;stroke:#000;stroke-width:1px"/></g><g transform="matrix(1,0,0,1,57.6638,96.6592)"><rect width="25.333" height="25.333" x="177.014" y="150.396" style="fill:#b69100;stroke:#000;stroke-width:1px"/></g><g transform="matrix(1,0,0,1,57.6638,45.9931)"><rect width="25.333" height="25.333" x="177.014" y="150.396" style="fill:#c04800;stroke:#000;stroke-width:1px"/></g><g transform="matrix(1,0,0,1,57.6638,147.325)"><rect width="25.333" height="25.333" x="177.014" y="150.396" style="fill:#b6da00;stroke:#000;stroke-width:1px"/></g><g transform="matrix(1,0,0,1,57.6638,20.6601)"><rect width="25.333" height="25.333" x="177.014" y="150.396" style="fill:#b62400;stroke:#000;stroke-width:1px"/></g><g transform="matrix(1,0,0,1,57.6638,121.992)"><rect width="25.333" height="25.333" x="177.014" y="150.396" style="fill:#b6b600;stroke:#000;stroke-width:1px"/></g><g transform="matrix(1,0,0,1,57.6638,71.3262)"><rect width="25.333" height="25.333" x="177.014" y="150.396" style="fill:#b66d00;stroke:#000;stroke-width:1px"/></g><g transform="matrix(1,0,0,1,57.6638,172.658)"><rect width="25.333" height="25.333" x="177.014" y="150.396" style="fill:#b6ff00;stroke:#000;stroke-width:1px"/></g><g transform="matrix(1,0,0,1,6.99782,-4.67287)"><rect width="25.333" height="25.333" x="177.014" y="150.396" style="fill:#6d0000;stroke:#000;stroke-width:1px"/></g><g transform="matrix(1,0,0,1,6.99782,96.6592)"><rect width="25.333" height="25.333" x="177.014" y="150.396" style="fill:#6d9100;stroke:#000;stroke-width:1px"/></g><g transform="matrix(1,0,0,1,6.99782,45.9931)"><rect width="25.333" height="25.333" x="177.014" y="150.396" style="fill:#6d4800;stroke:#000;stroke-width:1px"/></g><g transform="matrix(1,0,0,1,6.99782,147.325)"><rect width="25.333" height="25.333" x="177.014" y="150.396" style="fill:#6dda00;stroke:#000;stroke-width:1px"/></g><g transform="matrix(1,0,0,1,6.99782,20.6601)"><rect width="25.333" height="25.333" x="177.014" y="150.396" style="fill:#6d2400;stroke:#000;stroke-width:1px"/></g><g transform="matrix(1,0,0,1,6.99782,121.992)"><rect width="25.333" height="25.333" x="177.014" y="150.396" style="fill:#6db600;stroke:#000;stroke-width:1px"/></g><g transform="matrix(1,0,0,1,6.99782,71.3262)"><rect width="25.333" height="25.333" x="177.014" y="150.396" style="fill:#6d6d00;stroke:#000;stroke-width:1px"/></g><g transform="matrix(1,0,0,1,6.99782,172.658)"><rect width="25.333" height="25.333" x="177.014" y="150.396" style="fill:#6dff00;stroke:#000;stroke-width:1px"/></g><g transform="matrix(1,0,0,1,108.33,-4.67287)"><rect width="25.333" height="25.333" x="177.014" y="150.396" style="fill:#ff000d;stroke:#000;stroke-width:1px"/></g><g transform="matrix(1,0,0,1,108.33,96.6592)"><rect width="25.333" height="25.333" x="177.014" y="150.396" style="fill:#ff9100;stroke:#000;stroke-width:1px"/></g><g transform="matrix(1,0,0,1,108.33,45.9931)"><rect width="25.333" height="25.333" x="177.014" y="150.396" style="fill:#ff4800;stroke:#000;stroke-width:1px"/></g><g transform="matrix(1,0,0,1,108.33,147.325)"><rect width="25.333" height="25.333" x="177.014" y="150.396" style="fill:#ffda00;stroke:#000;stroke-width:1px"/></g><g transform="matrix(1,0,0,1,108.33,20.6601)"><rect width="25.333" height="25.333" x="177.014" y="150.396" style="fill:#ff2400;stroke:#000;stroke-width:1px"/></g><g transform="matrix(1,0,0,1,108.33,121.992)"><rect width="25.333" height="25.333" x="177.014" y="150.396" style="fill:#ffb600;stroke:#000;stroke-width:1px"/></g><g transform="matrix(1,0,0,1,108.33,71.3262)"><rect width="25.333" height="25.333" x="177.014" y="150.396" style="fill:#ff6d00;stroke:#000;stroke-width:1px"/></g><g transform="matrix(1,0,0,1,108.33,172.658)"><rect width="25.333" height="25.333" x="177.014" y="150.396" style="fill:#ff0;stroke:#000;stroke-width:1px"/></g><g><path d="M227.68,158.076L202.347,158.076L177.014,175.729L202.347,175.729L227.68,158.076Z" style="stroke:#000;stroke-width:.92px" transform="matrix(1,0,0.384374,0.665756,-137.15,28.6404)"/></g><g><path d="M227.68,158.076L202.347,158.076L177.014,175.729L202.347,175.729L227.68,158.076Z" style="fill:#000092;stroke:#000;stroke-width:.92px" transform="matrix(1,0,0.384374,0.665756,-62.9593,-18.37)"/></g><g><path d="M227.68,158.076L202.347,158.076L177.014,175.729L202.347,175.729L227.68,158.076Z" style="fill:#000049;stroke:#000;stroke-width:.92px" transform="matrix(1,0,0.384374,0.665756,-100.055,5.13517)"/></g><g><path d="M227.68,158.076L202.347,158.076L177.014,175.729L202.347,175.729L227.68,158.076Z" style="fill:#0000db;stroke:#000;stroke-width:.92px" transform="matrix(1,0,0.384374,0.665756,-25.864,-41.8752)"/></g><g><path d="M227.68,158.076L202.347,158.076L177.014,175.729L202.347,175.729L227.68,158.076Z" style="fill:#000024;stroke:#000;stroke-width:.92px" transform="matrix(1,0,0.384374,0.665756,-118.602,16.8878)"/></g><g><path d="M227.68,158.076L202.347,158.076L177.014,175.729L202.347,175.729L227.68,158.076Z" style="fill:#0000b6;stroke:#000;stroke-width:.92px" transform="matrix(1,0,0.384374,0.665756,-44.4116,-30.1226)"/></g><g><path d="M227.68,158.076L202.347,158.076L177.014,175.729L202.347,175.729L227.68,158.076Z" style="fill:#00006d;stroke:#000;stroke-width:.92px" transform="matrix(1,0,0.384374,0.665756,-81.5069,-6.61743)"/></g><g><path d="M227.68,158.076L202.347,158.076L177.014,175.729L202.347,175.729L227.68,158.076Z" style="fill:#00f;stroke:#000;stroke-width:.92px" transform="matrix(1,0,0.384374,0.665756,-7.31635,-53.6278)"/></g><g><path d="M227.68,158.076L202.347,158.076L177.014,175.729L202.347,175.729L227.68,158.076Z" style="fill:#910000;stroke:#000;stroke-width:.92px" transform="matrix(1,0,0.384374,0.665756,-35.8178,28.6404)"/></g><g><path d="M227.68,158.076L202.347,158.076L177.014,175.729L202.347,175.729L227.68,158.076Z" style="fill:#910091;stroke:#000;stroke-width:.92px" transform="matrix(1,0,0.384374,0.665756,38.3728,-18.37)"/></g><g><path d="M227.68,158.076L202.347,158.076L177.014,175.729L202.347,175.729L227.68,158.076Z" style="fill:#910048;stroke:#000;stroke-width:.92px" transform="matrix(1,0,0.384374,0.665756,1.27747,5.13517)"/></g><g><path d="M227.68,158.076L202.347,158.076L177.014,175.729L202.347,175.729L227.68,158.076Z" style="fill:#9100da;stroke:#000;stroke-width:.92px" transform="matrix(1,0,0.384374,0.665756,75.4681,-41.8752)"/></g><g><path d="M227.68,158.076L202.347,158.076L177.014,175.729L202.347,175.729L227.68,158.076Z" style="fill:#910024;stroke:#000;stroke-width:.92px" transform="matrix(1,0,0.384374,0.665756,-17.2702,16.8878)"/></g><g><path d="M227.68,158.076L202.347,158.076L177.014,175.729L202.347,175.729L227.68,158.076Z" style="fill:#9100b6;stroke:#000;stroke-width:.92px" transform="matrix(1,0,0.384374,0.665756,56.9204,-30.1226)"/></g><g><path d="M227.68,158.076L202.347,158.076L177.014,175.729L202.347,175.729L227.68,158.076Z" style="fill:#91006d;stroke:#000;stroke-width:.92px" transform="matrix(1,0,0.384374,0.665756,19.8251,-6.61743)"/></g><g><path d="M227.68,158.076L202.347,158.076L177.014,175.729L202.347,175.729L227.68,158.076Z" style="fill:#9100ff;stroke:#000;stroke-width:.92px" transform="matrix(1,0,0.384374,0.665756,94.0157,-53.6278)"/></g><g><path d="M227.68,158.076L202.347,158.076L177.014,175.729L202.347,175.729L227.68,158.076Z" style="fill:#490000;stroke:#000;stroke-width:.92px" transform="matrix(1,0,0.384374,0.665756,-86.4838,28.6404)"/></g><g><path d="M227.68,158.076L202.347,158.076L177.014,175.729L202.347,175.729L227.68,158.076Z" style="fill:#490091;stroke:#000;stroke-width:.92px" transform="matrix(1,0,0.384374,0.665756,-12.2933,-18.37)"/></g><g><path d="M227.68,158.076L202.347,158.076L177.014,175.729L202.347,175.729L227.68,158.076Z" style="fill:#480048;stroke:#000;stroke-width:.92px" transform="matrix(1,0,0.384374,0.665756,-49.3885,5.13517)"/></g><g><path d="M227.68,158.076L202.347,158.076L177.014,175.729L202.347,175.729L227.68,158.076Z" style="fill:#4900da;stroke:#000;stroke-width:.92px" transform="matrix(1,0,0.384374,0.665756,24.802,-41.8752)"/></g><g><path d="M227.68,158.076L202.347,158.076L177.014,175.729L202.347,175.729L227.68,158.076Z" style="fill:#490024;stroke:#000;stroke-width:.92px" transform="matrix(1,0,0.384374,0.665756,-67.9362,16.8878)"/></g><g><path d="M227.68,158.076L202.347,158.076L177.014,175.729L202.347,175.729L227.68,158.076Z" style="fill:#4900b6;stroke:#000;stroke-width:.92px" transform="matrix(1,0,0.384374,0.665756,6.25439,-30.1226)"/></g><g><path d="M227.68,158.076L202.347,158.076L177.014,175.729L202.347,175.729L227.68,158.076Z" style="fill:#49006d;stroke:#000;stroke-width:.92px" transform="matrix(1,0,0.384374,0.665756,-30.8409,-6.61743)"/></g><g><path d="M227.68,158.076L202.347,158.076L177.014,175.729L202.347,175.729L227.68,158.076Z" style="fill:#4900ff;stroke:#000;stroke-width:.92px" transform="matrix(1,0,0.384374,0.665756,43.3497,-53.6278)"/></g><g><path d="M227.68,158.076L202.347,158.076L177.014,175.729L202.347,175.729L227.68,158.076Z" style="fill:#da0000;stroke:#000;stroke-width:.92px" transform="matrix(1,0,0.384374,0.665756,14.8482,28.6404)"/></g><g><path d="M227.68,158.076L202.347,158.076L177.014,175.729L202.347,175.729L227.68,158.076Z" style="fill:#da0091;stroke:#000;stroke-width:.92px" transform="matrix(1,0,0.384374,0.665756,89.0388,-18.37)"/></g><g><path d="M227.68,158.076L202.347,158.076L177.014,175.729L202.347,175.729L227.68,158.076Z" style="fill:#da0048;stroke:#000;stroke-width:.92px" transform="matrix(1,0,0.384374,0.665756,51.9435,5.13517)"/></g><g><path d="M227.68,158.076L202.347,158.076L177.014,175.729L202.347,175.729L227.68,158.076Z" style="fill:#da00da;stroke:#000;stroke-width:.92px" transform="matrix(1,0,0.384374,0.665756,126.134,-41.8752)"/></g><g><path d="M227.68,158.076L202.347,158.076L177.014,175.729L202.347,175.729L227.68,158.076Z" style="fill:#da0024;stroke:#000;stroke-width:.92px" transform="matrix(1,0,0.384374,0.665756,33.3958,16.8878)"/></g><g><path d="M227.68,158.076L202.347,158.076L177.014,175.729L202.347,175.729L227.68,158.076Z" style="fill:#da00b6;stroke:#000;stroke-width:.92px" transform="matrix(1,0,0.384374,0.665756,107.586,-30.1226)"/></g><g><path d="M227.68,158.076L202.347,158.076L177.014,175.729L202.347,175.729L227.68,158.076Z" style="fill:#da006d;stroke:#000;stroke-width:.92px" transform="matrix(1,0,0.384374,0.665756,70.4911,-6.61743)"/></g><g><path d="M227.68,158.076L202.347,158.076L177.014,175.729L202.347,175.729L227.68,158.076Z" style="fill:#da00ff;stroke:#000;stroke-width:.92px" transform="matrix(1,0,0.384374,0.665756,144.682,-53.6278)"/></g><g><path d="M227.68,158.076L202.347,158.076L177.014,175.729L202.347,175.729L227.68,158.076Z" style="fill:#240000;stroke:#000;stroke-width:.92px" transform="matrix(1,0,0.384374,0.665756,-111.817,28.6404)"/></g><g><path d="M227.68,158.076L202.347,158.076L177.014,175.729L202.347,175.729L227.68,158.076Z" style="fill:#240091;stroke:#000;stroke-width:.92px" transform="matrix(1,0,0.384374,0.665756,-37.6263,-18.37)"/></g><g><path d="M227.68,158.076L202.347,158.076L177.014,175.729L202.347,175.729L227.68,158.076Z" style="fill:#240048;stroke:#000;stroke-width:.92px" transform="matrix(1,0,0.384374,0.665756,-74.7216,5.13517)"/></g><g><path d="M227.68,158.076L202.347,158.076L177.014,175.729L202.347,175.729L227.68,158.076Z" style="fill:#2400da;stroke:#000;stroke-width:.92px" transform="matrix(1,0,0.384374,0.665756,-0.53098,-41.8752)"/></g><g><path d="M227.68,158.076L202.347,158.076L177.014,175.729L202.347,175.729L227.68,158.076Z" style="fill:#240024;stroke:#000;stroke-width:.92px" transform="matrix(1,0,0.384374,0.665756,-93.2692,16.8878)"/></g><g><path d="M227.68,158.076L202.347,158.076L177.014,175.729L202.347,175.729L227.68,158.076Z" style="fill:#2400b6;stroke:#000;stroke-width:.92px" transform="matrix(1,0,0.384374,0.665756,-19.0786,-30.1226)"/></g><g><path d="M227.68,158.076L202.347,158.076L177.014,175.729L202.347,175.729L227.68,158.076Z" style="fill:#24006d;stroke:#000;stroke-width:.92px" transform="matrix(1,0,0.384374,0.665756,-56.1739,-6.61743)"/></g><g><path d="M227.68,158.076L202.347,158.076L177.014,175.729L202.347,175.729L227.68,158.076Z" style="fill:#2400ff;stroke:#000;stroke-width:.92px" transform="matrix(1,0,0.384374,0.665756,18.0167,-53.6278)"/></g><g><path d="M227.68,158.076L202.347,158.076L177.014,175.729L202.347,175.729L227.68,158.076Z" style="fill:#b60000;stroke:#000;stroke-width:.92px" transform="matrix(1,0,0.384374,0.665756,-10.4848,28.6404)"/></g><g><path d="M227.68,158.076L202.347,158.076L177.014,175.729L202.347,175.729L227.68,158.076Z" style="fill:#b60091;stroke:#000;stroke-width:.92px" transform="matrix(1,0,0.384374,0.665756,63.7058,-18.37)"/></g><g><path d="M227.68,158.076L202.347,158.076L177.014,175.729L202.347,175.729L227.68,158.076Z" style="fill:#b60048;stroke:#000;stroke-width:.92px" transform="matrix(1,0,0.384374,0.665756,26.6105,5.13517)"/></g><g><path d="M227.68,158.076L202.347,158.076L177.014,175.729L202.347,175.729L227.68,158.076Z" style="fill:#b600da;stroke:#000;stroke-width:.92px" transform="matrix(1,0,0.384374,0.665756,100.801,-41.8752)"/></g><g><path d="M227.68,158.076L202.347,158.076L177.014,175.729L202.347,175.729L227.68,158.076Z" style="fill:#b60024;stroke:#000;stroke-width:.92px" transform="matrix(1,0,0.384374,0.665756,8.06284,16.8878)"/></g><g><path d="M227.68,158.076L202.347,158.076L177.014,175.729L202.347,175.729L227.68,158.076Z" style="fill:#b600b7;stroke:#000;stroke-width:.92px" transform="matrix(1,0,0.384374,0.665756,82.2534,-30.1226)"/></g><g><path d="M227.68,158.076L202.347,158.076L177.014,175.729L202.347,175.729L227.68,158.076Z" style="fill:#b6006d;stroke:#000;stroke-width:.92px" transform="matrix(1,0,0.384374,0.665756,45.1581,-6.61743)"/></g><g><path d="M227.68,158.076L202.347,158.076L177.014,175.729L202.347,175.729L227.68,158.076Z" style="fill:#b600ff;stroke:#000;stroke-width:.92px" transform="matrix(1,0,0.384374,0.665756,119.349,-53.6278)"/></g><g><path d="M227.68,158.076L202.347,158.076L177.014,175.729L202.347,175.729L227.68,158.076Z" style="fill:#6d0000;stroke:#000;stroke-width:.92px" transform="matrix(1,0,0.384374,0.665756,-61.1508,28.6404)"/></g><g><path d="M227.68,158.076L202.347,158.076L177.014,175.729L202.347,175.729L227.68,158.076Z" style="fill:#6d0091;stroke:#000;stroke-width:.92px" transform="matrix(1,0,0.384374,0.665756,13.0398,-18.37)"/></g><g><path d="M227.68,158.076L202.347,158.076L177.014,175.729L202.347,175.729L227.68,158.076Z" style="fill:#6d0048;stroke:#000;stroke-width:.92px" transform="matrix(1,0,0.384374,0.665756,-24.0555,5.13517)"/></g><g><path d="M227.68,158.076L202.347,158.076L177.014,175.729L202.347,175.729L227.68,158.076Z" style="fill:#6d00da;stroke:#000;stroke-width:.92px" transform="matrix(1,0,0.384374,0.665756,50.135,-41.8752)"/></g><g><path d="M227.68,158.076L202.347,158.076L177.014,175.729L202.347,175.729L227.68,158.076Z" style="fill:#6d0024;stroke:#000;stroke-width:.92px" transform="matrix(1,0,0.384374,0.665756,-42.6032,16.8878)"/></g><g><path d="M227.68,158.076L202.347,158.076L177.014,175.729L202.347,175.729L227.68,158.076Z" style="fill:#6d00b6;stroke:#000;stroke-width:.92px" transform="matrix(1,0,0.384374,0.665756,31.5874,-30.1226)"/></g><g><path d="M227.68,158.076L202.347,158.076L177.014,175.729L202.347,175.729L227.68,158.076Z" style="fill:#6d006d;stroke:#000;stroke-width:.92px" transform="matrix(1,0,0.384374,0.665756,-5.50789,-6.61743)"/></g><g><path d="M227.68,158.076L202.347,158.076L177.014,175.729L202.347,175.729L227.68,158.076Z" style="fill:#6d00ff;stroke:#000;stroke-width:.92px" transform="matrix(1,0,0.384374,0.665756,68.6827,-53.6278)"/></g><g><path d="M227.68,158.076L202.347,158.076L177.014,175.729L202.347,175.729L227.68,158.076Z" style="fill:#ff0d0d;stroke:#000;stroke-width:.92px" transform="matrix(1,0,0.384374,0.665756,40.1812,28.6404)"/></g><g><path d="M227.68,158.076L202.347,158.076L177.014,175.729L202.347,175.729L227.68,158.076Z" style="fill:#ff0091;stroke:#000;stroke-width:.92px" transform="matrix(1,0,0.384374,0.665756,114.372,-18.37)"/></g><g><path d="M227.68,158.076L202.347,158.076L177.014,175.729L202.347,175.729L227.68,158.076Z" style="fill:#ff0048;stroke:#000;stroke-width:.92px" transform="matrix(1,0,0.384374,0.665756,77.2765,5.13517)"/></g><g><path d="M227.68,158.076L202.347,158.076L177.014,175.729L202.347,175.729L227.68,158.076Z" style="fill:#ff00da;stroke:#000;stroke-width:.92px" transform="matrix(1,0,0.384374,0.665756,151.467,-41.8752)"/></g><g><path d="M227.68,158.076L202.347,158.076L177.014,175.729L202.347,175.729L227.68,158.076Z" style="fill:#ff0024;stroke:#000;stroke-width:.92px" transform="matrix(1,0,0.384374,0.665756,58.7289,16.8878)"/></g><g><path d="M227.68,158.076L202.347,158.076L177.014,175.729L202.347,175.729L227.68,158.076Z" style="fill:#ff00b6;stroke:#000;stroke-width:.92px" transform="matrix(1,0,0.384374,0.665756,132.919,-30.1226)"/></g><g><path d="M227.68,158.076L202.347,158.076L177.014,175.729L202.347,175.729L227.68,158.076Z" style="fill:#ff006d;stroke:#000;stroke-width:.92px" transform="matrix(1,0,0.384374,0.665756,95.8241,-6.61743)"/></g><g><path d="M227.68,158.076L202.347,158.076L177.014,175.729L202.347,175.729L227.68,158.076Z" style="fill:#f0f;stroke:#000;stroke-width:.92px" transform="matrix(1,0,0.384374,0.665756,170.015,-53.6278)"/></g><g><path d="M202.347,138.644L177.014,150.396L177.014,175.729L202.347,163.977L202.347,138.644Z" style="fill:red;stroke:#000;stroke-width:1.14px" transform="matrix(0.731033,0,0,1,181.329,-4.43825)"/></g><g><path d="M202.347,138.644L177.014,150.396L177.014,175.729L202.347,163.977L202.347,138.644Z" style="fill:#ff0091;stroke:#000;stroke-width:1.14px" transform="matrix(0.731033,0,0,1,255.321,-51.7595)"/></g><g><path d="M202.347,138.644L177.014,150.396L177.014,175.729L202.347,163.977L202.347,138.644Z" style="fill:#ff0048;stroke:#000;stroke-width:1.14px" transform="matrix(0.731033,0,0,1,218.368,-28.0428)"/></g><g><path d="M202.347,138.644L177.014,150.396L177.014,175.729L202.347,163.977L202.347,138.644Z" style="fill:#ff00da;stroke:#000;stroke-width:1.14px" transform="matrix(0.731033,0,0,1,292.227,-75.1028)"/></g><g><path d="M202.347,138.644L177.014,150.396L177.014,175.729L202.347,163.977L202.347,138.644Z" style="fill:#ff0024;stroke:#000;stroke-width:1.14px" transform="matrix(0.731033,0,0,1,199.848,-16.2902)"/></g><g><path d="M202.347,138.644L177.014,150.396L177.014,175.729L202.347,163.977L202.347,138.644Z" style="fill:#ff00b6;stroke:#000;stroke-width:1.14px" transform="matrix(0.731033,0,0,1,273.841,-63.5121)"/></g><g><path d="M202.347,138.644L177.014,150.396L177.014,175.729L202.347,163.977L202.347,138.644Z" style="fill:#ff006d;stroke:#000;stroke-width:1.14px" transform="matrix(0.731033,0,0,1,236.802,-39.9075)"/></g><g><path d="M202.347,138.644L177.014,150.396L177.014,175.729L202.347,163.977L202.347,138.644Z" style="fill:#f0f;stroke:#000;stroke-width:1.14px" transform="matrix(0.731033,0,0,1,310.746,-87.0314)"/></g><g><path d="M202.347,138.644L177.014,150.396L177.014,175.729L202.347,163.977L202.347,138.644Z" style="fill:#ff9100;stroke:#000;stroke-width:1.14px" transform="matrix(0.731033,0,0,1,181.329,96.4328)"/></g><g><path d="M202.347,138.644L177.014,150.396L177.014,175.729L202.347,163.977L202.347,138.644Z" style="fill:#ff9191;stroke:#000;stroke-width:1.14px" transform="matrix(0.731033,0,0,1,255.321,49.1116)"/></g><g><path d="M202.347,138.644L177.014,150.396L177.014,175.729L202.347,163.977L202.347,138.644Z" style="fill:#ff9148;stroke:#000;stroke-width:1.14px" transform="matrix(0.731033,0,0,1,218.368,72.8283)"/></g><g><path d="M202.347,138.644L177.014,150.396L177.014,175.729L202.347,163.977L202.347,138.644Z" style="fill:#ff91da;stroke:#000;stroke-width:1.14px" transform="matrix(0.731033,0,0,1,292.227,25.7683)"/></g><g><path d="M202.347,138.644L177.014,150.396L177.014,175.729L202.347,163.977L202.347,138.644Z" style="fill:#ff9124;stroke:#000;stroke-width:1.14px" transform="matrix(0.731033,0,0,1,199.848,84.5809)"/></g><g><path d="M202.347,138.644L177.014,150.396L177.014,175.729L202.347,163.977L202.347,138.644Z" style="fill:#ff91b6;stroke:#000;stroke-width:1.14px" transform="matrix(0.731033,0,0,1,273.841,37.359)"/></g><g><path d="M202.347,138.644L177.014,150.396L177.014,175.729L202.347,163.977L202.347,138.644Z" style="fill:#ff916d;stroke:#000;stroke-width:1.14px" transform="matrix(0.731033,0,0,1,236.802,60.9636)"/></g><g><path d="M202.347,138.644L177.014,150.396L177.014,175.729L202.347,163.977L202.347,138.644Z" style="fill:#ff91ff;stroke:#000;stroke-width:1.14px" transform="matrix(0.731033,0,0,1,310.746,13.8397)"/></g><g><path d="M202.347,138.644L177.014,150.396L177.014,175.729L202.347,163.977L202.347,138.644Z" style="fill:#ff4800;stroke:#000;stroke-width:1.14px" transform="matrix(0.731033,0,0,1,181.329,45.9094)"/></g><g><path d="M202.347,138.644L177.014,150.396L177.014,175.729L202.347,163.977L202.347,138.644Z" style="fill:#ff498e;stroke:#000;stroke-width:1.14px" transform="matrix(0.731033,0,0,1,255.321,-1.41182)"/></g><g><path d="M202.347,138.644L177.014,150.396L177.014,175.729L202.347,163.977L202.347,138.644Z" style="fill:#ff4848;stroke:#000;stroke-width:1.14px" transform="matrix(0.731033,0,0,1,218.368,22.3048)"/></g><g><path d="M202.347,138.644L177.014,150.396L177.014,175.729L202.347,163.977L202.347,138.644Z" style="fill:#ff49da;stroke:#000;stroke-width:1.14px" transform="matrix(0.731033,0,0,1,292.227,-24.7552)"/></g><g><path d="M202.347,138.644L177.014,150.396L177.014,175.729L202.347,163.977L202.347,138.644Z" style="fill:#ff4824;stroke:#000;stroke-width:1.14px" transform="matrix(0.731033,0,0,1,199.848,34.0574)"/></g><g><path d="M202.347,138.644L177.014,150.396L177.014,175.729L202.347,163.977L202.347,138.644Z" style="fill:#ff49b6;stroke:#000;stroke-width:1.14px" transform="matrix(0.731033,0,0,1,273.841,-13.1644)"/></g><g><path d="M202.347,138.644L177.014,150.396L177.014,175.729L202.347,163.977L202.347,138.644Z" style="fill:#ff496d;stroke:#000;stroke-width:1.14px" transform="matrix(0.731033,0,0,1,236.802,10.4402)"/></g><g><path d="M202.347,138.644L177.014,150.396L177.014,175.729L202.347,163.977L202.347,138.644Z" style="fill:#ff49ff;stroke:#000;stroke-width:1.14px" transform="matrix(0.731033,0,0,1,310.746,-36.6837)"/></g><g><path d="M202.347,138.644L177.014,150.396L177.014,175.729L202.347,163.977L202.347,138.644Z" style="fill:#ffda00;stroke:#000;stroke-width:1.14px" transform="matrix(0.731033,0,0,1,181.329,146.781)"/></g><g><path d="M202.347,138.644L177.014,150.396L177.014,175.729L202.347,163.977L202.347,138.644Z" style="fill:#ffda8e;stroke:#000;stroke-width:1.14px" transform="matrix(0.731033,0,0,1,255.321,99.4593)"/></g><g><path d="M202.347,138.644L177.014,150.396L177.014,175.729L202.347,163.977L202.347,138.644Z" style="fill:#ffda48;stroke:#000;stroke-width:1.14px" transform="matrix(0.731033,0,0,1,218.368,123.176)"/></g><g><path d="M202.347,138.644L177.014,150.396L177.014,175.729L202.347,163.977L202.347,138.644Z" style="fill:#ffdbdb;stroke:#000;stroke-width:1.14px" transform="matrix(0.731033,0,0,1,292.227,76.1159)"/></g><g><path d="M202.347,138.644L177.014,150.396L177.014,175.729L202.347,163.977L202.347,138.644Z" style="fill:#ffda24;stroke:#000;stroke-width:1.14px" transform="matrix(0.731033,0,0,1,199.848,134.929)"/></g><g><path d="M202.347,138.644L177.014,150.396L177.014,175.729L202.347,163.977L202.347,138.644Z" style="fill:#ffdab6;stroke:#000;stroke-width:1.14px" transform="matrix(0.731033,0,0,1,273.841,87.7067)"/></g><g><path d="M202.347,138.644L177.014,150.396L177.014,175.729L202.347,163.977L202.347,138.644Z" style="fill:#ffda6d;stroke:#000;stroke-width:1.14px" transform="matrix(0.731033,0,0,1,236.802,111.311)"/></g><g><path d="M202.347,138.644L177.014,150.396L177.014,175.729L202.347,163.977L202.347,138.644Z" style="fill:#ffdaff;stroke:#000;stroke-width:1.14px" transform="matrix(0.731033,0,0,1,310.746,64.1874)"/></g><g><path d="M202.347,138.644L177.014,150.396L177.014,175.729L202.347,163.977L202.347,138.644Z" style="fill:#ff2400;stroke:#000;stroke-width:1.14px" transform="matrix(0.731033,0,0,1,181.329,20.6946)"/></g><g><path d="M202.347,138.644L177.014,150.396L177.014,175.729L202.347,163.977L202.347,138.644Z" style="fill:#ff248e;stroke:#000;stroke-width:1.14px" transform="matrix(0.731033,0,0,1,255.321,-26.6267)"/></g><g><path d="M202.347,138.644L177.014,150.396L177.014,175.729L202.347,163.977L202.347,138.644Z" style="fill:#ff2448;stroke:#000;stroke-width:1.14px" transform="matrix(0.731033,0,0,1,218.368,-2.91002)"/></g><g><path d="M202.347,138.644L177.014,150.396L177.014,175.729L202.347,163.977L202.347,138.644Z" style="fill:#ff24da;stroke:#000;stroke-width:1.14px" transform="matrix(0.731033,0,0,1,292.227,-49.97)"/></g><g><path d="M202.347,138.644L177.014,150.396L177.014,175.729L202.347,163.977L202.347,138.644Z" style="fill:#ff2424;stroke:#000;stroke-width:1.14px" transform="matrix(0.731033,0,0,1,199.848,8.84258)"/></g><g><path d="M202.347,138.644L177.014,150.396L177.014,175.729L202.347,163.977L202.347,138.644Z" style="fill:#ff24b6;stroke:#000;stroke-width:1.14px" transform="matrix(0.731033,0,0,1,273.841,-38.3793)"/></g><g><path d="M202.347,138.644L177.014,150.396L177.014,175.729L202.347,163.977L202.347,138.644Z" style="fill:#ff246d;stroke:#000;stroke-width:1.14px" transform="matrix(0.731033,0,0,1,236.802,-14.7747)"/></g><g><path d="M202.347,138.644L177.014,150.396L177.014,175.729L202.347,163.977L202.347,138.644Z" style="fill:#ff24ff;stroke:#000;stroke-width:1.14px" transform="matrix(0.731033,0,0,1,310.746,-61.8986)"/></g><g><path d="M202.347,138.644L177.014,150.396L177.014,175.729L202.347,163.977L202.347,138.644Z" style="fill:#ffb600;stroke:#000;stroke-width:1.14px" transform="matrix(0.731033,0,0,1,181.329,121.566)"/></g><g><path d="M202.347,138.644L177.014,150.396L177.014,175.729L202.347,163.977L202.347,138.644Z" style="fill:#ffb68e;stroke:#000;stroke-width:1.14px" transform="matrix(0.731033,0,0,1,255.321,74.2444)"/></g><g><path d="M202.347,138.644L177.014,150.396L177.014,175.729L202.347,163.977L202.347,138.644Z" style="fill:#ffb648;stroke:#000;stroke-width:1.14px" transform="matrix(0.731033,0,0,1,218.368,97.9611)"/></g><g><path d="M202.347,138.644L177.014,150.396L177.014,175.729L202.347,163.977L202.347,138.644Z" style="fill:#ffb6da;stroke:#000;stroke-width:1.14px" transform="matrix(0.731033,0,0,1,292.227,50.9011)"/></g><g><path d="M202.347,138.644L177.014,150.396L177.014,175.729L202.347,163.977L202.347,138.644Z" style="fill:#ffb624;stroke:#000;stroke-width:1.14px" transform="matrix(0.731033,0,0,1,199.848,109.714)"/></g><g><path d="M202.347,138.644L177.014,150.396L177.014,175.729L202.347,163.977L202.347,138.644Z" style="fill:#ffb6b6;stroke:#000;stroke-width:1.14px" transform="matrix(0.731033,0,0,1,273.841,62.4918)"/></g><g><path d="M202.347,138.644L177.014,150.396L177.014,175.729L202.347,163.977L202.347,138.644Z" style="fill:#ffb66d;stroke:#000;stroke-width:1.14px" transform="matrix(0.731033,0,0,1,236.802,86.0964)"/></g><g><path d="M202.347,138.644L177.014,150.396L177.014,175.729L202.347,163.977L202.347,138.644Z" style="fill:#ffb6ff;stroke:#000;stroke-width:1.14px" transform="matrix(0.731033,0,0,1,310.746,38.9725)"/></g><g><path d="M202.347,138.644L177.014,150.396L177.014,175.729L202.347,163.977L202.347,138.644Z" style="fill:#ff6d00;stroke:#000;stroke-width:1.14px" transform="matrix(0.731033,0,0,1,181.329,71.0422)"/></g><g><path d="M202.347,138.644L177.014,150.396L177.014,175.729L202.347,163.977L202.347,138.644Z" style="fill:#ff6d8e;stroke:#000;stroke-width:1.14px" transform="matrix(0.731033,0,0,1,255.321,23.721)"/></g><g><path d="M202.347,138.644L177.014,150.396L177.014,175.729L202.347,163.977L202.347,138.644Z" style="fill:#ff6d48;stroke:#000;stroke-width:1.14px" transform="matrix(0.731033,0,0,1,218.368,47.4376)"/></g><g><path d="M202.347,138.644L177.014,150.396L177.014,175.729L202.347,163.977L202.347,138.644Z" style="fill:#ff6dda;stroke:#000;stroke-width:1.14px" transform="matrix(0.731033,0,0,1,292.227,0.377653)"/></g><g><path d="M202.347,138.644L177.014,150.396L177.014,175.729L202.347,163.977L202.347,138.644Z" style="fill:#ff6d24;stroke:#000;stroke-width:1.14px" transform="matrix(0.731033,0,0,1,199.848,59.1902)"/></g><g><path d="M202.347,138.644L177.014,150.396L177.014,175.729L202.347,163.977L202.347,138.644Z" style="fill:#ff6db6;stroke:#000;stroke-width:1.14px" transform="matrix(0.731033,0,0,1,273.841,11.9684)"/></g><g><path d="M202.347,138.644L177.014,150.396L177.014,175.729L202.347,163.977L202.347,138.644Z" style="fill:#ff6d6d;stroke:#000;stroke-width:1.14px" transform="matrix(0.731033,0,0,1,236.802,35.573)"/></g><g><path d="M202.347,138.644L177.014,150.396L177.014,175.729L202.347,163.977L202.347,138.644Z" style="fill:#ff6dff;stroke:#000;stroke-width:1.14px" transform="matrix(0.731033,0,0,1,310.746,-11.5509)"/></g><g><path d="M202.347,138.644L177.014,150.396L177.014,175.729L202.347,163.977L202.347,138.644Z" style="fill:#ff0;stroke:#000;stroke-width:1.14px" transform="matrix(0.731033,0,0,1,181.329,171.913)"/></g><g><path d="M202.347,138.644L177.014,150.396L177.014,175.729L202.347,163.977L202.347,138.644Z" style="fill:#ffff91;stroke:#000;stroke-width:1.14px" transform="matrix(0.731033,0,0,1,255.321,124.592)"/></g><g><path d="M202.347,138.644L177.014,150.396L177.014,175.729L202.347,163.977L202.347,138.644Z" style="fill:#ffff49;stroke:#000;stroke-width:1.14px" transform="matrix(0.731033,0,0,1,218.368,148.309)"/></g><g><path d="M202.347,138.644L177.014,150.396L177.014,175.729L202.347,163.977L202.347,138.644Z" style="fill:#ffffda;stroke:#000;stroke-width:1.14px" transform="matrix(0.731033,0,0,1,292.227,101.249)"/></g><g><path d="M202.347,138.644L177.014,150.396L177.014,175.729L202.347,163.977L202.347,138.644Z" style="fill:#ffff24;stroke:#000;stroke-width:1.14px" transform="matrix(0.731033,0,0,1,199.848,160.061)"/></g><g><path d="M202.347,138.644L177.014,150.396L177.014,175.729L202.347,163.977L202.347,138.644Z" style="fill:#ffffb6;stroke:#000;stroke-width:1.14px" transform="matrix(0.731033,0,0,1,273.841,112.839)"/></g><g><path d="M202.347,138.644L177.014,150.396L177.014,175.729L202.347,163.977L202.347,138.644Z" style="fill:#ffff6d;stroke:#000;stroke-width:1.14px" transform="matrix(0.731033,0,0,1,236.802,136.444)"/></g><g><path d="M202.347,138.644L177.014,150.396L177.014,175.729L202.347,163.977L202.347,138.644Z" style="fill:#fff;stroke:#000;stroke-width:1.14px" transform="matrix(0.731033,0,0,1,310.746,89.3202)"/></g><g id="axes"><g><g><path d="M74.974,153.919L74.974,93.741" style="fill:none;stroke:#000;stroke-width:1px" transform="matrix(1,0,0,1,0,-50) matrix(6.12323e-17,-1,1,6.12323e-17,-52.4094,270.607)"/></g><g><path d="M74.974,153.919L74.974,93.741" style="fill:none;stroke:#000;stroke-width:1px" transform="matrix(1,0,0,1,0,-50) matrix(0,-1,1,0,-52.4094,473.361)"/></g><g><path d="M80.439,171.077L85.905,190.975L74.974,190.975L80.439,171.077Z" style="fill:#0f0" transform="matrix(1,0,0,1,0,-50) matrix(-1,-1.22465e-16,1.22465e-16,-1,151.86,569.465)"/></g><g><path d="M80.439,171.077L85.905,190.975L74.974,190.975L80.439,171.077Z" style="fill:#0f0" transform="matrix(1,0,0,1,0,-50) matrix(1,0,0,1,-9.01877,24.5561)"/></g><g><path d="M94.871,123.83L257.74,123.83" style="fill:none;stroke:#0f0;stroke-width:.99px" transform="matrix(1,0,0,1,0,-50) matrix(6.21256e-17,-1.01459,1,6.12323e-17,-52.4094,477.765)"/></g></g><g><g><path d="M80.439,171.077L85.905,190.975L74.974,190.975L80.439,171.077Z" style="fill:#0d28f2" transform="matrix(1,0,0,1,0,-50) matrix(0.547017,0.837121,-0.837121,0.547017,240.244,-7.07818) matrix(-1,-1.22465e-16,1.22465e-16,-1,157.286,422.965)"/></g><g><path d="M80.439,171.077L85.905,190.975L74.974,190.975L80.439,171.077Z" style="fill:#0d28f2" transform="matrix(1,0,0,1,0,-50) matrix(0.547017,0.837121,-0.837121,0.547017,240.244,-7.07818) matrix(1,0,0,1,-4.41699,-88.72)"/></g><g><path d="M94.871,123.83L257.74,123.83" style="fill:none;stroke:#0d28f2;stroke-width:1.1px" transform="matrix(1,0,0,1,0,-50) matrix(0.547017,0.837121,-0.837121,0.547017,240.244,-7.07818) matrix(6.41412e-17,-0.795906,1.01308,1.05301e-16,-49.3679,307.392)"/></g><g><path d="M74.974,153.919L74.974,93.741" style="fill:none;stroke:#000;stroke-width:1px" transform="matrix(1,0,0,1,0,-50) matrix(0.547017,0.837121,-0.837121,0.547017,240.244,-7.07818) matrix(-0.837121,-0.547017,0.547017,-0.837121,67.9116,231.828)"/></g></g><g><g><path d="M74.974,153.919L74.974,93.741" style="fill:none;stroke:#fff;stroke-opacity:.54902;stroke-width:8.33px" transform="matrix(1,0,0,1,0,-50) matrix(1,0,0,1,33.0393,0) matrix(1,0,0,1,0,30.6692)"/></g><g><path d="M74.974,153.919L74.974,93.741" style="fill:none;stroke:#fff;stroke-opacity:.54902;stroke-width:8.33px" transform="matrix(1,0,0,1,0,-50) matrix(1,0,0,1,33.0393,0) matrix(1,0,0,1,202.664,30.6692)"/></g><g><path d="M80.439,171.077L85.905,190.975L74.974,190.975L80.439,171.077Z" style="fill:#f20d0d;stroke:#fff;stroke-opacity:.54902;stroke-width:8.33px" transform="matrix(1,0,0,1,0,-50) matrix(1,0,0,1,33.0393,0) matrix(6.12323e-17,-1,1,6.12323e-17,-96.1034,234.938)"/></g><g><path d="M80.439,171.077L85.905,190.975L74.974,190.975L80.439,171.077Z" style="fill:#f20d0d;stroke:#fff;stroke-opacity:.54902;stroke-width:8.33px" transform="matrix(1,0,0,1,0,-50) matrix(1,0,0,1,33.0393,0) matrix(6.12323e-17,1,-1,6.12323e-17,448.715,74.0599)"/></g><g><path d="M94.871,123.83L257.74,123.83" style="fill:none;stroke:#fff;stroke-opacity:.54902;stroke-width:8.33px" transform="matrix(1,0,0,1,0,-50) matrix(1,0,0,1,33.0393,0) matrix(1,0,0,1,0,30.6692)"/></g></g><g><g><path d="M74.974,153.919L74.974,93.741" style="fill:none;stroke:#fff;stroke-width:3.75px" transform="matrix(1,0,0,1,0,-50) matrix(1,0,0,1,33.0393,0) matrix(1,0,0,1,0,30.6692)"/></g><g><path d="M74.974,153.919L74.974,93.741" style="fill:none;stroke:#fff;stroke-width:3.75px" transform="matrix(1,0,0,1,0,-50) matrix(1,0,0,1,33.0393,0) matrix(1,0,0,1,202.664,30.6692)"/></g><g><path d="M80.439,171.077L85.905,190.975L74.974,190.975L80.439,171.077Z" style="fill:#f20d0d;stroke:#fff;stroke-width:3.75px" transform="matrix(1,0,0,1,0,-50) matrix(1,0,0,1,33.0393,0) matrix(6.12323e-17,-1,1,6.12323e-17,-96.1034,234.938)"/></g><g><path d="M80.439,171.077L85.905,190.975L74.974,190.975L80.439,171.077Z" style="fill:#f20d0d;stroke:#fff;stroke-width:3.75px" transform="matrix(1,0,0,1,0,-50) matrix(1,0,0,1,33.0393,0) matrix(6.12323e-17,1,-1,6.12323e-17,448.715,74.0599)"/></g><g><path d="M94.871,123.83L257.74,123.83" style="fill:none;stroke:#fff;stroke-width:3.75px" transform="matrix(1,0,0,1,0,-50) matrix(1,0,0,1,33.0393,0) matrix(1,0,0,1,0,30.6692)"/></g></g><g><g><path d="M74.974,153.919L74.974,93.741" style="fill:none;stroke:#000;stroke-width:1px" transform="matrix(1,0,0,1,0,-50) matrix(1,0,0,1,33.0393,0) matrix(1,0,0,1,0,30.6692)"/></g><g><path d="M74.974,153.919L74.974,93.741" style="fill:none;stroke:#000;stroke-width:1px" transform="matrix(1,0,0,1,0,-50) matrix(1,0,0,1,33.0393,0) matrix(1,0,0,1,202.664,30.6692)"/></g><g><path d="M80.439,171.077L85.905,190.975L74.974,190.975L80.439,171.077Z" style="fill:#f20d0d" transform="matrix(1,0,0,1,0,-50) matrix(1,0,0,1,33.0393,0) matrix(6.12323e-17,-1,1,6.12323e-17,-96.1034,234.938)"/></g><g><path d="M80.439,171.077L85.905,190.975L74.974,190.975L80.439,171.077Z" style="fill:#f20d0d" transform="matrix(1,0,0,1,0,-50) matrix(1,0,0,1,33.0393,0) matrix(6.12323e-17,1,-1,6.12323e-17,448.715,74.0599)"/></g><g><path d="M94.871,123.83L257.74,123.83" style="fill:none;stroke:#f20d0d;stroke-width:1px" transform="matrix(1,0,0,1,0,-50) matrix(1,0,0,1,33.0393,0) matrix(1,0,0,1,0,30.6692)"/></g></g></g></svg>