<svg xmlns="http://www.w3.org/2000/svg" xmlns:xlink="http://www.w3.org/1999/xlink" width="100%" height="100%" version="1.1" viewBox="0 0 240 360" xml:space="preserve" style="fill-rule:evenodd;clip-rule:evenodd;stroke-miterlimit:1.5"><g><path d="M370.5,158.647L350.3,178.847L336.7,165.247L363.9,138.047L336.7,110.847L350.3,97.247L377.5,124.447L404.7,97.247L418.3,110.847L391.1,138.047L418.3,165.247L404.7,178.847L384.5,158.647L384.5,176.047L394,176.047L394,232.047L361,232.047L361,176.047L370.5,176.047L370.5,158.647Z" style="fill:#884db3;stroke:#000;stroke-width:.22px;stroke-dasharray:1.08,1.08,0,0" transform="matrix(2.32152,0,0,2.32152,-752.899,-201.514)"/></g><g><g><path d="M150,160L216,251L84,251L150,160Z" style="fill:#26b9d9" transform="matrix(0.0595514,-8.26442e-19,8.26442e-19,0.0595514,122.345,315.347) matrix(6.77106e-17,-1.1058,2.2957,1.40571e-16,-321.813,325.87)"/></g><g><g transform="matrix(0.0595514,-8.26442e-19,8.26442e-19,0.0595514,122.345,315.347) matrix(6.97078,-1.2326e-32,-1.2326e-32,7.39703,-489.533,-1027.22) matrix(0.648649,0,0,1,29.3833,93)"><rect width="37" height="21" x="21" y="57"/></g><g><path d="M104.5,57L114,78L95,78L104.5,57Z" transform="matrix(0.0595514,-8.26442e-19,8.26442e-19,0.0595514,122.345,315.347) matrix(6.97078,-1.2326e-32,-1.2326e-32,7.39703,-489.533,-1027.22) matrix(6.12323e-17,-1,1,6.12323e-17,-1.24628,265)"/></g></g></g><g><text x="-9.111" y="302.715" style="font-family:'Arial-BoldMT','Arial',sans-serif;font-weight:700;font-size:20px;fill:#26b9d9" transform="matrix(1,0,0,1,176.159,22.0184)">camera</text><text x="-11.304" y="323.369" style="font-family:'Arial-BoldMT','Arial',sans-serif;font-weight:700;font-size:20px;fill:#26b9d9" transform="matrix(1,0,0,1,176.159,22.0184)">frustum</text></g></svg>