<svg xmlns="http://www.w3.org/2000/svg" xmlns:xlink="http://www.w3.org/1999/xlink" width="100%" height="100%" version="1.1" viewBox="0 0 500 500" xml:space="preserve" style="fill-rule:evenodd;clip-rule:evenodd;stroke-linecap:round;stroke-linejoin:round;stroke-miterlimit:1.5"><g><g transform="matrix(1,0,0,1,-63.8587,-9.6138) matrix(0.984731,0,0,0.984731,4.92423,3.96993)"><circle cx="322.5" cy="260" r="118.602" style="fill:#ffd3d3;stroke:#000;stroke-width:.42px"/></g><g transform="matrix(1,0,0,1,-63.8587,-9.6138) matrix(1,0,0,1,70,0)"><rect width="75" height="220" x="215" y="150" style="fill:#576ddb"/></g><g><text x="108.391" y="203.717" style="font-family:'Arial-BoldMT','Arial',sans-serif;font-weight:700;font-size:50px" transform="matrix(1,0,0,1,-63.8587,-9.6138) matrix(3.87943e-17,0.633559,-0.633559,3.87943e-17,440.415,150.222)">zebra</text></g></g><g transform="matrix(1,0,0,1,24.568,0.386204)"><rect width="34.565" height="399.228" x="100" y="50" style="fill:#7b7b7b"/><g><text x="108.391" y="203.717" style="font-family:'Arial-BoldMT','Arial',sans-serif;font-weight:700;font-size:50px" transform="matrix(3.87943e-17,0.633559,-0.633559,3.87943e-17,235.004,140.012)">fence</text></g></g></svg>