<svg xmlns="http://www.w3.org/2000/svg" xmlns:xlink="http://www.w3.org/1999/xlink" width="100%" height="100%" preserveAspectRatio="none" version="1.1" viewBox="0 0 640 480" xml:space="preserve" style="fill-rule:evenodd;clip-rule:evenodd;stroke-linejoin:round;stroke-miterlimit:1.41421"><path d="M640,0L640,480L0,480L0,0L640,0ZM576,64L64,64L64,416L576,416L576,64Z" style="fill:#000"/><g><path d="M85,86L214,86L171.127,128.873L259.882,217.627L214.627,262.882L125.873,174.127L85,215L85,86Z" style="fill:#000" transform="matrix(1,0,0,1,11,10)"/></g><g><path d="M85,86L214,86L171.127,128.873L259.882,217.627L214.627,262.882L125.873,174.127L85,215L85,86Z" style="fill:#000" transform="matrix(-1,5.66554e-16,-5.66554e-16,-1,629,470)"/></g></svg>